<svg viewbox="0 0 50 50" xmlns="http://www.w3.org/2000/svg"><defs><style>.cls-1{fill:none;}.cls-2{fill:#1da1f2;}</style></defs><title>アセット 3</title><g data-name="レイヤー 2" id="レイヤー_2"><g data-name="レイヤー 1" id="レイヤー_1-2"><rect class="cls-1" height="50" width="50"></rect><path class="cls-2" d="M19.8,40.92c14.1,0,21.82-11.69,21.82-21.82q0-.5,0-1a15.55,15.55,0,0,0,3.83-4A15.51,15.51,0,0,1,41,15.35a7.76,7.76,0,0,0,3.37-4.25A15.54,15.54,0,0,1,39.52,13a7.67,7.67,0,0,0-13.27,5.24,7.76,7.76,0,0,0,.2,1.75,21.76,21.76,0,0,1-15.8-8A7.66,7.66,0,0,0,13,22.18a7.53,7.53,0,0,1-3.47-1v.1a7.66,7.66,0,0,0,6.15,7.52,7.94,7.94,0,0,1-2,.27A7.48,7.48,0,0,1,12.24,29,7.67,7.67,0,0,0,19.4,34.3a15.43,15.43,0,0,1-9.52,3.28,15.78,15.78,0,0,1-1.83-.11A21.65,21.65,0,0,0,19.8,40.92"></path></g></g></svg>