<svg viewbox="0 0 1606.36 138.45" xmlns="http://www.w3.org/2000/svg"><defs><style>.cls-1{fill:#b082e0;}</style></defs><title>アセット 1</title><g data-name="レイヤー 2" id="レイヤー_2"><g data-name="背景テキスト+キャラ" id="背景テキスト_キャラ"><path class="cls-1" d="M70.32,25.23H25.82V54.82H67.54V77.07H25.82v58.4H0V3H70.32Z"></path><path class="cls-1" d="M152.75,3c18.27,0,27.61,4.77,33.77,9.93,10.13,8.54,13.11,19.87,13.11,29.8,0,12.91-5.17,24.23-15.49,31.18a36.65,36.65,0,0,1-14.51,5.76L211,135.47H178.77L143.41,82.24h-3.17v53.23H114.41V3ZM140.24,64h7.34c5,0,25.43-.59,25.43-20.06C173,24.23,152.75,24,148,24h-7.74Z"></path><path class="cls-1" d="M276.1,3V86.21c0,10.13,3.38,16.29,6.36,19.66,3.77,4.57,10.72,9.14,21.05,9.14s17.29-4.57,21.06-9.14c3-3.37,6.36-9.53,6.36-19.66V3h25.82V84c0,12.52-2,25.23-9.93,35.36-9.54,12.52-26.22,19.07-43.31,19.07s-33.76-6.55-43.3-19.07c-7.94-10.13-9.93-22.84-9.93-35.36V3Z"></path><path class="cls-1" d="M442.56,3V135.47H416.74V3Z"></path><path class="cls-1" d="M548.23,25.23V135.47H522.41V25.23h-29.8V3H578V25.23Z"></path><path class="cls-1" d="M683.3,33.17c-7.74-10.33-16.88-11.32-21.65-11.32-13.9,0-18.27,8.74-18.27,15.49a11.15,11.15,0,0,0,4.17,8.94c3.18,3,7.55,4.57,15.89,7.55,10.33,3.58,20.06,7.15,26.82,13.31,6,5.36,11.32,14.3,11.32,27.81,0,25.82-18.67,43.5-46.09,43.5-24.43,0-38.73-14.9-45.68-25l16.88-16.09A31.08,31.08,0,0,0,654.5,115c11.72,0,20.46-7.15,20.46-18.27a15.41,15.41,0,0,0-5.16-11.92c-5-4.57-12.92-7.15-20.46-9.74-7-2.38-15.3-5.56-22.05-11.52-4.37-3.77-10.53-11.12-10.53-24.63C616.76,19.47,629.87,0,659.27,0c8.34,0,24,1.59,37.54,15.49Z"></path><path class="cls-1" d="M862.87,3c7.35,0,21.65,0,32.38,8.34,7.74,6,12.31,16.29,12.31,27.41,0,17.09-11.32,24-14.9,26A31.16,31.16,0,0,1,910,73.1c7.94,7.55,9.53,17.88,9.53,24.83,0,7.75-2.19,18.67-11.32,26.82-9.93,8.74-22,10.72-33.57,10.72h-44.5V3Zm-7,55h7.35c4,0,20.06-.39,20.06-17.28C883.33,28.6,874,24,863.46,24h-7.54Zm0,56.42H867c4.77,0,11.92-.2,17.68-3.58,6.36-3.77,8.14-10.13,8.14-15.3a15.85,15.85,0,0,0-9.73-15.09c-5.56-2.58-12.12-2.58-17.68-2.58h-9.53Z"></path><path class="cls-1" d="M1045.61,107.66H992.18l-11.72,27.81h-28L1009.46,3h20.26l55.42,132.49h-27.81Zm-7.54-21-18.88-47.68-18.87,47.68Z"></path><path class="cls-1" d="M1191.61,33.17c-7.74-10.33-16.88-11.32-21.65-11.32-13.9,0-18.27,8.74-18.27,15.49a11.15,11.15,0,0,0,4.17,8.94c3.18,3,7.55,4.57,15.89,7.55,10.33,3.58,20.06,7.15,26.81,13.31,6,5.36,11.33,14.3,11.33,27.81,0,25.82-18.68,43.5-46.09,43.5-24.43,0-38.73-14.9-45.68-25L1135,97.33A31.07,31.07,0,0,0,1162.81,115c11.72,0,20.46-7.15,20.46-18.27a15.41,15.41,0,0,0-5.16-11.92c-5-4.57-12.92-7.15-20.46-9.74-7-2.38-15.3-5.56-22.05-11.52-4.37-3.77-10.53-11.12-10.53-24.63,0-19.46,13.11-38.93,42.51-38.93,8.34,0,24,1.59,37.54,15.49Z"></path><path class="cls-1" d="M1282.19,59l48.67-56h32.57l-56,61.18,59,71.31h-34.16l-47.08-59.39-3,3v56.41h-25.82V3h25.82Z"></path><path class="cls-1" d="M1480,25.23h-47.67V54.82H1478V77.07h-45.68v36.15H1480v22.25h-73.49V3H1480Z"></path><path class="cls-1" d="M1576.57,25.23V135.47h-25.83V25.23H1521V3h85.41V25.23Z"></path></g></g></svg>