<svg viewbox="0 0 50 50" xmlns="http://www.w3.org/2000/svg"><defs><style>.cls-1{fill:none;}.cls-2{fill:#00b900;}.cls-3{fill:#fff;}</style></defs><title>アセット 2</title><g data-name="レイヤー 2" id="レイヤー_2"><g data-name="レイヤー 1" id="レイヤー_1-2"><rect class="cls-1" height="50" width="50"></rect><path class="cls-2" d="M47.29,22.68c0-9.91-9.94-18-22.15-18S3,12.77,3,22.68C3,31.57,10.87,39,21.51,40.42c.72.15,1.71.47,1.95,1.09a4.51,4.51,0,0,1,.08,2s-.26,1.56-.32,1.9c-.1.56-.44,2.19,1.92,1.19s12.75-7.51,17.4-12.86h0c3.21-3.52,4.75-7.09,4.75-11.06"></path><path class="cls-3" d="M20.64,17.9H19.09a.44.44,0,0,0-.44.43V28a.44.44,0,0,0,.44.43h1.55a.43.43,0,0,0,.43-.43V18.33a.43.43,0,0,0-.43-.43"></path><path class="cls-3" d="M31.33,17.9H29.78a.43.43,0,0,0-.43.43v5.73l-4.43-6,0-.05h0l0,0h0l0,0h0l0,0h0l0,0H23a.43.43,0,0,0-.43.43V28a.43.43,0,0,0,.43.43h1.56A.44.44,0,0,0,25,28V22.25l4.42,6a.38.38,0,0,0,.11.11h0l0,0h.1l.11,0h1.55a.43.43,0,0,0,.43-.43V18.33a.43.43,0,0,0-.43-.43"></path><path class="cls-3" d="M16.89,26H12.67V18.33a.43.43,0,0,0-.43-.43H10.69a.43.43,0,0,0-.43.43V28h0a.38.38,0,0,0,.12.29h0a.45.45,0,0,0,.3.12h6.2a.44.44,0,0,0,.44-.43V26.42a.44.44,0,0,0-.44-.43"></path><path class="cls-3" d="M39.91,20.31a.43.43,0,0,0,.43-.43V18.33a.43.43,0,0,0-.43-.43H33.7a.42.42,0,0,0-.3.12h0a.45.45,0,0,0-.12.3h0V28h0a.43.43,0,0,0,.12.29h0a.43.43,0,0,0,.29.12h6.21a.43.43,0,0,0,.43-.43V26.42a.43.43,0,0,0-.43-.43H35.69V24.36h4.22a.43.43,0,0,0,.43-.43V22.37a.43.43,0,0,0-.43-.43H35.69V20.31Z"></path></g></g></svg>