<svg viewbox="0 0 173.29 38" xmlns="http://www.w3.org/2000/svg"><defs><style>.cls-1{fill:#fff;}</style></defs><title>アセット 1</title><g data-name="レイヤー 2" id="レイヤー_2"><g id="ナビ"><path class="cls-1" d="M40.62,31.33V2H34.85V38h2.89A10.87,10.87,0,0,0,48.59,27.15H42.81A5.07,5.07,0,0,1,40.62,31.33Z"></path><rect class="cls-1" height="5.77" width="11.2" x="45.35" y="16.73"></rect><polygon class="cls-1" points="164.02 16.73 164.02 1.97 158.25 1.97 158.25 37.72 164.02 37.72 164.02 22.5 173.29 22.5 173.29 16.73 164.02 16.73"></polygon><rect class="cls-1" height="7.67" width="3.87" x="83.59"></rect><rect class="cls-1" height="10.03" width="4.33" x="50.84" y="3.35"></rect><rect class="cls-1" height="7.67" width="3.87" x="88.91"></rect><rect class="cls-1" height="8.83" width="4.33" x="136.47" y="13.92"></rect><rect class="cls-1" height="8.83" width="4.33" x="142.26" y="13.92"></rect><rect class="cls-1" height="10.03" width="5.77" x="57.01" y="3.35"></rect><path class="cls-1" d="M136.87,4.85h-13.7V2H117.4V6.78a5.07,5.07,0,0,1-2.53,4.38v6.16a10.87,10.87,0,0,0,7.59-6.7h3.81v13c0,.23,0,.46,0,.69h0a13.79,13.79,0,0,1-11.1,13.53,14.1,14.1,0,0,0,2.44.21A14.44,14.44,0,0,0,132,23.57V10.62h4.83Z"></path><path class="cls-1" d="M19.94,2H.85V7.73H14.17V23.57A13.36,13.36,0,0,1,.81,36.93l-.81,0A14.4,14.4,0,0,0,5.51,38a14.29,14.29,0,0,0,10.2-4.23,14.29,14.29,0,0,0,4.23-10.2Z"></path><path class="cls-1" d="M70.39,2H64.62V23.57A8.66,8.66,0,0,1,56,32.23l3.24,5.4A14.46,14.46,0,0,0,70.39,23.57Z"></path><path class="cls-1" d="M148,23.57a8.67,8.67,0,0,1-8.66,8.66v0l3.22,5.37A14.45,14.45,0,0,0,153.8,23.57v-11H148Z"></path><path class="cls-1" d="M25.36,4.85v20c0,5.3-2.06,9-5.81,12.76-.13.14-.28.27-.41.4h1.19A10.86,10.86,0,0,0,31.13,27.15V4.85Z"></path><path class="cls-1" d="M75.8,2V24.84c0,5.3-2.07,9-5.81,12.76l-.42.4h1.2A10.86,10.86,0,0,0,81.58,27.15V2H75.81Z"></path><path class="cls-1" d="M91.07,27.15v-17H85.3v17A10.85,10.85,0,0,0,93,37.52l3.17-5.29A5.09,5.09,0,0,1,91.07,27.15Z"></path><path class="cls-1" d="M111.55,27.15V3.35h-15V9.12h9.21V23.57c0,.23,0,.46,0,.69h0a13.79,13.79,0,0,1-11.1,13.53,14.41,14.41,0,0,0,12.65-4c.14-.14.26-.29.4-.44a10.89,10.89,0,0,0,5.72,4.19l3.18-5.29A5.09,5.09,0,0,1,111.55,27.15Z"></path></g></g></svg>