<svg viewbox="0 0 264.34 124" xmlns="http://www.w3.org/2000/svg"><defs><style>.cls-1{fill:#6c6c7a;}.cls-2{fill:#323232;}.cls-3{fill:#fff;}</style></defs><title>txt_name</title><g data-name="レイヤー 2" id="レイヤー_2"><g id="レイアウト"><rect class="cls-1" height="20" width="50" y="80.59"></rect><path class="cls-2" d="M1.51,121.24l1.33-8.44,3.07,6.75L9,112.78l1.25,8.46H9.38l-.76-5.57-2.72,5.9-2.69-5.9-.79,5.57Z"></path><path class="cls-2" d="M16.34,116.26h.86v5h-.86v-.7a2.1,2.1,0,0,1-1.7.84,2.63,2.63,0,0,1,0-5.24,2.06,2.06,0,0,1,1.7.83Zm-3.24,2.48a1.66,1.66,0,0,0,1.63,1.87,1.86,1.86,0,0,0,0-3.71A1.65,1.65,0,0,0,13.1,118.74Z"></path><path class="cls-2" d="M23.25,116.26h.86v5h-.86v-.7a2.1,2.1,0,0,1-1.7.84,2.63,2.63,0,0,1,0-5.24,2.06,2.06,0,0,1,1.7.83ZM20,118.74a1.66,1.66,0,0,0,1.63,1.87,1.86,1.86,0,0,0,0-3.71A1.65,1.65,0,0,0,20,118.74Z"></path><path class="cls-2" d="M27.92,120.77l-2.29-4.51h1l1.76,3.56L30,116.26h1L27.3,124h-1Z"></path><path class="cls-2" d="M36.29,116.26h.86v5h-.86v-.7a2.1,2.1,0,0,1-1.7.84,2.63,2.63,0,0,1,0-5.24,2.06,2.06,0,0,1,1.7.83ZM33,118.74a1.66,1.66,0,0,0,1.63,1.87,1.86,1.86,0,0,0,0-3.71A1.65,1.65,0,0,0,33,118.74Z"></path><path class="cls-2" d="M46.57,114.82a1.94,1.94,0,0,0-.47-.6,1.44,1.44,0,0,0-.9-.28,1.23,1.23,0,0,0-1.34,1.24.84.84,0,0,0,.3.7,2.61,2.61,0,0,0,.84.5l.77.34a3.89,3.89,0,0,1,1.24.76,1.92,1.92,0,0,1,.58,1.45,2.57,2.57,0,0,1-4.27,1.81,2.9,2.9,0,0,1-.74-1.42l.86-.24a1.89,1.89,0,0,0,.48,1A1.64,1.64,0,0,0,46.66,119a1.19,1.19,0,0,0-.4-.94,3.48,3.48,0,0,0-1-.55l-.72-.34a3.53,3.53,0,0,1-1.07-.66,1.66,1.66,0,0,1-.55-1.31,2.07,2.07,0,0,1,2.24-2.06,2.17,2.17,0,0,1,1.28.36,2.42,2.42,0,0,1,.78.89Z"></path><path class="cls-2" d="M53.41,116.26h.86v5h-.86v-.7a2.1,2.1,0,0,1-1.7.84,2.63,2.63,0,0,1,0-5.24,2.06,2.06,0,0,1,1.7.83Zm-3.24,2.48a1.66,1.66,0,0,0,1.63,1.87,1.86,1.86,0,0,0,0-3.71A1.65,1.65,0,0,0,50.17,118.74Z"></path><path class="cls-2" d="M57.37,112.49v5.61l1.82-1.85h1.13l-2.13,2.13,2.52,2.84H59.58l-2-2.27-.22.22v2.05H56.5v-8.74Z"></path><path class="cls-2" d="M66,116.26h.86v5H66v-.7a2.1,2.1,0,0,1-1.7.84,2.63,2.63,0,0,1,0-5.24A2.06,2.06,0,0,1,66,117Zm-3.24,2.48a1.66,1.66,0,0,0,1.63,1.87,1.86,1.86,0,0,0,0-3.71A1.65,1.65,0,0,0,62.75,118.74Z"></path><path class="cls-2" d="M69.08,116.26h.86v.53a1.45,1.45,0,0,1,1.24-.65,1.49,1.49,0,0,1,1.36.8,1.66,1.66,0,0,1,1.5-.8c1.48,0,1.62,1.24,1.62,1.94v3.15h-.86v-3c0-.56-.07-1.31-.89-1.31-1,0-1.1,1-1.1,1.56v2.77h-.86v-3c0-.35,0-1.38-.9-1.38s-1.09,1-1.09,1.62v2.71h-.86Z"></path><path class="cls-2" d="M77.59,118.77a2.64,2.64,0,1,1,2.64,2.61A2.56,2.56,0,0,1,77.59,118.77Zm.89,0a1.75,1.75,0,1,0,1.75-1.86A1.72,1.72,0,0,0,78.48,118.77Z"></path><path class="cls-2" d="M85.68,117.05v4.19h-.86v-4.19h-.53v-.79h.53v-1.8h.86v1.8h.86v.79Z"></path><path class="cls-2" d="M87.64,118.77a2.64,2.64,0,1,1,2.64,2.61A2.56,2.56,0,0,1,87.64,118.77Zm.89,0a1.75,1.75,0,1,0,1.75-1.86A1.72,1.72,0,0,0,88.53,118.77Z"></path><path class="cls-2" d="M102.05,116.26h.86v5h-.86v-.7a2.1,2.1,0,0,1-1.7.84,2.63,2.63,0,0,1,0-5.24,2.06,2.06,0,0,1,1.7.83Zm-3.24,2.48a1.66,1.66,0,0,0,1.63,1.87,1.86,1.86,0,0,0,0-3.71A1.65,1.65,0,0,0,98.82,118.74Z"></path><path class="cls-2" d="M107.2,117.41a.76.76,0,0,0-.7-.5.55.55,0,0,0-.6.56c0,.36.24.47.8.71a3,3,0,0,1,1.25.77,1.18,1.18,0,0,1,.26.8,1.58,1.58,0,0,1-1.71,1.63,1.78,1.78,0,0,1-1.74-1.27l.74-.31a1.13,1.13,0,0,0,1,.82.77.77,0,0,0,.82-.79c0-.47-.34-.62-.8-.83a3.23,3.23,0,0,1-1.21-.73,1.08,1.08,0,0,1-.23-.73,1.34,1.34,0,0,1,1.45-1.39,1.44,1.44,0,0,1,1.37.9Z"></path><path class="cls-2" d="M118,119h-3.41l-1,2.25h-1l3.68-8.38,3.59,8.38h-1Zm-.35-.84-1.34-3.2-1.37,3.2Z"></path><path class="cls-2" d="M122.3,112.49v5.61l1.82-1.85h1.13l-2.14,2.13,2.52,2.84h-1.13l-2-2.27-.22.22v2.05h-.86v-8.74Z"></path><path class="cls-2" d="M127.53,113.77a.61.61,0,1,1-.61.61A.61.61,0,0,1,127.53,113.77Zm.43,2.49v5h-.86v-5Z"></path><path class="cls-2" d="M131.08,117.05v4.19h-.86v-4.19h-.53v-.79h.53v-1.8h.86v1.8h.86v.79Z"></path><path class="cls-2" d="M133.05,118.77a2.64,2.64,0,1,1,2.64,2.61A2.56,2.56,0,0,1,133.05,118.77Zm.89,0a1.75,1.75,0,1,0,1.75-1.86A1.72,1.72,0,0,0,133.94,118.77Z"></path><path class="cls-2" d="M147.44,114.82a1.94,1.94,0,0,0-.47-.6,1.44,1.44,0,0,0-.9-.28,1.23,1.23,0,0,0-1.34,1.24.84.84,0,0,0,.3.7,2.61,2.61,0,0,0,.84.5l.77.34a3.89,3.89,0,0,1,1.24.76,1.92,1.92,0,0,1,.58,1.45,2.57,2.57,0,0,1-4.27,1.81,2.9,2.9,0,0,1-.74-1.42l.86-.24a1.89,1.89,0,0,0,.48,1,1.64,1.64,0,0,0,2.76-1.14,1.19,1.19,0,0,0-.4-.94,3.48,3.48,0,0,0-1-.55l-.72-.34a3.53,3.53,0,0,1-1.07-.66,1.66,1.66,0,0,1-.55-1.31,2.07,2.07,0,0,1,2.24-2.06,2.17,2.17,0,0,1,1.28.36,2.42,2.42,0,0,1,.78.89Z"></path><path class="cls-2" d="M150.15,118.77a2.64,2.64,0,1,1,2.64,2.61A2.56,2.56,0,0,1,150.15,118.77Zm.89,0a1.75,1.75,0,1,0,1.75-1.86A1.72,1.72,0,0,0,151,118.77Z"></path><path class="cls-2" d="M157.35,116.26h.86v.53a1.45,1.45,0,0,1,1.24-.65,1.49,1.49,0,0,1,1.36.8,1.66,1.66,0,0,1,1.5-.8c1.48,0,1.62,1.24,1.62,1.94v3.15h-.86v-3c0-.56-.07-1.31-.89-1.31-1,0-1.1,1-1.1,1.56v2.77h-.86v-3c0-.35,0-1.38-.9-1.38s-1.09,1-1.09,1.62v2.71h-.86Z"></path><path class="cls-2" d="M170,116.26h.86v5H170v-.7a2.1,2.1,0,0,1-1.7.84,2.63,2.63,0,0,1,0-5.24,2.06,2.06,0,0,1,1.7.83Zm-3.24,2.48a1.66,1.66,0,0,0,1.63,1.87,1.86,1.86,0,0,0,0-3.71A1.65,1.65,0,0,0,166.75,118.74Z"></path><path class="cls-3" d="M20.35,96.11a6.52,6.52,0,0,1-3,.7,6.16,6.16,0,0,1-4.51-1.67,5.91,5.91,0,0,1-2-4.59,6.2,6.2,0,0,1,2-4.7,6.41,6.41,0,0,1,4.53-1.58,6.33,6.33,0,0,1,3,.74v2.74a4,4,0,0,0-3-1.35,4.15,4.15,0,0,0,.09,8.3,3.77,3.77,0,0,0,2.88-1.31Z"></path><path class="cls-3" d="M28.07,84.53l3.29,8.07,3.29-8.07h2.62l-5.21,12H30.62l-5.17-12Z"></path><path class="cls-2" d="M62.68,93.38v-6h-2.1v-2h2.1v-4.4h2.14v4.4h1.94v2H64.82v5.52l1.86-.46s0,.08.16,1.78a16.14,16.14,0,0,0,.68-5V81.69H79v2.06H69.66v2.68h7l1.58.36a20,20,0,0,1-3.18,8,12.11,12.11,0,0,0,4.18,2.84L77.72,99.5a14,14,0,0,1-4-3,15.48,15.48,0,0,1-3.88,3l-1.5-1.66a13.17,13.17,0,0,0,4-3,18.84,18.84,0,0,1-2.62-5.44l2-.68a15,15,0,0,0,2,4.36,15.64,15.64,0,0,0,1.94-4.6h-6v.68c0,3.76-.74,7.34-3.24,10.24l-2-1.18a10.61,10.61,0,0,0,2.34-4c-1.78.6-4.44,1.44-6,1.9l-.5-2.26C60.9,93.78,61.76,93.59,62.68,93.38Z"></path><path class="cls-2" d="M82.7,96.34l-1.56-1.72a19.59,19.59,0,0,0,7.4-7.88h-7.1v-2h8.12V81H91.8v3.74H100v2H92.94a20,20,0,0,0,7.36,7.68l-1.64,1.86a23.92,23.92,0,0,1-6.86-7.66v5.3h3.4v2H91.8v3.56H89.56V96H86.22v-2h3.34V88.85A23.66,23.66,0,0,1,82.7,96.34Z"></path><path class="cls-2" d="M120.72,95.9H115.3l1.44.62a25.17,25.17,0,0,1-5.62,3l-2-1.2a23.46,23.46,0,0,0,5.2-2.42h-5.48V94.2H127.4v1.7H122c1.9.88,3.56,1.74,5.06,2.62l-2.2,1c-1.46-.9-3.3-1.88-5.44-2.92Zm-3.78-11.24v-.92h-8V82.09h8V81h2.26v1.14h8.1v1.64h-8.1v.92h5.22v8.7h-12.6v-8.7ZM114,87.21h8.16v-1H114Zm0,2.3h8.16v-1H114Zm0,2.32h8.16V90.77H114Z"></path><path class="cls-2" d="M134.72,99.52h-2V91.39c-1,.14-2,.26-2.74.34l-.34-1.86c.3,0,.66,0,1.06-.06.56-.74,1.12-1.52,1.64-2.3A19.16,19.16,0,0,0,129.8,85l1-1.4.52.42A25.15,25.15,0,0,0,133,81l1.74.72a30.72,30.72,0,0,1-2.18,3.48c.3.3.58.6.84.88.76-1.22,1.42-2.36,1.9-3.28l1.8.8a71.46,71.46,0,0,1-4.12,6.12l2.14-.18c-.24-.46-.5-.94-.78-1.38l1.54-.68a13.17,13.17,0,0,1,1.34,2.64,3.75,3.75,0,0,0,2.76-2.64H136.8V85.67h4.7V84.39h-3.36V82.63h3.36V81h2.18v1.68H147v1.76h-3.34v1.28h4.7v1.76h-3.7v.82c0,.56.08.66.44.66h1.1c.36,0,.4-.06.42-.88l1.76.3c-.16,2-.5,2.24-2,2.26-.44,0-1.12,0-1.48,0-1.76,0-2.1-.46-2.1-2.34v-.82h-.86a5.61,5.61,0,0,1-3.72,4.22l-.84-1,.12.44-1.62.68a6.1,6.1,0,0,0-.2-.76c-.3.06-.62.1-1,.14Zm-2.36-6.8a19.74,19.74,0,0,1-1,5.32l-1.62-.62a16.31,16.31,0,0,0,1-5Zm16.22,5c-1.16,1.68-1.2,1.72-1.24,1.76a16.08,16.08,0,0,1-4.86-2,18.79,18.79,0,0,1-5,2L136.18,98a16.71,16.71,0,0,0,4.74-1.6,12.24,12.24,0,0,1-1.52-1.7c-.4.32-.84.64-1.3.94l-.8-.64c.06.42.08.8.1,1.14l-1.68.38a18.72,18.72,0,0,0-.6-3.84l1.64-.4c.16.6.3,1.22.4,1.82a9.79,9.79,0,0,0,3.46-3.72l2.16.18c-.18.36-.38.72-.6,1.08h3.36l1.56.44a9.56,9.56,0,0,1-2.9,4.28A14,14,0,0,0,148.58,97.74Zm-6-2.5a7.51,7.51,0,0,0,1.72-2h-3.36l-.08.06A7.7,7.7,0,0,0,142.58,95.24Z"></path><path class="cls-2" d="M15.4,4.32V0h6.48V4.32H33.7V0h6.6V4.32H55.84v5.4H40.3v3.06H33.7V9.72H21.88V12.9H15.4V9.72H.16V4.32Zm9,36.12V36.66H8.56V14.16H47.5v22.5H31.12v3.78H55.84V46H31.12v9.78H24.4V46H.16V40.44ZM15,23.28H40.84v-4H15Zm0,8.34H40.84V27.48H15Z"></path><path class="cls-2" d="M72.82,4.38H88.54V.06H95.2V4.38h23.58V9.3h-46V19.92c0,11.88-1.14,24.36-5,35.46L62.2,52.14c3.6-9.9,4.56-20.94,4.56-32.16V4.38h6.06ZM91.9,41.46v-3.3H76.3V33.84H91.9V30.9c-4.62.3-9.12.42-12.9.36-.42-1.26-.9-2.46-1.44-4,9.72.36,24.42-.78,31.86-2.46l2.1,3.84a127.93,127.93,0,0,1-12.9,1.74v3.48H114v4.32H98.62v3.3h20v4.62h-20v4.14c0,3.06-1,4.86-3.72,5.28a56.46,56.46,0,0,1-8.7.18l-1-5.28c1.92.12,4.68.06,5.52.06s1.2-.48,1.2-1.26V46.08H72V41.46ZM94.72,21.6,92.32,25c-1.26-1.08-3.06-2.58-5-4v4.26H82v-4.2a32.63,32.63,0,0,1-6.3,5.1L73,22.5a26,26,0,0,0,8.28-5.64H74.62V13.08H82v-2.7h5.34v2.7h7.38v3.78H87.34v.3C90,18.66,93,20.46,94.72,21.6Zm2.82,4.08-2.64-3.6a22.44,22.44,0,0,0,8-5.22H96.58V13.08H104v-2.7h5.34v2.7H118v3.78h-7.74a25.49,25.49,0,0,0,8.76,5.4L116.2,26.1a31.22,31.22,0,0,1-6.9-5.22v3.9H104V20.7A26.1,26.1,0,0,1,97.54,25.68Z"></path><path class="cls-2" d="M152.08,12.3c-.36,5.34-1.2,11.46-2.82,15.12L144.88,25c1.56-3.24,2.4-8.88,2.64-13.74Zm49.74,37.32-3.72,4.74a36.58,36.58,0,0,1-9-9V55.74h-5.88V38h-3.78V55.68H173.8V45.54a39.6,39.6,0,0,1-9.24,9l-3.72-4.8A32.43,32.43,0,0,0,173.56,38h-7.14V33.3h7.38V30.24h-9.42V25.68h9.42V22.62h-7.38V17.94h7.38v-2.7h-7.56a18.76,18.76,0,0,1,.78,2.4l-4.32,1.68a36.75,36.75,0,0,0-2.88-8.1V55.74h-6.36V.06h6.36v11l3.72-1.62a34.84,34.84,0,0,1,2.1,4.26V10.56h8.16V7.8A41.68,41.68,0,0,1,168.88,9l-2.34-4a41.3,41.3,0,0,0,14-5l3.36,3.6a38.12,38.12,0,0,1-4.44,2.22v4.74h3.78V9.18L181.3,6.42a36.91,36.91,0,0,0,13-6.42l3.9,3.6a44,44,0,0,1-9.06,5.1v1.86h11.28v4.68H189.1v2.7h9.06v7.74H201v4.56h-2.82V38h-8.82A31.13,31.13,0,0,0,201.82,49.62Zm-18.6-31.68v-2.7h-3.78v2.7Zm0,7.74V22.62h-3.78v3.06Zm-3.78,4.56V33.3h3.78V30.24ZM193,25.68V22.62h-3.9v3.06Zm-3.9,4.56V33.3H193V30.24Z"></path><path class="cls-2" d="M238.66,11.28c3.24,19.68,11.76,32.1,25.68,38.4l-5.58,6C248,49.92,240.4,40.56,235.6,27.36c-3.36,10.92-9.72,21.54-22.08,28.32l-5.28-5.1C231,39.18,232.12,15.48,232.42.18l6.9.12C239.2,3.66,239,7.38,238.66,11.28Z"></path></g></g></svg>