<svg viewbox="0 0 311.28 121.32" xmlns="http://www.w3.org/2000/svg"><defs><style>.cls-1{fill:#ba99c7;}.cls-2{fill:#323232;}.cls-3{fill:#fff;}</style></defs><title>アセット 4</title><g data-name="レイヤー 2" id="レイヤー_2"><g id="レイアウト"><rect class="cls-1" height="20" width="50" x="0.14" y="80.53"></rect><path class="cls-2" d="M6.34,118.92H2.94l-1,2.26H1l3.68-8.39,3.59,8.39h-1ZM6,118.08l-1.34-3.2-1.37,3.2Z"></path><path class="cls-2" d="M10.66,117v4.19H9.8V117H9.27v-.79H9.8v-1.8h.86v1.8h.87V117Z"></path><path class="cls-2" d="M15,117.35a.75.75,0,0,0-.69-.5.55.55,0,0,0-.6.56c0,.36.24.47.8.71a3,3,0,0,1,1.25.77,1.13,1.13,0,0,1,.26.8,1.58,1.58,0,0,1-1.71,1.63,1.77,1.77,0,0,1-1.74-1.27l.74-.31a1.14,1.14,0,0,0,1,.81.78.78,0,0,0,.82-.79c0-.47-.34-.62-.81-.83a3.15,3.15,0,0,1-1.21-.73,1.09,1.09,0,0,1-.23-.73,1.34,1.34,0,0,1,1.45-1.39,1.43,1.43,0,0,1,1.37.9Z"></path><path class="cls-2" d="M18.63,119.1a1.7,1.7,0,0,0,.24,1.07,1.06,1.06,0,0,0,.88.38,1,1,0,0,0,.87-.38,1.7,1.7,0,0,0,.24-1.07v-2.9h.86v3a2,2,0,0,1-.45,1.5,2.06,2.06,0,0,1-1.52.62,2.08,2.08,0,0,1-1.53-.62,2,2,0,0,1-.45-1.5v-3h.86Z"></path><path class="cls-2" d="M24,116.2h.86v.53a1.45,1.45,0,0,1,1.24-.65,1.48,1.48,0,0,1,1.35.8,1.68,1.68,0,0,1,1.5-.8c1.48,0,1.62,1.23,1.62,1.94v3.16h-.86v-3c0-.56-.07-1.3-.89-1.3-1,0-1.1,1-1.1,1.56v2.77h-.87v-3c0-.35,0-1.38-.9-1.38s-1.09,1-1.09,1.62v2.71H24Z"></path><path class="cls-2" d="M33.21,113.71a.61.61,0,0,1,.61.61.61.61,0,1,1-1.22,0A.61.61,0,0,1,33.21,113.71Zm.43,2.49v5h-.86v-5Z"></path><path class="cls-2" d="M41.45,114v7.16h-.88V114h-2v-.84H43.4V114Z"></path><path class="cls-2" d="M48.8,116.2h.86v5H48.8v-.7a2.12,2.12,0,0,1-1.71.84,2.63,2.63,0,0,1,0-5.24,2.08,2.08,0,0,1,1.71.83Zm-3.24,2.48a1.66,1.66,0,0,0,1.63,1.87,1.86,1.86,0,0,0,0-3.7A1.65,1.65,0,0,0,45.56,118.68Z"></path><path class="cls-2" d="M51.89,116.2h.87v.58a1.73,1.73,0,0,1,1.43-.7,1.69,1.69,0,0,1,1.42.68,2.26,2.26,0,0,1,.29,1.34v3.08H55v-3.06a1.48,1.48,0,0,0-.23-.91,1,1,0,0,0-.82-.36,1.07,1.07,0,0,0-.87.38,2.08,2.08,0,0,0-.36,1.34v2.61h-.87Z"></path><path class="cls-2" d="M62.55,119.91a3.27,3.27,0,0,1-.61.8,2.42,2.42,0,0,1-1.66.61,2.38,2.38,0,0,1-2.46-2.6,2.41,2.41,0,0,1,2.41-2.64,2.25,2.25,0,0,1,1.89.91,3.31,3.31,0,0,1,.46,1.87H58.71a1.59,1.59,0,0,0,1.58,1.69,1.51,1.51,0,0,0,1-.36,2,2,0,0,0,.52-.68Zm-.85-1.77a1.48,1.48,0,0,0-2.93,0Z"></path><path class="cls-2" d="M65.51,120.39H69v.79H63.79L67.38,117h-2.9v-.79h4.63Z"></path><path class="cls-2" d="M74.44,116.2h.86v5h-.86v-.7a2.11,2.11,0,0,1-1.7.84,2.63,2.63,0,0,1,0-5.24,2.06,2.06,0,0,1,1.7.83Zm-3.24,2.48a1.66,1.66,0,0,0,1.63,1.87,1.7,1.7,0,0,0,1.66-1.86,1.68,1.68,0,0,0-1.66-1.84A1.65,1.65,0,0,0,71.2,118.68Z"></path><path class="cls-2" d="M78.4,112.43v5.62l1.82-1.85h1.13l-2.14,2.13,2.52,2.85H80.61l-2-2.27-.22.22v2.05h-.86v-8.75Z"></path><path class="cls-2" d="M83.63,113.71a.61.61,0,0,1,.61.61.61.61,0,0,1-.61.61.62.62,0,0,1-.61-.61A.61.61,0,0,1,83.63,113.71Zm.43,2.49v5H83.2v-5Z"></path><path class="cls-2" d="M93.51,116.2h.86v5h-.86v-.7a2.12,2.12,0,0,1-1.71.84,2.63,2.63,0,0,1,0-5.24,2.08,2.08,0,0,1,1.71.83Zm-3.24,2.48a1.66,1.66,0,0,0,1.63,1.87,1.7,1.7,0,0,0,1.65-1.86,1.68,1.68,0,0,0-1.65-1.84A1.65,1.65,0,0,0,90.27,118.68Z"></path><path class="cls-2" d="M98.65,117.35a.75.75,0,0,0-.69-.5.55.55,0,0,0-.6.56c0,.36.24.47.8.71a3,3,0,0,1,1.25.77,1.13,1.13,0,0,1,.26.8A1.58,1.58,0,0,1,98,121.32a1.77,1.77,0,0,1-1.74-1.27l.74-.31a1.14,1.14,0,0,0,1,.81.78.78,0,0,0,.82-.79c0-.47-.34-.62-.81-.83a3.15,3.15,0,0,1-1.21-.73,1.09,1.09,0,0,1-.23-.73A1.35,1.35,0,0,1,98,116.08a1.43,1.43,0,0,1,1.36.9Z"></path><path class="cls-2" d="M109.45,118.92h-3.4l-1,2.26h-1l3.69-8.39,3.58,8.39h-1Zm-.34-.84-1.35-3.2-1.37,3.2Z"></path><path class="cls-2" d="M112.89,116.2h.86v.54a1.39,1.39,0,0,1,1.13-.66,2,2,0,0,1,.77.2l-.41.78a.88.88,0,0,0-.51-.16.83.83,0,0,0-.69.31,2.07,2.07,0,0,0-.29,1.34v2.63h-.86Z"></path><path class="cls-2" d="M117.47,113.71a.61.61,0,0,1,.61.61.61.61,0,1,1-1.22,0A.61.61,0,0,1,117.47,113.71Zm.43,2.49v5H117v-5Z"></path><path class="cls-2" d="M122.19,117.35a.77.77,0,0,0-.7-.5.55.55,0,0,0-.6.56c0,.36.24.47.8.71a3,3,0,0,1,1.25.77,1.14,1.14,0,0,1,.27.8,1.59,1.59,0,0,1-1.72,1.63,1.78,1.78,0,0,1-1.74-1.27l.75-.31a1.11,1.11,0,0,0,1,.81.77.77,0,0,0,.82-.79c0-.47-.34-.62-.81-.83a3.15,3.15,0,0,1-1.21-.73,1.08,1.08,0,0,1-.22-.73,1.34,1.34,0,0,1,1.45-1.39,1.43,1.43,0,0,1,1.36.9Z"></path><path class="cls-2" d="M128.77,116.2h.87v5h-.87v-.7a2.11,2.11,0,0,1-1.7.84,2.63,2.63,0,0,1,0-5.24,2.06,2.06,0,0,1,1.7.83Zm-3.24,2.48a1.66,1.66,0,0,0,1.64,1.87,1.7,1.7,0,0,0,1.65-1.86,1.68,1.68,0,0,0-1.65-1.84A1.65,1.65,0,0,0,125.53,118.68Z"></path><path class="cls-2" d="M136.37,118.08a2.31,2.31,0,0,0,.63,2,2.28,2.28,0,0,0,1.32.45,2.23,2.23,0,0,0,1.32-.45,2.28,2.28,0,0,0,.64-2v-4.9h.89v5.14a3.11,3.11,0,0,1-.51,1.92,2.83,2.83,0,0,1-2.34,1.08,2.79,2.79,0,0,1-2.33-1.08,3.05,3.05,0,0,1-.51-1.92v-5.14h.89Z"></path><path class="cls-2" d="M143.31,118.71a2.64,2.64,0,1,1,2.63,2.61A2.55,2.55,0,0,1,143.31,118.71Zm.88,0a1.76,1.76,0,1,0,1.75-1.86A1.72,1.72,0,0,0,144.19,118.71Z"></path><path class="cls-2" d="M151.39,117v4.19h-.86V117H150v-.79h.53v-1.8h.86v1.8h.87V117Z"></path><path class="cls-2" d="M157.49,116.2h.86v5h-.86v-.7a2.11,2.11,0,0,1-1.7.84,2.63,2.63,0,0,1,0-5.24,2.07,2.07,0,0,1,1.7.83Zm-3.24,2.48a1.66,1.66,0,0,0,1.63,1.87,1.7,1.7,0,0,0,1.66-1.86,1.68,1.68,0,0,0-1.66-1.84A1.65,1.65,0,0,0,154.25,118.68Z"></path><path class="cls-2" d="M160.59,116.2h.86v.58a1.75,1.75,0,0,1,1.43-.7,1.69,1.69,0,0,1,1.42.68,2.19,2.19,0,0,1,.29,1.34v3.08h-.86v-3.06a1.48,1.48,0,0,0-.23-.91,1,1,0,0,0-.82-.36,1.07,1.07,0,0,0-.87.38,2.08,2.08,0,0,0-.36,1.34v2.61h-.86Z"></path><path class="cls-2" d="M167.26,113.71a.61.61,0,0,1,.61.61.62.62,0,0,1-.61.61.61.61,0,0,1-.61-.61A.61.61,0,0,1,167.26,113.71Zm.43,2.49v5h-.86v-5Z"></path><path class="cls-3" d="M20.49,96.05a6.5,6.5,0,0,1-3,.7,6.18,6.18,0,0,1-4.51-1.67,5.94,5.94,0,0,1-2-4.59,6.21,6.21,0,0,1,2-4.7,6.39,6.39,0,0,1,4.53-1.59,6.38,6.38,0,0,1,3,.74v2.74a4,4,0,0,0-3-1.35,4.15,4.15,0,0,0,.09,8.3,3.78,3.78,0,0,0,2.89-1.32Z"></path><path class="cls-3" d="M28.21,84.47l3.29,8.07,3.29-8.07h2.62l-5.21,12H30.76l-5.18-12Z"></path><path class="cls-2" d="M61.22,96l-1-2.11a22.07,22.07,0,0,0,2.72-5.68H60.58V86.37H63V84a18.82,18.82,0,0,1-1.92.36l-.68-1.62a17.87,17.87,0,0,0,6-1.84l.86,1.22,0-.12A43.2,43.2,0,0,0,77.5,80.89l1,1.58a38.29,38.29,0,0,1-4.48.76v1.16h4.88V86H74v1h4.36v6.56H74v1h4.18V96.2H74v1.2h5.14v1.7H66.62V97.4h5.2V96.2h-4V94.58h4v-1H67.64V87h4.18V86H67.14v-1.6h4.68v-.94c-1.38.12-2.74.18-3.92.18l-.48-1.22a17,17,0,0,1-2.3,1v3H67v1.84H65.12v.16c.78,1.22,1.64,2.6,2.12,3.46l-1,2C66,93,65.56,92,65.12,91v8.51H63V92A30,30,0,0,1,61.22,96Zm8.46-7.55v1.16h2.14V88.45Zm0,2.42v1.18h2.14V90.87Zm6.54-2.42H74v1.16h2.24Zm0,2.42H74v1.18h2.24Z"></path><path class="cls-2" d="M84.7,94V80.89h1.68V94h1.14V83.67H89.2V97.29H87.52V95.78H83.64v1.88H82v-14h1.66V94ZM99,97.56c0,1.06-.3,1.66-1.22,1.82a16.26,16.26,0,0,1-2.48,0c-.12-.72-.24-1.3-.36-1.9a12.46,12.46,0,0,0,1.66,0c.3,0,.38-.16.38-.42V89.47h-7.3V87.69H92a11.08,11.08,0,0,0-.76-3l1.64-.48H89.92V82.49h3.9v-1.6h2v1.6h4v1.74H96.92l1.78.44c-.3.88-.72,2-1.2,3h2.64v1.78H99Zm-7-7h4v5.51H92V97H90.26V90.61H92Zm2.18,3.9V92.19H92v2.32Zm1.52-6.82a35.06,35.06,0,0,0,1.1-3.46H92.92a13,13,0,0,1,.82,3.1l-1.28.36Z"></path><path class="cls-2" d="M113.66,99.34a14.36,14.36,0,0,1-2.54.06l-.36-1.84a15.65,15.65,0,0,0,1.64,0c.26,0,.34-.12.34-.34V95.75c-1.34.14-2.6.29-3.56.37L109,94.47c1,0,2.32-.16,3.78-.28V92.63h.9c.36-.32.72-.66,1.06-1h-5V90.07h7.08l1.16.7a21.19,21.19,0,0,1-3.16,2.86V94c1.28-.1,2.54-.22,3.54-.32l0,1.42c-1,.14-2.28.29-3.56.42v2.13C114.8,98.66,114.5,99.2,113.66,99.34ZM109,84V82.47h3.76V80.89h2.06v1.58h3.74V84ZM110,89.31V84.77h7.56v4.54Zm5.54-3H112v1.5h3.58Zm8.3,7.6a10.78,10.78,0,0,0,3.94,3.94l-1.48,1.61a13,13,0,0,1-3.66-3.73,17.61,17.61,0,0,1-3.92,3.71l-1.46-1.5a16,16,0,0,0,4.3-4.07,23.82,23.82,0,0,1-1.66-4.56c-.28.52-.56,1-.88,1.52l-1.6-1.08a20.51,20.51,0,0,0,3.1-8.86l1.94.32c-.18,1.12-.4,2.22-.68,3.28h5.7v1.88h-1.36A19.89,19.89,0,0,1,123.88,93.89Zm.24-7.54H121.3a23,23,0,0,0,1.48,5.4A18.11,18.11,0,0,0,124.12,86.35Z"></path><path class="cls-2" d="M148.6,97.32s-.06.06-1.38,2.14c-3.5-.44-6.22-1.58-8-4-1.22,2-3.58,3.25-8,4l-1.22-2c4.42-.6,6.46-1.58,7.4-3.37h-7.1V92.39h7.66a10.22,10.22,0,0,0,.16-1.44h-8V89.31h8V87.89h-5.9V86.25H138V84.91H130.9V83.27h4.16a9.64,9.64,0,0,0-.88-1.76l2-.62a10.53,10.53,0,0,1,1.12,2.38H141a21.73,21.73,0,0,0,1.18-2.4l2.4.56a21.83,21.83,0,0,1-1.2,1.84h4.2v1.64H140.3v1.34h6.08v1.64H140.3v1.42h8.2V91h-8.1q-.06.75-.18,1.44h8.1v1.74H140.9C142.42,96.32,145.16,97.17,148.6,97.32Z"></path><path class="cls-2" d="M49.26,13.86V39.42H7.5V19.86c-.78.66-1.56,1.2-2.4,1.8L0,17.94C7.38,13.2,13.56,6.9,16.92,0L23,1.68c-.3.6-.6,1.26-1,1.86h14.4L40.2,5.76a104,104,0,0,1-6.72,8.1ZM14.16,42.78a42.31,42.31,0,0,1-7.68,12.9L.3,53.28A31.58,31.58,0,0,0,8,41.22ZM14,24.36h10.8V19.14H14Zm0,9.78h10.8v-5.4H14ZM26.22,13.86c1.38-1.56,2.82-3.3,4.14-5.1H18.6a58.74,58.74,0,0,1-4.32,5.1ZM23.28,41.64A65.89,65.89,0,0,1,25.74,54l-6.36.9a59.47,59.47,0,0,0-1.86-12.36C23,41.76,23.16,41.7,23.28,41.64Zm11.52-.36A61.88,61.88,0,0,1,39,53.52L32.82,54.9a54.84,54.84,0,0,0-3.54-12.3C34.56,41.4,34.68,41.34,34.8,41.28Zm7.8-16.92V19.14H31.32v5.22Zm0,9.78v-5.4H31.32v5.4Zm4.68,6.54a64.2,64.2,0,0,1,8.64,12.84l-6.54,2.16a58.34,58.34,0,0,0-7.8-12.84Z"></path><path class="cls-2" d="M79.14,53.76v1.86H72.66V35a54.78,54.78,0,0,1-6.18,3.18l-3.78-5.4c9-3.42,17.76-10,25.08-20.1H94a59,59,0,0,0,25.8,20.1l-4.14,5.52c-2-1-4-2-6-3.12v20.4H103V53.76Zm6-50.88A58.46,58.46,0,0,1,70.26,18l-5.34-3.9A50,50,0,0,0,79.2.66ZM103.44,31A74.9,74.9,0,0,1,90.78,18.54,69.42,69.42,0,0,1,78.48,31ZM103,47.76V37.08H79.14V47.76ZM102.06.48a116.79,116.79,0,0,1,15.6,14l-6,3.18A103.28,103.28,0,0,0,96.84,3.48Z"></path><path class="cls-2" d="M186.84,17.7c-.18,1.14-.42,2.22-.6,3.3,7.68,2.28,11.82,7.68,11.82,15.24,0,9.54-5,16.2-19.08,18.18l-2.58-5.94c11.28-1.2,14.94-5.16,14.94-12.18,0-4.38-2.4-7.68-6.72-9.42-2.7,8.34-7.2,14.76-12.48,19a36,36,0,0,0,1.26,3.84l-6.3,2.4c-.24-.84-.48-1.68-.72-2.58a22.79,22.79,0,0,1-9.9,2.34c-5.46,0-8.16-3.9-8.16-9.72,0-8.28,6.12-16,15.66-19.86.12-2.46.3-5.1.48-7.74H149.94v-6h15.18c.3-2.4.6-4.74,1-7l6.66.66c-.42,2-.84,4.2-1.14,6.36H196v6H170.88c-.18,2-.36,4-.48,5.88a42.79,42.79,0,0,1,6.9-.6c.9,0,1.74,0,2.58.06A23.12,23.12,0,0,0,180.3,17Zm-32.46,24c0,2.64,1.2,3.78,3.66,3.78a14.85,14.85,0,0,0,7.08-2,102.38,102.38,0,0,1-1.2-14.88C158.1,31.56,154.38,36.48,154.38,41.7Zm22.5-16.14a29.82,29.82,0,0,0-6.66.72v.12a101.2,101.2,0,0,0,.66,12.48,35.4,35.4,0,0,0,7.62-13.26A14.62,14.62,0,0,0,176.88,25.56Z"></path><path class="cls-2" d="M211.74,20.88a65.52,65.52,0,0,1,2.34-17.4L221,4.92a49.32,49.32,0,0,0-2.76,15.42,26.31,26.31,0,0,0,.72,6.54c1-1.8,3.18-5.58,4.44-7.62L227.7,23a82.71,82.71,0,0,0-7.14,13.5l-5.88.9c-2-4.44-2.94-10.44-2.94-16.5ZM248.1,2.64a108.37,108.37,0,0,1,2,21.36c0,13.86-4.08,24.42-22.68,30.24l-3.9-6.48C240.12,43.2,243,36.06,243,24.12a81.52,81.52,0,0,0-2.28-20.28Z"></path><path class="cls-2" d="M263.4,13.14c2.58.12,5.46.18,8.76.18,4.8,0,10.2-.12,15.48-.48A91.66,91.66,0,0,1,285.42,2.4l7.2-.72a64.86,64.86,0,0,0,2,10.62A115,115,0,0,0,309.9,10l1.38,6.18a126.38,126.38,0,0,1-14.76,2.1,43.07,43.07,0,0,0,10,15.6l-4.14,4.74a42.87,42.87,0,0,0-20.46-4.92c-5.82,0-8.82,2.7-8.82,6.6,0,4.56,5.28,7.5,17.82,7.5,2.64,0,5.94-.18,9.42-.54l-.36,6.36c-3.18.24-6.36.36-8.94.36-17.16,0-24.84-5.28-24.84-14.22,0-6.78,5.94-11.94,14.52-11.94a56.07,56.07,0,0,1,14.64,2,46.91,46.91,0,0,1-5.7-10.92c-6.42.42-13,.6-18.9.6-2.58,0-5.1,0-7.32-.06Z"></path></g></g></svg>