<svg viewbox="0 0 264.04 124" xmlns="http://www.w3.org/2000/svg"><defs><style>.cls-1{fill:#ed9191;}.cls-2{fill:#323232;}.cls-3{fill:#fff;}</style></defs><title>txt_name</title><g data-name="レイヤー 2" id="レイヤー_2"><g id="レイアウト"><rect class="cls-1" height="20" width="50" y="80.59"></rect><path class="cls-2" d="M3.76,114.08v7.16H2.87v-7.16H.93v-.84H5.7v.84Z"></path><path class="cls-2" d="M10.5,116.26h.86v5H10.5v-.7a2.1,2.1,0,0,1-1.7.84,2.63,2.63,0,0,1,0-5.24,2.06,2.06,0,0,1,1.7.83Zm-3.24,2.48a1.66,1.66,0,0,0,1.63,1.87,1.86,1.86,0,0,0,0-3.71A1.65,1.65,0,0,0,7.26,118.74Z"></path><path class="cls-2" d="M14.46,112.49v5.61l1.82-1.85h1.13l-2.14,2.13,2.52,2.84H16.67l-2-2.27-.22.22v2.05H13.6v-8.74Z"></path><path class="cls-2" d="M23.08,116.26h.86v5h-.86v-.7a2.1,2.1,0,0,1-1.7.84,2.63,2.63,0,0,1,0-5.24,2.06,2.06,0,0,1,1.7.83Zm-3.24,2.48a1.66,1.66,0,0,0,1.63,1.87,1.86,1.86,0,0,0,0-3.71A1.65,1.65,0,0,0,19.84,118.74Z"></path><path class="cls-2" d="M26.17,112.49H27v4.34a1.76,1.76,0,0,1,1.43-.7,1.69,1.69,0,0,1,1.43.68,2.22,2.22,0,0,1,.29,1.33v3.08h-.86v-3.06a1.46,1.46,0,0,0-.23-.91,1,1,0,0,0-.82-.36,1.09,1.09,0,0,0-.87.38,2.1,2.1,0,0,0-.36,1.34v2.6h-.86Z"></path><path class="cls-2" d="M32.84,113.77a.61.61,0,1,1-.61.61A.61.61,0,0,1,32.84,113.77Zm.43,2.49v5h-.86v-5Z"></path><path class="cls-2" d="M35.51,116.26h.86v.54a1.38,1.38,0,0,1,1.13-.66,1.83,1.83,0,0,1,.77.2l-.41.78a.88.88,0,0,0-.5-.17.84.84,0,0,0-.7.31,2.15,2.15,0,0,0-.29,1.34v2.63h-.86Z"></path><path class="cls-2" d="M39.35,118.77A2.64,2.64,0,1,1,42,121.38,2.56,2.56,0,0,1,39.35,118.77Zm.89,0A1.75,1.75,0,1,0,42,116.91,1.72,1.72,0,0,0,40.24,118.77Z"></path><path class="cls-2" d="M53.73,114.82a1.94,1.94,0,0,0-.47-.6,1.44,1.44,0,0,0-.9-.28A1.23,1.23,0,0,0,51,115.18a.84.84,0,0,0,.3.7,2.61,2.61,0,0,0,.84.5l.77.34a3.89,3.89,0,0,1,1.24.76,1.92,1.92,0,0,1,.58,1.45,2.57,2.57,0,0,1-4.27,1.81,2.9,2.9,0,0,1-.74-1.42l.86-.24a1.89,1.89,0,0,0,.48,1A1.64,1.64,0,0,0,53.83,119a1.19,1.19,0,0,0-.4-.94,3.48,3.48,0,0,0-1-.55l-.72-.34a3.53,3.53,0,0,1-1.07-.66,1.66,1.66,0,0,1-.55-1.31,2.07,2.07,0,0,1,2.24-2.06,2.17,2.17,0,0,1,1.28.36,2.42,2.42,0,0,1,.78.89Z"></path><path class="cls-2" d="M60.57,116.26h.86v5h-.86v-.7a2.1,2.1,0,0,1-1.7.84,2.63,2.63,0,0,1,0-5.24,2.06,2.06,0,0,1,1.7.83Zm-3.24,2.48A1.66,1.66,0,0,0,59,120.61a1.86,1.86,0,0,0,0-3.71A1.65,1.65,0,0,0,57.34,118.74Z"></path><path class="cls-2" d="M64.53,112.49v5.61l1.82-1.85h1.13l-2.13,2.13,2.52,2.84H66.74l-2-2.27-.22.22v2.05h-.86v-8.74Z"></path><path class="cls-2" d="M70.2,119.16a1.69,1.69,0,0,0,.24,1.07,1.19,1.19,0,0,0,1.75,0,1.69,1.69,0,0,0,.24-1.07v-2.9h.86v3a2,2,0,0,1-.46,1.5,2.17,2.17,0,0,1-3,0,2,2,0,0,1-.46-1.5v-3h.86Z"></path><path class="cls-2" d="M75.53,116.26h.86v.54a1.38,1.38,0,0,1,1.13-.66,1.83,1.83,0,0,1,.77.2l-.41.78a.88.88,0,0,0-.5-.17.84.84,0,0,0-.7.31,2.15,2.15,0,0,0-.29,1.34v2.63h-.86Z"></path><path class="cls-2" d="M83.49,116.26h.86v5h-.86v-.7a2.1,2.1,0,0,1-1.7.84,2.63,2.63,0,0,1,0-5.24,2.06,2.06,0,0,1,1.7.83Zm-3.24,2.48a1.66,1.66,0,0,0,1.63,1.87,1.86,1.86,0,0,0,0-3.71A1.65,1.65,0,0,0,80.25,118.74Z"></path><path class="cls-2" d="M87,113.77a.61.61,0,1,1-.61.61A.61.61,0,0,1,87,113.77Zm.43,2.49v5h-.86v-5Z"></path><path class="cls-2" d="M96.9,116.26h.86v5H96.9v-.7a2.1,2.1,0,0,1-1.7.84,2.63,2.63,0,0,1,0-5.24,2.06,2.06,0,0,1,1.7.83Zm-3.24,2.48a1.66,1.66,0,0,0,1.63,1.87,1.86,1.86,0,0,0,0-3.71A1.65,1.65,0,0,0,93.66,118.74Z"></path><path class="cls-2" d="M102,117.41a.76.76,0,0,0-.7-.5.55.55,0,0,0-.6.56c0,.36.24.47.8.71a3,3,0,0,1,1.25.77,1.18,1.18,0,0,1,.26.8,1.58,1.58,0,0,1-1.71,1.63,1.78,1.78,0,0,1-1.74-1.27l.74-.31a1.13,1.13,0,0,0,1,.82.77.77,0,0,0,.82-.79c0-.47-.34-.62-.8-.83a3.23,3.23,0,0,1-1.21-.73,1.08,1.08,0,0,1-.23-.73,1.34,1.34,0,0,1,1.45-1.39,1.44,1.44,0,0,1,1.37.9Z"></path><path class="cls-2" d="M112.84,119h-3.41l-1,2.25h-1l3.68-8.38,3.59,8.38h-1Zm-.35-.84-1.34-3.2-1.37,3.2Z"></path><path class="cls-2" d="M117.37,120.77l-2.29-4.51h1l1.76,3.56,1.62-3.56h1L116.74,124h-1Z"></path><path class="cls-2" d="M125.73,116.26h.86v5h-.86v-.7a2.1,2.1,0,0,1-1.7.84,2.63,2.63,0,0,1,0-5.24,2.06,2.06,0,0,1,1.7.83Zm-3.24,2.48a1.66,1.66,0,0,0,1.63,1.87,1.86,1.86,0,0,0,0-3.71A1.65,1.65,0,0,0,122.49,118.74Z"></path><path class="cls-2" d="M128.83,116.26h.86v.53a1.45,1.45,0,0,1,1.24-.65,1.49,1.49,0,0,1,1.36.8,1.66,1.66,0,0,1,1.5-.8c1.48,0,1.62,1.24,1.62,1.94v3.15h-.86v-3c0-.56-.07-1.31-.89-1.31-1,0-1.1,1-1.1,1.56v2.77h-.86v-3c0-.35,0-1.38-.9-1.38s-1.09,1-1.09,1.62v2.71h-.86Z"></path><path class="cls-2" d="M142.06,120a3,3,0,0,1-.61.8,2.41,2.41,0,0,1-1.66.61,2.38,2.38,0,0,1-2.46-2.6,2.41,2.41,0,0,1,2.41-2.64,2.23,2.23,0,0,1,1.88.91,3.34,3.34,0,0,1,.47,1.87h-3.87a1.59,1.59,0,0,0,1.58,1.69,1.51,1.51,0,0,0,1-.36,2,2,0,0,0,.52-.68Zm-.85-1.76a1.49,1.49,0,0,0-1.46-1.3,1.51,1.51,0,0,0-1.46,1.3Z"></path><path class="cls-2" d="M151.2,114.82a1.94,1.94,0,0,0-.47-.6,1.44,1.44,0,0,0-.9-.28,1.23,1.23,0,0,0-1.34,1.24.84.84,0,0,0,.3.7,2.61,2.61,0,0,0,.84.5l.77.34a3.89,3.89,0,0,1,1.24.76,1.92,1.92,0,0,1,.58,1.45,2.57,2.57,0,0,1-4.27,1.81,2.9,2.9,0,0,1-.74-1.42l.86-.24a1.89,1.89,0,0,0,.48,1A1.64,1.64,0,0,0,151.3,119a1.19,1.19,0,0,0-.4-.94,3.48,3.48,0,0,0-1-.55l-.72-.34a3.53,3.53,0,0,1-1.07-.66,1.66,1.66,0,0,1-.55-1.31,2.07,2.07,0,0,1,2.24-2.06,2.17,2.17,0,0,1,1.28.36,2.42,2.42,0,0,1,.78.89Z"></path><path class="cls-2" d="M153.92,118.77a2.64,2.64,0,1,1,2.64,2.61A2.56,2.56,0,0,1,153.92,118.77Zm.89,0a1.75,1.75,0,1,0,1.75-1.86A1.72,1.72,0,0,0,154.81,118.77Z"></path><path class="cls-2" d="M161.12,116.26H162v.53a1.45,1.45,0,0,1,1.24-.65,1.49,1.49,0,0,1,1.36.8,1.66,1.66,0,0,1,1.5-.8c1.48,0,1.62,1.24,1.62,1.94v3.15h-.86v-3c0-.56-.07-1.31-.89-1.31-1,0-1.1,1-1.1,1.56v2.77H164v-3c0-.35,0-1.38-.9-1.38s-1.09,1-1.09,1.62v2.71h-.86Z"></path><path class="cls-2" d="M173.75,116.26h.86v5h-.86v-.7a2.1,2.1,0,0,1-1.7.84,2.63,2.63,0,0,1,0-5.24,2.06,2.06,0,0,1,1.7.83Zm-3.24,2.48a1.66,1.66,0,0,0,1.63,1.87,1.86,1.86,0,0,0,0-3.71A1.65,1.65,0,0,0,170.51,118.74Z"></path><path class="cls-3" d="M20.35,96.11a6.52,6.52,0,0,1-3,.7,6.16,6.16,0,0,1-4.51-1.67,5.91,5.91,0,0,1-2-4.59,6.21,6.21,0,0,1,2-4.7,6.41,6.41,0,0,1,4.53-1.58,6.33,6.33,0,0,1,3,.74v2.74a4,4,0,0,0-3-1.35,4.15,4.15,0,0,0,.09,8.3,3.77,3.77,0,0,0,2.88-1.31Z"></path><path class="cls-3" d="M28.07,84.53l3.29,8.07,3.29-8.07h2.62l-5.21,12H30.62l-5.17-12Z"></path><path class="cls-2" d="M69.68,89.23a9,9,0,0,1-1.8,2.56l-1.24-.6-.72,1.16c-.24-.64-.58-1.48-1-2.34v9.5H62.88V92.13a30.9,30.9,0,0,1-1.62,4L60.16,94a24.74,24.74,0,0,0,2.72-7v0H60.44V85h2.44V81H65V85h1.8v1.9H65v.58c.74,1.1,1.56,2.34,2,3.14l-.2.32a8.11,8.11,0,0,0,1.52-2.16Zm9.18,8.92-1.5,1.36a32,32,0,0,0-3.68-1.7,18.78,18.78,0,0,1-5.84,1.72L66.72,98a20.65,20.65,0,0,0,4.74-1l-1.64-.54-.16.22-1.8-.58c.42-.56,1-1.34,1.5-2.14H66.74V92.27h3.68c.26-.42.5-.84.7-1.22l2,.3c-.16.3-.36.6-.56.92H79v1.66H76.82a6.15,6.15,0,0,1-1.5,2.66A37.46,37.46,0,0,1,78.87,98.16Zm-7.54-9.38h-4V81.35h5.12v7.42h-1a7.83,7.83,0,0,1,1.18,1.56l-1.46.52a7.6,7.6,0,0,0-1-1.56Zm-2.4-5.28h1.82v-.9H68.92Zm0,2h1.82v-.92H68.92Zm0,2h1.82v-.92H68.92Zm4.5,8.36a4.09,4.09,0,0,0,1.32-2h-3.2L70.8,95C71.72,95.32,72.6,95.6,73.42,95.9Zm2.36-6.66a8.33,8.33,0,0,1-1.86,2.38L72.58,91a8,8,0,0,0,1.78-2.22Zm1.64-.46H73.28V81.35H78.6v7.42H77.5a12.85,12.85,0,0,1,1.7,2.28l-1.44.52a12.41,12.41,0,0,0-1.54-2.28Zm-2.48-5.28h1.94v-.9H74.94Zm0,2h1.94v-.92H74.94Zm0,2h1.94v-.92H74.94Z"></path><path class="cls-2" d="M84.08,99.56l-1.9-1.38a8.91,8.91,0,0,0,3.56-4.72h-4.3v-2.1h4.7a14.64,14.64,0,0,0,.08-1.64V86.87H81.78V84.79h4.44V81h2.22v3.84H93V81h2.24v3.84H99.7v2.08H95.22v4.48H100v2.1H95.22v6.06H93V93.46H88A10.55,10.55,0,0,1,84.08,99.56Zm4.3-8.2H93V86.87H88.44v2.84C88.44,90.27,88.42,90.81,88.38,91.35Z"></path><path class="cls-2" d="M117,93.35v-1h.94A18.61,18.61,0,0,0,119.7,91h-4.18a43.31,43.31,0,0,1-5.5,2l-1.4-1.64a41,41,0,0,0,4.5-1.38v-.62h1.56c.76-.32,1.48-.66,2.18-1h-8V86.51h7.26v-1.7h-4.92V83.09h4.92V81h2.22v2.14h4.26v1.08a20.23,20.23,0,0,0,1.94-2.2l1.7.94a23.3,23.3,0,0,1-3.42,3.6h4.6v1.76h-6.94c-.52.36-1.08.7-1.64,1h3.4l1.28.78a28.85,28.85,0,0,1-4.2,3.28h8.1v1.76h-8.16v2.44c0,1.1-.36,1.72-1.34,1.88a23.07,23.07,0,0,1-3.18,0l-.42-2c.78.06,1.94.06,2.28,0s.42-.16.42-.44v-2h-8.16V93.35Zm2.76-6.84a20.13,20.13,0,0,0,2.14-1.7h-3.58v1.7Z"></path><path class="cls-2" d="M135.36,87.83c.22-1,.38-2,.52-3l2.1.42q-.21,1.32-.48,2.58h10.74v1.94H137a23.27,23.27,0,0,1-5.3,9.64l-1.9-1.28a20.17,20.17,0,0,0,5-8.36H130V87.83Zm2.58-5V81h2.28v1.9h7.34V87h-2.24v-2.2h-12.4V87h-2.18V82.85ZM136.1,97a51.46,51.46,0,0,0,2.64-6.7l2.22.44c-.64,1.74-1.58,4-2.6,6.1,1.9-.14,4-.3,5.76-.46a29.76,29.76,0,0,0-2.36-3.28l1.8-.9a25.22,25.22,0,0,1,4.2,6.38l-2.08,1c-.18-.48-.38-1-.62-1.48-3.16.38-7.66.86-10.28,1.12l-.46-2.1Z"></path><path class="cls-2" d="M15.4,4.32V0h6.48V4.32H33.7V0h6.6V4.32H55.84v5.4H40.3v3.06H33.7V9.72H21.88V12.9H15.4V9.72H.16V4.32Zm9,36.12V36.66H8.56V14.16H47.5v22.5H31.12v3.78H55.84V46H31.12v9.78H24.4V46H.16V40.44ZM15,23.28H40.84v-4H15Zm0,8.34H40.84V27.48H15Z"></path><path class="cls-2" d="M72.82,4.38H88.54V.06H95.2V4.38h23.58V9.3h-46V19.92c0,11.88-1.14,24.36-5,35.46L62.2,52.14c3.6-9.9,4.56-20.94,4.56-32.16V4.38h6.06ZM91.9,41.46v-3.3H76.3V33.84H91.9V30.9c-4.62.3-9.12.42-12.9.36-.42-1.26-.9-2.46-1.44-4,9.72.36,24.42-.78,31.86-2.46l2.1,3.84a127.93,127.93,0,0,1-12.9,1.74v3.48H114v4.32H98.62v3.3h20v4.62h-20v4.14c0,3.06-1,4.86-3.72,5.28a56.46,56.46,0,0,1-8.7.18l-1-5.28c1.92.12,4.68.06,5.52.06s1.2-.48,1.2-1.26V46.08H72V41.46ZM94.72,21.6,92.32,25c-1.26-1.08-3.06-2.58-5-4v4.26H82v-4.2a32.63,32.63,0,0,1-6.3,5.1L73,22.5a26,26,0,0,0,8.28-5.64H74.62V13.08H82v-2.7h5.34v2.7h7.38v3.78H87.34v.3C90,18.66,93,20.46,94.72,21.6Zm2.82,4.08-2.64-3.6a22.44,22.44,0,0,0,8-5.22H96.58V13.08H104v-2.7h5.34v2.7H118v3.78h-7.74a25.49,25.49,0,0,0,8.76,5.4L116.2,26.1a31.22,31.22,0,0,1-6.9-5.22v3.9H104V20.7A26.1,26.1,0,0,1,97.54,25.68Z"></path><path class="cls-2" d="M160,55.74h-5.88V31.38c-3.06.42-6,.78-8.22,1l-1-5.58c.9,0,2-.06,3.18-.18,1.68-2.22,3.36-4.56,4.92-6.9a57.62,57.62,0,0,0-7.74-7.5l3-4.2c.54.42,1,.84,1.56,1.26A75.58,75.58,0,0,0,154.72.06l5.22,2.16a92.38,92.38,0,0,1-6.54,10.44c.9.9,1.74,1.8,2.52,2.64,2.28-3.66,4.26-7.08,5.7-9.84l5.4,2.4a215.49,215.49,0,0,1-12.36,18.36l6.42-.54c-.72-1.38-1.5-2.82-2.34-4.14l4.62-2a39.42,39.42,0,0,1,4,7.92c5.16-1.68,7.32-4.56,8.28-7.92h-9.42V14.22h14.1V10.38H170.26V5.1h10.08v-5h6.54v5h10v5.28h-10v3.84H201V19.5h-11.1V22c0,1.68.24,2,1.32,2h3.3c1.08,0,1.2-.18,1.26-2.64l5.28.9c-.48,5.94-1.5,6.72-6.06,6.78-1.32,0-3.36.06-4.44,0-5.28-.12-6.3-1.38-6.3-7V19.5h-2.58c-1.32,5.52-4.2,9.84-11.16,12.66l-2.52-3c.12.42.24.9.36,1.32l-4.86,2a18.35,18.35,0,0,0-.6-2.28c-.9.18-1.86.3-2.88.42Zm-7.08-20.4a59.31,59.31,0,0,1-3.12,16l-4.86-1.86a48.91,48.91,0,0,0,3-14.94ZM201.58,50.4c-3.48,5-3.6,5.16-3.72,5.28a48.28,48.28,0,0,1-14.58-5.88,56.35,56.35,0,0,1-15.06,5.94l-3.84-4.68a50.2,50.2,0,0,0,14.22-4.8,36.93,36.93,0,0,1-4.56-5.1c-1.2,1-2.52,1.92-3.9,2.82l-2.4-1.92c.18,1.26.24,2.4.3,3.42l-5,1.14a56.26,56.26,0,0,0-1.8-11.52l4.92-1.2c.48,1.8.9,3.66,1.2,5.46A29.36,29.36,0,0,0,177.7,28.2l6.48.54q-.81,1.62-1.8,3.24h10.08l4.68,1.32a28.68,28.68,0,0,1-8.7,12.84A41.76,41.76,0,0,0,201.58,50.4Zm-18-7.5a22.54,22.54,0,0,0,5.16-6.06H178.66l-.24.18A23,23,0,0,0,183.58,42.9Z"></path><path class="cls-2" d="M262.18,50.4l-4.92,5.34a150.12,150.12,0,0,0-19-11.4C232.66,49,224.86,53,213.7,55.74l-4.14-6c9.9-2.16,16.92-5.16,22-8.7-3.3-1.56-6.72-3.12-10.26-4.62-.36.72-.72,1.44-1.08,2.1l-6.84-2.34c2.34-4.14,5.34-10,8.34-16.2H208.36V13.74h16.26c2.28-4.92,4.38-9.66,6-13.68L238,1c-1.62,3.84-3.54,8.22-5.64,12.78H264V20h-12.3c-1.44,6.78-3.78,13.5-8.7,19.5A178.29,178.29,0,0,1,262.18,50.4ZM236.74,36.48c4.62-5.1,6.54-10.86,7.56-16.5H229.42c-1.8,3.84-3.66,7.56-5.4,11C228.52,32.82,232.72,34.62,236.74,36.48Z"></path></g></g></svg>