<svg viewbox="0 0 303.4 124" xmlns="http://www.w3.org/2000/svg"><defs><style>.cls-1{fill:#8d87ab;}.cls-2{fill:#323232;}.cls-3{fill:#fff;}</style></defs><title>txt_hatori</title><g data-name="レイヤー 2" id="レイヤー_2"><g id="レイアウト"><rect class="cls-1" height="20" width="50" y="80.59"></rect><path class="cls-2" d="M2.68,116.67l3.41-3.43h1.2L3.54,117l3.86,4.27H6.18L2.9,117.57l-.23.23v3.44H1.79v-8h.89Z"></path><path class="cls-2" d="M12.2,116.26h.86v5H12.2v-.7a2.1,2.1,0,0,1-1.7.84,2.63,2.63,0,0,1,0-5.24,2.06,2.06,0,0,1,1.7.83ZM9,118.74a1.66,1.66,0,0,0,1.63,1.87,1.86,1.86,0,0,0,0-3.71A1.65,1.65,0,0,0,9,118.74Z"></path><path class="cls-2" d="M16.31,120.45h3.45v.79H14.58l3.6-4.19h-2.9v-.79h4.63Z"></path><path class="cls-2" d="M22.28,119.16a1.69,1.69,0,0,0,.24,1.07,1.19,1.19,0,0,0,1.75,0,1.69,1.69,0,0,0,.24-1.07v-2.9h.86v3a2,2,0,0,1-.46,1.5,2.17,2.17,0,0,1-3,0,2,2,0,0,1-.46-1.5v-3h.86Z"></path><path class="cls-2" d="M29.18,120.77l-2.29-4.51h1l1.76,3.56,1.62-3.56h1L28.56,124h-1Z"></path><path class="cls-2" d="M34.6,119.16a1.69,1.69,0,0,0,.24,1.07,1.19,1.19,0,0,0,1.75,0,1.69,1.69,0,0,0,.24-1.07v-2.9h.86v3a2,2,0,0,1-.46,1.5,2.17,2.17,0,0,1-3,0,2,2,0,0,1-.46-1.5v-3h.86Z"></path><path class="cls-2" d="M40.79,112.49v5.61l1.82-1.85h1.13l-2.13,2.13,2.52,2.84H43L41,119l-.22.22v2.05h-.86v-8.74Z"></path><path class="cls-2" d="M46,113.77a.61.61,0,1,1-.61.61A.61.61,0,0,1,46,113.77Zm.43,2.49v5h-.86v-5Z"></path><path class="cls-2" d="M51.86,117.24A4.16,4.16,0,1,1,56,121.38,4.08,4.08,0,0,1,51.86,117.24Zm.91,0a3.25,3.25,0,1,0,3.25-3.3A3.26,3.26,0,0,0,52.77,117.24Z"></path><path class="cls-2" d="M63.07,112.49v5.61l1.82-1.85H66l-2.14,2.13,2.52,2.84H65.28l-2-2.27-.22.22v2.05h-.86v-8.74Z"></path><path class="cls-2" d="M68.3,113.77a.61.61,0,1,1-.61.61A.61.61,0,0,1,68.3,113.77Zm.43,2.49v5h-.86v-5Z"></path><path class="cls-2" d="M71.85,117.05v4.19H71v-4.19h-.53v-.79H71v-1.8h.86v1.8h.86v.79Z"></path><path class="cls-2" d="M76.19,117.41a.76.76,0,0,0-.7-.5.55.55,0,0,0-.6.56c0,.36.24.47.8.71a3,3,0,0,1,1.25.77,1.18,1.18,0,0,1,.26.8,1.58,1.58,0,0,1-1.71,1.63,1.78,1.78,0,0,1-1.74-1.27l.74-.31a1.13,1.13,0,0,0,1,.82.77.77,0,0,0,.82-.79c0-.47-.34-.62-.8-.83a3.23,3.23,0,0,1-1.21-.73,1.08,1.08,0,0,1-.23-.73,1.34,1.34,0,0,1,1.45-1.39,1.44,1.44,0,0,1,1.37.9Z"></path><path class="cls-2" d="M79.82,119.16a1.69,1.69,0,0,0,.24,1.07,1.19,1.19,0,0,0,1.75,0,1.69,1.69,0,0,0,.24-1.07v-2.9h.86v3a2,2,0,0,1-.46,1.5,2.17,2.17,0,0,1-3,0,2,2,0,0,1-.46-1.5v-3h.86Z"></path><path class="cls-2" d="M92.36,116.26h.86v5h-.86v-.7a2.1,2.1,0,0,1-1.7.84,2.63,2.63,0,0,1,0-5.24,2.06,2.06,0,0,1,1.7.83Zm-3.24,2.48a1.66,1.66,0,0,0,1.63,1.87,1.86,1.86,0,0,0,0-3.71A1.65,1.65,0,0,0,89.12,118.74Z"></path><path class="cls-2" d="M97.51,117.41a.76.76,0,0,0-.7-.5.55.55,0,0,0-.6.56c0,.36.24.47.8.71a3,3,0,0,1,1.25.77,1.18,1.18,0,0,1,.26.8,1.58,1.58,0,0,1-1.71,1.63,1.78,1.78,0,0,1-1.74-1.27l.74-.31a1.13,1.13,0,0,0,1,.82.77.77,0,0,0,.82-.79c0-.47-.34-.62-.8-.83a3.23,3.23,0,0,1-1.21-.73,1.08,1.08,0,0,1-.23-.73,1.34,1.34,0,0,1,1.45-1.39,1.44,1.44,0,0,1,1.37.9Z"></path><path class="cls-2" d="M104.78,116.49h4.1v-3.25h.89v8h-.89v-3.91h-4.1v3.91h-.89v-8h.89Z"></path><path class="cls-2" d="M116,116.26h.86v5H116v-.7a2.1,2.1,0,0,1-1.7.84,2.63,2.63,0,0,1,0-5.24,2.06,2.06,0,0,1,1.7.83Zm-3.24,2.48a1.66,1.66,0,0,0,1.63,1.87,1.86,1.86,0,0,0,0-3.71A1.65,1.65,0,0,0,112.8,118.74Z"></path><path class="cls-2" d="M120,117.05v4.19h-.86v-4.19h-.53v-.79h.53v-1.8H120v1.8h.86v.79Z"></path><path class="cls-2" d="M122,118.77a2.64,2.64,0,1,1,2.64,2.61A2.56,2.56,0,0,1,122,118.77Zm.89,0a1.75,1.75,0,1,0,1.75-1.86A1.72,1.72,0,0,0,122.88,118.77Z"></path><path class="cls-2" d="M129.19,116.26h.86v.54a1.38,1.38,0,0,1,1.13-.66,1.83,1.83,0,0,1,.77.2l-.41.78a.88.88,0,0,0-.5-.17.84.84,0,0,0-.7.31,2.15,2.15,0,0,0-.29,1.34v2.63h-.86Z"></path><path class="cls-2" d="M133.77,113.77a.61.61,0,1,1-.61.61A.61.61,0,0,1,133.77,113.77Zm.43,2.49v5h-.86v-5Z"></path><path class="cls-2" d="M143.62,114.82a1.94,1.94,0,0,0-.47-.6,1.44,1.44,0,0,0-.9-.28,1.23,1.23,0,0,0-1.34,1.24.84.84,0,0,0,.3.7,2.61,2.61,0,0,0,.84.5l.77.34a3.89,3.89,0,0,1,1.24.76,1.92,1.92,0,0,1,.58,1.45,2.57,2.57,0,0,1-4.27,1.81,2.91,2.91,0,0,1-.74-1.42l.86-.24a1.89,1.89,0,0,0,.48,1,1.64,1.64,0,0,0,2.76-1.14,1.19,1.19,0,0,0-.4-.94,3.48,3.48,0,0,0-1-.55l-.72-.34a3.53,3.53,0,0,1-1.07-.66,1.66,1.66,0,0,1-.55-1.31,2.07,2.07,0,0,1,2.24-2.06,2.17,2.17,0,0,1,1.28.36,2.42,2.42,0,0,1,.78.89Z"></path><path class="cls-2" d="M146.34,118.77a2.64,2.64,0,1,1,2.64,2.61A2.56,2.56,0,0,1,146.34,118.77Zm.89,0a1.75,1.75,0,1,0,1.75-1.86A1.72,1.72,0,0,0,147.23,118.77Z"></path><path class="cls-2" d="M153.54,116.26h.86v.53a1.45,1.45,0,0,1,1.24-.65,1.49,1.49,0,0,1,1.36.8,1.66,1.66,0,0,1,1.5-.8c1.48,0,1.62,1.24,1.62,1.94v3.15h-.86v-3c0-.56-.07-1.31-.89-1.31-1,0-1.1,1-1.1,1.56v2.77h-.86v-3c0-.35,0-1.38-.9-1.38s-1.09,1-1.09,1.62v2.71h-.86Z"></path><path class="cls-2" d="M166.17,116.26H167v5h-.86v-.7a2.1,2.1,0,0,1-1.7.84,2.63,2.63,0,0,1,0-5.24,2.06,2.06,0,0,1,1.7.83Zm-3.24,2.48a1.66,1.66,0,0,0,1.63,1.87,1.86,1.86,0,0,0,0-3.71A1.65,1.65,0,0,0,162.93,118.74Z"></path><path class="cls-3" d="M20.35,96.11a6.52,6.52,0,0,1-3,.7,6.16,6.16,0,0,1-4.51-1.67,5.91,5.91,0,0,1-2-4.59,6.21,6.21,0,0,1,2-4.7,6.41,6.41,0,0,1,4.53-1.58,6.32,6.32,0,0,1,3,.74v2.74a4,4,0,0,0-3-1.35,4.15,4.15,0,0,0,.09,8.3,3.77,3.77,0,0,0,2.88-1.31Z"></path><path class="cls-3" d="M28.07,84.53l3.29,8.07,3.29-8.07h2.62l-5.21,12H30.62l-5.17-12Z"></path><path class="cls-2" d="M61.52,82.39l.74.08A15.83,15.83,0,0,0,65,81l.86,1.28v-.76h7.7V92.79h2c0-.64.1-1.34.16-2.1H74.1V89h1.64c0-.66.06-1.32.1-2H74.1v-1.7h1.8c0-.66,0-1.32.06-2H74.1v-1.7h4c-.08,3.44-.34,8.2-.56,11.16H79v1.8H60.44v-1.8h1.42Zm1,17.12-2-1.2a22,22,0,0,0,5.6-3.24l2,.88A25,25,0,0,1,62.48,99.52Zm1.3-8.82.06,2.1h2V82.45c-.58.34-1.4.76-2.26,1.16l0,1.68h1.66V87h-1.6l.06,2h1.54v1.7Zm8.14,2.1V83.11H67.36v9.68Zm-4-7.54V84h3.5v1.24Zm.22,6.52V86.23h3.08v5.54Zm2-4.48h-1v3.44h1Zm6.5,12.2A61,61,0,0,0,71.06,96l2-.94c2.26,1.2,4.16,2.38,5.88,3.52Z"></path><path class="cls-2" d="M82.62,86.39a15,15,0,0,1,3.66,2.4L84.8,90.35a12.67,12.67,0,0,0-3.38-2.48Zm2.24,5.66,1.62,1.22a48.13,48.13,0,0,1-2.88,6.16l-1.9-1.26A37.73,37.73,0,0,0,84.86,92.05ZM83.34,81.13a14.68,14.68,0,0,1,3.4,2.2l-1.46,1.56a13.39,13.39,0,0,0-3.16-2.26Zm8.78,13.44V93.35H87.56V91.57h4.56V90.39H87.8V88.61h4.32V87.37H86.66V85.69h5.46V84.47H87.86V82.71h4.26V81h2.24v1.76H98.7v3H100v1.68H98.7v3H94.36v1.18H98.9v1.78H94.36v1.22H100v1.84H94.36v3.1H92.12v-3.1H86.58V94.58Zm4.44-8.88V84.47h-2.2v1.22Zm-2.2,1.68v1.24h2.2V87.37Z"></path><path class="cls-2" d="M117.92,92.63l-1.38,1.74c-.44-.76-1.1-1.8-1.8-2.82v8h-2.2v-7.2a22.7,22.7,0,0,1-2.48,4l-1.54-1.7a18.69,18.69,0,0,0,3.86-6.08h-3.52v-2h3.68V84.33a28.71,28.71,0,0,1-2.86.48l-.8-1.82a21.62,21.62,0,0,0,7.62-2.06l1.22,1.66a22.14,22.14,0,0,1-3,1.16v2.86h3.2v2h-3.2v.6C115.88,90.37,117.18,91.75,117.92,92.63Zm2.72,5V99h-2.18V82.67h8.32V98.92h-2.24V97.68Zm3.9-2.06V84.73h-3.9V95.62Z"></path><path class="cls-2" d="M137.9,93.92V92.17h-7.42V90.31h4.34a17.81,17.81,0,0,0-1-2.3h-4V86.15h8.06V84.63h-6.12V82.79h6.12V80.93h2.28v1.86h6.28v1.84h-6.28v1.52h8.22V88h-3.76c-.34.66-.8,1.48-1.32,2.3h4.46v1.86h-7.6v1.74h6.72v1.86h-6.72V99.5H137.9V95.78h-6.54V93.92Zm3.2-3.6c.42-.78.8-1.6,1.1-2.3h-6.1a15.24,15.24,0,0,1,.92,2.3Z"></path><path class="cls-2" d="M15.4,4.32V0h6.48V4.32H33.7V0h6.6V4.32H55.84v5.4H40.3v3.06H33.7V9.72H21.88V12.9H15.4V9.72H.16V4.32Zm9,36.12V36.66H8.56V14.16H47.5v22.5H31.12v3.78H55.84V46H31.12v9.78H24.4V46H.16V40.44ZM15,23.28H40.84v-4H15Zm0,8.34H40.84V27.48H15Z"></path><path class="cls-2" d="M72.82,4.38H88.54V.06H95.2V4.38h23.58V9.3h-46V19.92c0,11.88-1.14,24.36-5,35.46L62.2,52.14c3.6-9.9,4.56-20.94,4.56-32.16V4.38h6.06ZM91.9,41.46v-3.3H76.3V33.84H91.9V30.9c-4.62.3-9.12.42-12.9.36-.42-1.26-.9-2.46-1.44-4,9.72.36,24.42-.78,31.86-2.46l2.1,3.84a127.93,127.93,0,0,1-12.9,1.74v3.48H114v4.32H98.62v3.3h20v4.62h-20v4.14c0,3.06-1,4.86-3.72,5.28a56.46,56.46,0,0,1-8.7.18l-1-5.28c1.92.12,4.68.06,5.52.06s1.2-.48,1.2-1.26V46.08H72V41.46ZM94.72,21.6,92.32,25c-1.26-1.08-3.06-2.58-5-4v4.26H82v-4.2a32.63,32.63,0,0,1-6.3,5.1L73,22.5a26,26,0,0,0,8.28-5.64H74.62V13.08H82v-2.7h5.34v2.7h7.38v3.78H87.34v.3C90,18.66,93,20.46,94.72,21.6Zm2.82,4.08-2.64-3.6a22.44,22.44,0,0,0,8-5.22H96.58V13.08H104v-2.7h5.34v2.7H118v3.78h-7.74a25.49,25.49,0,0,0,8.76,5.4L116.2,26.1a31.22,31.22,0,0,1-6.9-5.22v3.9H104V20.7A26.1,26.1,0,0,1,97.54,25.68Z"></path><path class="cls-2" d="M160.12,3.66a119.54,119.54,0,0,0-2.52,25.2c0,8.52.9,17,2.94,23.16l-6.78,1.68c-2.1-7.08-2.94-15.48-2.94-24.48a146.26,146.26,0,0,1,2.4-26.52Zm22,10c-.12-4.2-.18-8.1-.18-11.1H189c-.12,2.52-.12,5.76-.12,8.82v2.28h9V20H189c.18,6.36.48,12.66.66,16.8A48,48,0,0,1,199.36,43l-4,5.22a44,44,0,0,0-5.82-4.56c-.78,6.48-4.2,9.66-12.18,9.66s-12.72-4.62-12.72-9.84,5-9.36,12.48-9.36a29.15,29.15,0,0,1,5.7.54c-.12-4-.36-9.3-.48-14.64H165.16v-6.3ZM177,39.6c-4,0-6.24,1.56-6.24,3.9,0,2.1,2.28,4,6.24,4,4.86,0,5.88-1.92,5.94-7A19.78,19.78,0,0,0,177,39.6Z"></path><path class="cls-2" d="M250.24,21.6c-16,4.68-31.86,10.56-31.86,18.36,0,4.5,4.68,7,17.34,7a107.29,107.29,0,0,0,17.1-1.38l.66,6.9a132.8,132.8,0,0,1-17.82,1.08c-16.14,0-24.42-4.26-24.42-13.26,0-6.54,5.34-11.64,13.38-16-3.24-5.58-3.72-12.18-3.72-22.5H228c0,9.42.24,15.3,2.52,19.62,5.22-2.28,11-4.38,17.16-6.42Z"></path><path class="cls-2" d="M265,20.94a65.52,65.52,0,0,1,2.34-17.4L274.24,5a49.31,49.31,0,0,0-2.76,15.42,26.32,26.32,0,0,0,.72,6.54c1-1.8,3.18-5.58,4.44-7.62L281,23.1a82.6,82.6,0,0,0-7.14,13.5l-5.88.9C265.9,33.06,265,27.06,265,21ZM301.36,2.7a108.37,108.37,0,0,1,2,21.36c0,13.86-4.08,24.42-22.68,30.24l-3.9-6.48c16.56-4.56,19.44-11.7,19.44-23.64A81.52,81.52,0,0,0,294,3.9Z"></path></g></g></svg>