<svg viewbox="0 0 264.94 121.77" xmlns="http://www.w3.org/2000/svg"><defs><style>.cls-1{fill:#9696a0;}.cls-2{fill:#323232;}.cls-3{fill:#fff;}</style></defs><title>アセット 4</title><g data-name="レイヤー 2" id="レイヤー_2"><g id="レイアウト"><rect class="cls-1" height="20" width="50" y="80.77"></rect><path class="cls-2" d="M1.51,121.42,2.84,113l3.07,6.76L9,113l1.25,8.46H9.38l-.76-5.57-2.72,5.9-2.68-5.9-.8,5.57Z"></path><path class="cls-2" d="M16.34,116.44h.87v5h-.87v-.7a2.11,2.11,0,0,1-1.7.84,2.63,2.63,0,0,1,0-5.24,2.06,2.06,0,0,1,1.7.83Zm-3.24,2.48a1.66,1.66,0,0,0,1.63,1.87,1.86,1.86,0,0,0,0-3.7A1.65,1.65,0,0,0,13.1,118.92Z"></path><path class="cls-2" d="M20.3,112.67v5.62l1.83-1.85h1.12l-2.13,2.13,2.52,2.85H22.51l-2-2.27-.22.22v2h-.86v-8.75Z"></path><path class="cls-2" d="M24.79,119a2.64,2.64,0,1,1,2.64,2.61A2.56,2.56,0,0,1,24.79,119Zm.89,0a1.75,1.75,0,1,0,1.75-1.86A1.72,1.72,0,0,0,25.68,119Z"></path><path class="cls-2" d="M32.88,117.23v4.19H32v-4.19h-.53v-.79H32v-1.8h.86v1.8h.86v.79Z"></path><path class="cls-2" d="M34.85,119a2.64,2.64,0,1,1,2.64,2.61A2.56,2.56,0,0,1,34.85,119Zm.88,0a1.76,1.76,0,1,0,1.76-1.86A1.73,1.73,0,0,0,35.73,119Z"></path><path class="cls-2" d="M49.3,114.26H46.55v2.36h2.66v.84H46.55v4h-.89v-8H49.3Z"></path><path class="cls-2" d="M52.11,119.34a1.7,1.7,0,0,0,.24,1.07,1.07,1.07,0,0,0,.88.38,1,1,0,0,0,.87-.38,1.7,1.7,0,0,0,.24-1.07v-2.9h.87v3a2,2,0,0,1-.46,1.5,2.17,2.17,0,0,1-3,0,2,2,0,0,1-.46-1.5v-3h.86Z"></path><path class="cls-2" d="M57.44,116.44h.87V117a1.37,1.37,0,0,1,1.12-.66,1.9,1.9,0,0,1,.77.2l-.41.78a.87.87,0,0,0-.5-.16.85.85,0,0,0-.7.31,2.19,2.19,0,0,0-.28,1.34v2.63h-.87Z"></path><path class="cls-2" d="M62.46,119.34a1.7,1.7,0,0,0,.24,1.07,1,1,0,0,0,.87.38,1.06,1.06,0,0,0,.88-.38,1.7,1.7,0,0,0,.24-1.07v-2.9h.86v3a2,2,0,0,1-.45,1.5,2.09,2.09,0,0,1-1.53.62,2.06,2.06,0,0,1-1.52-.62,2,2,0,0,1-.46-1.5v-3h.87Z"></path><path class="cls-2" d="M68.65,112.67v5.62l1.82-1.85H71.6l-2.14,2.13L72,121.42H70.86l-2-2.27-.21.22v2h-.86v-8.75Z"></path><path class="cls-2" d="M77.26,116.44h.87v5h-.87v-.7a2.08,2.08,0,0,1-1.7.84,2.63,2.63,0,0,1,0-5.24,2,2,0,0,1,1.7.83ZM74,118.92a1.66,1.66,0,0,0,1.63,1.87,1.86,1.86,0,0,0,0-3.7A1.65,1.65,0,0,0,74,118.92Z"></path><path class="cls-2" d="M80.6,116.44l1.48,3.38,1.56-3.76,1.54,3.76,1.49-3.38h1l-2.47,5.33-1.54-3.72-1.53,3.72-2.45-5.33Z"></path><path class="cls-2" d="M93,116.44h.86v5H93v-.7a2.11,2.11,0,0,1-1.7.84,2.63,2.63,0,0,1,0-5.24,2.06,2.06,0,0,1,1.7.83Zm-3.24,2.48a1.66,1.66,0,0,0,1.63,1.87,1.86,1.86,0,0,0,0-3.7A1.65,1.65,0,0,0,89.72,118.92Z"></path><path class="cls-2" d="M103.27,116.44h.86v5h-.86v-.7a2.12,2.12,0,0,1-1.71.84,2.63,2.63,0,0,1,0-5.24,2.08,2.08,0,0,1,1.71.83ZM100,118.92a1.66,1.66,0,0,0,1.63,1.87,1.86,1.86,0,0,0,0-3.7A1.65,1.65,0,0,0,100,118.92Z"></path><path class="cls-2" d="M108.42,117.59a.78.78,0,0,0-.7-.5.55.55,0,0,0-.6.56c0,.36.24.47.8.71a3,3,0,0,1,1.25.77,1.13,1.13,0,0,1,.26.8,1.58,1.58,0,0,1-1.71,1.63,1.78,1.78,0,0,1-1.74-1.27l.74-.31a1.14,1.14,0,0,0,1,.81.78.78,0,0,0,.82-.79c0-.47-.34-.62-.81-.83a3.15,3.15,0,0,1-1.21-.73,1.09,1.09,0,0,1-.23-.73,1.35,1.35,0,0,1,1.46-1.39,1.43,1.43,0,0,1,1.36.9Z"></path><path class="cls-2" d="M115.69,116.67h4.1v-3.25h.89v8h-.89v-3.91h-4.1v3.91h-.89v-8h.89Z"></path><path class="cls-2" d="M126.94,116.44h.86v5h-.86v-.7a2.11,2.11,0,0,1-1.7.84,2.63,2.63,0,0,1,0-5.24,2.06,2.06,0,0,1,1.7.83Zm-3.24,2.48a1.66,1.66,0,0,0,1.63,1.87,1.86,1.86,0,0,0,0-3.7A1.65,1.65,0,0,0,123.7,118.92Z"></path><path class="cls-2" d="M130.93,117.23v4.19h-.87v-4.19h-.53v-.79h.53v-1.8h.87v1.8h.86v.79Z"></path><path class="cls-2" d="M135.26,117.59a.76.76,0,0,0-.7-.5.55.55,0,0,0-.6.56c0,.36.24.47.81.71a3,3,0,0,1,1.24.77,1.14,1.14,0,0,1,.27.8,1.59,1.59,0,0,1-1.72,1.63,1.78,1.78,0,0,1-1.74-1.27l.75-.31a1.11,1.11,0,0,0,1,.81.77.77,0,0,0,.82-.79c0-.47-.34-.62-.81-.83a3.24,3.24,0,0,1-1.21-.73,1.08,1.08,0,0,1-.22-.73,1.34,1.34,0,0,1,1.45-1.39,1.43,1.43,0,0,1,1.36.9Z"></path><path class="cls-2" d="M138.89,119.34a1.7,1.7,0,0,0,.24,1.07,1.06,1.06,0,0,0,.88.38,1,1,0,0,0,.87-.38,1.7,1.7,0,0,0,.24-1.07v-2.9H142v3a2,2,0,0,1-.46,1.5,2.17,2.17,0,0,1-3,0,2,2,0,0,1-.46-1.5v-3h.86Z"></path><path class="cls-2" d="M144.22,112.67h.86V117a1.75,1.75,0,0,1,1.43-.7,1.7,1.7,0,0,1,1.43.68,2.26,2.26,0,0,1,.29,1.34v3.08h-.87v-3.06a1.47,1.47,0,0,0-.22-.91,1,1,0,0,0-.82-.36,1.07,1.07,0,0,0-.87.38,2.1,2.1,0,0,0-.37,1.34v2.61h-.86Z"></path><path class="cls-2" d="M154.28,116.44h.86v5h-.86v-.7a2.12,2.12,0,0,1-1.71.84,2.63,2.63,0,0,1,0-5.24,2.08,2.08,0,0,1,1.71.83ZM151,118.92a1.66,1.66,0,0,0,1.63,1.87,1.86,1.86,0,0,0,0-3.7A1.65,1.65,0,0,0,151,118.92Z"></path><path class="cls-2" d="M157.37,116.44h.87V117a1.37,1.37,0,0,1,1.12-.66,1.9,1.9,0,0,1,.77.2l-.41.78a.87.87,0,0,0-.5-.16.85.85,0,0,0-.7.31,2.19,2.19,0,0,0-.28,1.34v2.63h-.87Z"></path><path class="cls-2" d="M162.39,119.34a1.7,1.7,0,0,0,.24,1.07,1,1,0,0,0,.87.38,1.06,1.06,0,0,0,.88-.38,1.7,1.7,0,0,0,.24-1.07v-2.9h.86v3a2,2,0,0,1-.45,1.5,2.08,2.08,0,0,1-1.53.62,2.06,2.06,0,0,1-1.52-.62,2,2,0,0,1-.46-1.5v-3h.87Z"></path><path class="cls-2" d="M174.9,115a2,2,0,0,0-.47-.6,1.41,1.41,0,0,0-.89-.27,1.23,1.23,0,0,0-1.35,1.23.88.88,0,0,0,.3.7,2.57,2.57,0,0,0,.84.5l.77.34a3.79,3.79,0,0,1,1.23.75,1.93,1.93,0,0,1,.58,1.45,2.57,2.57,0,0,1-4.27,1.81,2.77,2.77,0,0,1-.74-1.41l.86-.24a1.87,1.87,0,0,0,.48,1,1.64,1.64,0,0,0,2.76-1.14,1.21,1.21,0,0,0-.4-.94,3.47,3.47,0,0,0-1-.55l-.72-.33a3.85,3.85,0,0,1-1.06-.66,1.67,1.67,0,0,1-.56-1.31,2.07,2.07,0,0,1,2.25-2.06,2.13,2.13,0,0,1,1.28.36,2.45,2.45,0,0,1,.78.88Z"></path><path class="cls-2" d="M177.62,119a2.64,2.64,0,1,1,2.63,2.61A2.55,2.55,0,0,1,177.62,119Zm.88,0a1.76,1.76,0,1,0,1.75-1.86A1.72,1.72,0,0,0,178.5,119Z"></path><path class="cls-2" d="M184.82,116.44h.86V117a1.45,1.45,0,0,1,1.23-.65,1.52,1.52,0,0,1,1.36.8,1.67,1.67,0,0,1,1.5-.8c1.47,0,1.62,1.24,1.62,1.94v3.16h-.87v-3c0-.57-.07-1.31-.88-1.31-1,0-1.11,1-1.11,1.56v2.77h-.86v-3c0-.35,0-1.38-.9-1.38s-1.09,1-1.09,1.62v2.71h-.86Z"></path><path class="cls-2" d="M197.45,116.44h.86v5h-.86v-.7a2.11,2.11,0,0,1-1.7.84,2.63,2.63,0,0,1,0-5.24,2.06,2.06,0,0,1,1.7.83Zm-3.24,2.48a1.66,1.66,0,0,0,1.63,1.87,1.86,1.86,0,0,0,0-3.7A1.65,1.65,0,0,0,194.21,118.92Z"></path><path class="cls-3" d="M20.35,96.29a6.5,6.5,0,0,1-3.05.7,6.19,6.19,0,0,1-4.51-1.67,5.94,5.94,0,0,1-2-4.59,6.21,6.21,0,0,1,2-4.7,6.39,6.39,0,0,1,4.53-1.59,6.38,6.38,0,0,1,3,.74v2.74a4,4,0,0,0-3-1.35,4.15,4.15,0,0,0,.09,8.3,3.78,3.78,0,0,0,2.89-1.32Z"></path><path class="cls-3" d="M28.07,84.71l3.29,8.07,3.29-8.07h2.62l-5.21,12H30.62l-5.18-12Z"></path><path class="cls-2" d="M65,99v.68H62.82v-9H68.5V87.13H60.44v-2H68.5v-4h2.26v4H79v2H70.76v3.58H76.6v9H74.36V99Zm9.38-2V92.75H65V97Z"></path><path class="cls-2" d="M85.92,81.55V89c0,3.87-.6,7.63-2.66,10.69l-2-1.08c2-2.84,2.48-6.07,2.48-9.59V81.55Zm5.92,1.12V97.82H89.66V82.67Zm6.3-1.12V99.68H95.9V81.55Z"></path><path class="cls-2" d="M111.16,85.25a17.77,17.77,0,0,1-1.06,5l-1.6-.84a13.91,13.91,0,0,0,1-4.58Zm8.88-.14v-1H115.3v-1.7H120V81.13h2.18v1.28h5.1v1.7h-5.1v1h4v8.31h-10V87.09l-1.58.6a10.66,10.66,0,0,0-1-2.9V99.7h-2.1V81.13h2.1v3.54l1.34-.6a11.75,11.75,0,0,1,1.24,3V85.11Zm.42,11.61a13.28,13.28,0,0,1-3.84,3l-2-1a12.63,12.63,0,0,0,3.8-2.72H114.9V94.23h12.5V96h-3.78a33.21,33.21,0,0,1,3.72,2.84l-2,.86a27.76,27.76,0,0,0-3.5-2.89L123.5,96h-5Zm-2.18-9.21h5.8v-1h-5.8Zm0,2.24h5.8v-1h-5.8Zm0,2.24h5.8V91h-5.8Z"></path><path class="cls-2" d="M15.4,4.5V.18h6.48V4.5H33.7V.18h6.6V4.5H55.84V9.9H40.3V13H33.7V9.9H21.88v3.18H15.4V9.9H.16V4.5Zm9,36.12V36.84H8.56V14.34H47.5v22.5H31.12v3.78H55.84v5.52H31.12v9.78H24.4V46.14H.16V40.62ZM15,23.46H40.84v-4H15Zm0,8.34H40.84V27.66H15Z"></path><path class="cls-2" d="M72.82,4.56H88.54V.24H95.2V4.56h23.58V9.48h-46V20.1c0,11.88-1.14,24.36-5,35.46L62.2,52.32c3.6-9.9,4.56-20.94,4.56-32.16V4.56h6.06ZM91.9,41.64v-3.3H76.3V34H91.9V31.08c-4.62.3-9.12.42-12.9.36-.42-1.26-.9-2.46-1.44-4,9.72.36,24.42-.78,31.86-2.46l2.1,3.84a128,128,0,0,1-12.9,1.74V34H114v4.32H98.62v3.3h20v4.62h-20V50.4c0,3.06-1,4.86-3.72,5.28a56.46,56.46,0,0,1-8.7.18l-1-5.28c1.92.12,4.68.06,5.52.06s1.2-.48,1.2-1.26V46.26H72V41.64Zm2.82-19.86-2.4,3.42c-1.26-1.08-3.06-2.58-5-4v4.26H82v-4.2a32.65,32.65,0,0,1-6.3,5.1L73,22.68A26,26,0,0,0,81.28,17H74.62V13.26H82v-2.7h5.34v2.7h7.38V17H87.34v.3C90,18.84,93,20.64,94.72,21.78Zm2.82,4.08-2.64-3.6a22.44,22.44,0,0,0,8-5.22H96.58V13.26H104v-2.7h5.34v2.7H118V17h-7.74a25.49,25.49,0,0,0,8.76,5.4l-2.82,3.84a31.21,31.21,0,0,1-6.9-5.22V25H104V20.88A26.1,26.1,0,0,1,97.54,25.86Z"></path><path class="cls-2" d="M149,16.62a43.08,43.08,0,0,1,9.84,7.2l-4.56,4.56a36.14,36.14,0,0,0-9-7.38Zm5.4,17.1,4.8,3.3a127.73,127.73,0,0,1-7.5,18.24l-5.58-3.36A117.75,117.75,0,0,0,154.42,33.72ZM150.94.78a45,45,0,0,1,9.6,6.42l-4.44,4.74a38.85,38.85,0,0,0-8.82-6.66ZM172.3,36.6h3.06c-.42,11.82-1,17.46-2.88,18.6a5.7,5.7,0,0,1-3,.72c-1.26.06-4-.06-5.58-.12l-.72-5.28c1.32.06,3.48.12,4.5.06a1.59,1.59,0,0,0,.84-.18c.6-.42,1-3.18,1.2-9.24H165.4l-.24,1.26L160,42.24a137.87,137.87,0,0,0,2.16-13.74h8V23.82H164.5c-.78.48-1.62.9-2.46,1.32L158.32,21a26.08,26.08,0,0,0,8.1-5.22,41.41,41.41,0,0,0-5.58-4.56l3.3-3.3a50.9,50.9,0,0,1,5.52,4,21.91,21.91,0,0,0,2.52-4.86h-10.8V2H175l4.08.9a31.57,31.57,0,0,1-8.64,16.32h4.86V31.8A8.44,8.44,0,0,0,178.36,25V19.2h11.4c-4.5-4.14-8-9.9-10.14-17.34L185.08,0a36.62,36.62,0,0,0,2,5.64,47.15,47.15,0,0,0,5.7-5l3.6,3.54a57.55,57.55,0,0,1-7.14,5.46c.66,1,1.32,1.86,2,2.76a57.74,57.74,0,0,0,6.12-5L201,11a73.41,73.41,0,0,1-6.42,4.62,27.17,27.17,0,0,0,7.32,4.26c-3.66,4.68-3.78,4.8-3.84,4.92a33.09,33.09,0,0,1-5.1-2.94V26c0,1.74.06,2,.84,2h1.68c.66,0,.72-.12.78-2.22l4.32.72c-.42,5.76-1.32,6.54-4.74,6.6h-2.76c-4.5-.18-5.4-1.56-5.4-7.08V23.88h-4.14V25a13.39,13.39,0,0,1-4,10.08h13l4.14.54a25.83,25.83,0,0,1-5.46,12,31,31,0,0,0,9.78,3.42l-3.36,4.86a36.18,36.18,0,0,1-10.44-4.5,30.93,30.93,0,0,1-8.64,4.44l-3.78-4.2a26.64,26.64,0,0,0,8.28-3.6,27.25,27.25,0,0,1-5-7.14l3.48-1.14h-4.44V35.1h1.38l-3.24-2.28v.24h-8.64c-.12,1.2-.3,2.4-.48,3.54h6.12Zm14.76,7.92a18.53,18.53,0,0,0,2.76-4.74H183.4A18.9,18.9,0,0,0,187.06,44.52Z"></path><path class="cls-2" d="M226.48,54.3v1.62h-6.42V36.84a57.59,57.59,0,0,1-7.44,5l-5-4.32a48.2,48.2,0,0,0,13.68-10.2H208.72V22.44H225.1a32,32,0,0,0,2.1-3.66H215.62V14h13.74a33.71,33.71,0,0,0,1.14-3.48H212.38V5.64h19.38c.36-1.8.72-3.6,1-5.46l6.42.18c-.3,1.8-.6,3.54-1,5.28h21.9V10.5H237c-.36,1.2-.72,2.34-1.08,3.48h20.88v4.8H244.66a27.54,27.54,0,0,0,2.1,3.66h16.86v4.92H250.78a38.66,38.66,0,0,0,14.16,9.06L260.8,41.7a46.68,46.68,0,0,1-8.64-5.1V55.92h-6.6V54.3Zm19.44-23.46a39,39,0,0,1-2.76-3.48h-14c-.9,1.2-1.8,2.34-2.76,3.48Zm-.36,9.3v-4H226.48v4Zm0,8.88V44.76H226.48V49ZM240,22.44c-.6-1.2-1.2-2.4-1.68-3.66H234c-.54,1.26-1.14,2.46-1.8,3.66Z"></path></g></g></svg>