<svg viewbox="0 0 266.62 121.38" xmlns="http://www.w3.org/2000/svg"><defs><style>.cls-1{fill:#d7be96;}.cls-2{fill:#323232;}.cls-3{fill:#fff;}</style></defs><g data-name="レイヤー 2" id="レイヤー_2"><g id="レイアウト"><rect class="cls-1" height="20" width="50" y="80.59"></rect><path class="cls-2" d="M3.48,117.8.85,113.24h1l2,3.57L6,113.24H7L4.37,117.8v3.44H3.48Z"></path><path class="cls-2" d="M8,118.77a2.56,2.56,0,0,1,2.64-2.63,2.62,2.62,0,1,1,0,5.24A2.55,2.55,0,0,1,8,118.77Zm.89,0a1.75,1.75,0,1,0,1.75-1.86A1.72,1.72,0,0,0,8.87,118.77Z"></path><path class="cls-2" d="M16,119.16a1.7,1.7,0,0,0,.24,1.07,1.21,1.21,0,0,0,1.76,0,1.7,1.7,0,0,0,.24-1.07v-2.9h.86v3a2,2,0,0,1-.46,1.5,2.17,2.17,0,0,1-3,0,2,2,0,0,1-.46-1.5v-3H16Z"></path><path class="cls-2" d="M27,114.08v7.16h-.89v-7.16H24.12v-.84h4.77v.84Z"></path><path class="cls-2" d="M33.7,116.26h.86v5H33.7v-.7a2.12,2.12,0,0,1-1.71.84,2.63,2.63,0,0,1,0-5.24,2.08,2.08,0,0,1,1.71.83Zm-3.24,2.48a1.66,1.66,0,0,0,1.63,1.87,1.86,1.86,0,0,0,0-3.7A1.65,1.65,0,0,0,30.46,118.74Z"></path><path class="cls-2" d="M37.22,113.77a.61.61,0,0,1,.62.61.62.62,0,0,1-1.23,0A.61.61,0,0,1,37.22,113.77Zm.44,2.49v5h-.87v-5Z"></path><path class="cls-2" d="M43.67,117.65a2,2,0,0,0-1.56-.74,1.85,1.85,0,0,0,0,3.7,2.08,2.08,0,0,0,1.6-.78v1a2.68,2.68,0,0,1-1.58.51,2.54,2.54,0,0,1-2.66-2.6,2.57,2.57,0,0,1,2.66-2.64,2.64,2.64,0,0,1,1.55.48Z"></path><path class="cls-2" d="M45.62,112.49h.87v4.35a1.73,1.73,0,0,1,1.43-.7,1.69,1.69,0,0,1,1.42.68,2.26,2.26,0,0,1,.29,1.34v3.08h-.86v-3.06a1.48,1.48,0,0,0-.23-.91,1,1,0,0,0-.82-.36,1.07,1.07,0,0,0-.87.38,2.1,2.1,0,0,0-.36,1.35v2.6h-.87Z"></path><path class="cls-2" d="M52.3,113.77a.61.61,0,0,1,.61.61.62.62,0,1,1-.61-.61Zm.43,2.49v5h-.87v-5Z"></path><path class="cls-2" d="M62.17,116.26H63v5h-.86v-.7a2.11,2.11,0,0,1-1.7.84,2.63,2.63,0,0,1,0-5.24,2.06,2.06,0,0,1,1.7.83Zm-3.24,2.48a1.66,1.66,0,0,0,1.63,1.87,1.86,1.86,0,0,0,0-3.7A1.65,1.65,0,0,0,58.93,118.74Z"></path><path class="cls-2" d="M67.32,117.41a.76.76,0,0,0-.7-.5.55.55,0,0,0-.6.56c0,.36.24.47.81.71a3,3,0,0,1,1.24.77,1.16,1.16,0,0,1,.27.8,1.59,1.59,0,0,1-1.72,1.63,1.78,1.78,0,0,1-1.74-1.27l.75-.31a1.11,1.11,0,0,0,1,.81.77.77,0,0,0,.82-.79c0-.47-.34-.62-.8-.83a3.07,3.07,0,0,1-1.21-.73,1,1,0,0,1-.23-.73,1.34,1.34,0,0,1,1.45-1.39A1.45,1.45,0,0,1,68,117Z"></path><path class="cls-2" d="M74.59,116.49h4.1v-3.25h.89v8h-.89v-3.91h-4.1v3.91H73.7v-8h.89Z"></path><path class="cls-2" d="M82.22,113.77a.61.61,0,0,1,.61.61.61.61,0,0,1-.61.61.62.62,0,0,1-.61-.61A.61.61,0,0,1,82.22,113.77Zm.43,2.49v5h-.86v-5Z"></path><path class="cls-2" d="M85.13,116.26H86v.54a1.39,1.39,0,0,1,1.13-.66,1.9,1.9,0,0,1,.76.2l-.4.78A.88.88,0,0,0,87,117a.81.81,0,0,0-.69.31,2.1,2.1,0,0,0-.29,1.34v2.63h-.86Z"></path><path class="cls-2" d="M89,118.77a2.64,2.64,0,1,1,2.64,2.61A2.56,2.56,0,0,1,89,118.77Zm.88,0a1.76,1.76,0,1,0,1.76-1.86A1.73,1.73,0,0,0,89.85,118.77Z"></path><path class="cls-2" d="M103.35,114.82a2,2,0,0,0-.47-.6A1.41,1.41,0,0,0,102,114a1.23,1.23,0,0,0-1.35,1.23.88.88,0,0,0,.3.7,2.57,2.57,0,0,0,.84.5l.77.34a3.79,3.79,0,0,1,1.23.75,1.93,1.93,0,0,1,.58,1.45,2.57,2.57,0,0,1-4.27,1.81,2.84,2.84,0,0,1-.74-1.41l.86-.24a1.87,1.87,0,0,0,.48,1,1.64,1.64,0,0,0,2.76-1.14,1.21,1.21,0,0,0-.4-.94,3.47,3.47,0,0,0-1-.55l-.72-.33a3.85,3.85,0,0,1-1.06-.66,1.67,1.67,0,0,1-.56-1.31,2.07,2.07,0,0,1,2.25-2.06,2.13,2.13,0,0,1,1.28.36,2.45,2.45,0,0,1,.78.88Z"></path><path class="cls-2" d="M106,118.77a2.64,2.64,0,1,1,2.63,2.61A2.55,2.55,0,0,1,106,118.77Zm.88,0a1.76,1.76,0,1,0,1.75-1.86A1.72,1.72,0,0,0,106.83,118.77Z"></path><path class="cls-2" d="M113.15,116.26H114v.53a1.45,1.45,0,0,1,1.23-.65,1.52,1.52,0,0,1,1.36.8,1.67,1.67,0,0,1,1.5-.8c1.47,0,1.62,1.24,1.62,1.94v3.16h-.87v-3c0-.57-.07-1.31-.88-1.31-1,0-1.11,1-1.11,1.56v2.77H116v-2.95c0-.35,0-1.38-.9-1.38s-1.09,1-1.09,1.62v2.71h-.86Z"></path><path class="cls-2" d="M125.54,116.26h.86v5h-.86v-.7a2.11,2.11,0,0,1-1.7.84,2.63,2.63,0,0,1,0-5.24,2.06,2.06,0,0,1,1.7.83Zm-3.24,2.48a1.66,1.66,0,0,0,1.63,1.87,1.86,1.86,0,0,0,0-3.7A1.65,1.65,0,0,0,122.3,118.74Z"></path><path class="cls-3" d="M20.35,96.11a6.5,6.5,0,0,1-3.05.7,6.19,6.19,0,0,1-4.51-1.67,5.94,5.94,0,0,1-2-4.59,6.21,6.21,0,0,1,2-4.7,6.39,6.39,0,0,1,4.53-1.59,6.38,6.38,0,0,1,3,.74v2.74a4,4,0,0,0-3-1.35,4.15,4.15,0,0,0,.09,8.3,3.78,3.78,0,0,0,2.89-1.32Z"></path><path class="cls-3" d="M28.07,84.53l3.29,8.07,3.29-8.07h2.62l-5.21,12H30.62l-5.18-12Z"></path><path class="cls-2" d="M79,97.52l-1.62,2a13.33,13.33,0,0,1-7.74-8.33,12.92,12.92,0,0,1-7.56,8.33l-1.7-1.78c5-2,6.92-5.24,7.66-9.27H60.56v-2.1h7.82c.16-1.68.18-3.46.2-5.32l2.3,0c0,1.84-.1,3.6-.26,5.3h8.25v2.1H71.14C72.32,93.35,75,96.18,79,97.52Z"></path><path class="cls-2" d="M83.9,93.63V87.35H81.8v-2h2.1V80.93H86v4.44h1.88v2H86v5.73l2.08-.61.18,1.86C86.42,95,83.66,96,82,96.5l-.56-2.25Zm15.66-9c0,5.76,0,8.66-.68,9.19a1.78,1.78,0,0,1-1.1.34c-.32,0-1.12,0-1.56,0L96,92.11a10.12,10.12,0,0,0,1.06,0,.3.3,0,0,0,.24-.07c.16-.2.2-1.93.2-5.35l-2.08.86v7.2H93.3V88.47l-2,.86v5.59c0,1.8.38,2.1,1.52,2.14s2.8,0,4,0,1.32-.16,1.4-2.08l2.07.38c-.3,3.32-.72,3.76-3.29,3.82-1.32,0-3.08,0-4.32,0-2.68-.06-3.48-.84-3.48-4.24V90.21l-1.5.64L86.86,89l2.26-1V82.81h2.14v4.28l2-.88V81h2.1v4.36l2.08-.88Z"></path><path class="cls-2" d="M127.78,97.5l-1.26,1.8a20.62,20.62,0,0,1-7.12-3.1v3.32h-2.26V96.28a19.82,19.82,0,0,1-7.1,3l-1.22-1.74A18.18,18.18,0,0,0,116.06,95h-7V93.33h8v-1H112V87.23H109.3V85.61H112v-1h1.84v-.88H109V82.07h4.82V80.93H116v1.14h4.44V80.93h2.18v1.14h5v1.64h-5v.7h2v1.2h2.7v1.62h-2.7v2.52h-7.48V87.23h-3.06v3.48h12.32v1.6h-7v1h8.12V95h-6.86A19,19,0,0,0,127.78,97.5Zm-10.6-11.89v-1.2h2v1.2h3.3v-.8h-2.06v-1.1H116v1.1h-1.9v.8Zm2,1.62v1.06h3.3V87.23Z"></path><path class="cls-2" d="M15.4,4.32V0h6.48V4.32H33.7V0h6.6V4.32H55.84v5.4H40.3v3.06H33.7V9.72H21.88V12.9H15.4V9.72H.16V4.32Zm9,36.12V36.66H8.56V14.16H47.5v22.5H31.12v3.78H55.84V46H31.12v9.78H24.4V46H.16V40.44ZM15,23.28H40.84v-4H15Zm0,8.34H40.84V27.48H15Z"></path><path class="cls-2" d="M72.82,4.38H88.54V.06H95.2V4.38h23.58V9.3h-46V19.92c0,11.88-1.14,24.36-5,35.46L62.2,52.14c3.6-9.9,4.56-20.94,4.56-32.16V4.38h6.06ZM91.9,41.46v-3.3H76.3V33.84H91.9V30.9c-4.62.3-9.12.42-12.9.36-.42-1.26-.9-2.46-1.44-4,9.72.36,24.42-.78,31.86-2.46l2.1,3.84a128,128,0,0,1-12.9,1.74v3.48H114v4.32H98.62v3.3h20v4.62h-20v4.14c0,3.06-1,4.86-3.72,5.28a56.46,56.46,0,0,1-8.7.18l-1-5.28c1.92.12,4.68.06,5.52.06s1.2-.48,1.2-1.26V46.08H72V41.46ZM94.72,21.6,92.32,25c-1.26-1.08-3.06-2.58-5-4v4.26H82v-4.2a32.65,32.65,0,0,1-6.3,5.1L73,22.5a26,26,0,0,0,8.28-5.64H74.62V13.08H82v-2.7h5.34v2.7h7.38v3.78H87.34v.3C90,18.66,93,20.46,94.72,21.6Zm2.82,4.08-2.64-3.6a22.44,22.44,0,0,0,8-5.22H96.58V13.08H104v-2.7h5.34v2.7H118v3.78h-7.74a25.49,25.49,0,0,0,8.76,5.4L116.2,26.1a31.21,31.21,0,0,1-6.9-5.22v3.9H104V20.7A26.1,26.1,0,0,1,97.54,25.68Z"></path><path class="cls-2" d="M151.6,11.76c-.3,6.06-1,12.72-2.58,16.44l-4.26-1.5c1.62-3.54,2.4-9.78,2.58-15.42Zm22.5,37.32a32.69,32.69,0,0,0-2.34-6.66l5-1.68h-7.38V27.06c-.6.48-1.14.9-1.74,1.32l-4-4.44a28,28,0,0,0,7.74-7.08,32.6,32.6,0,0,0-4.86-4.5C165.46,15.84,164,20,162.46,23.7l-3.06-1.32v5.16c0,1.86-.06,3.66-.18,5.46,2.88,4.5,6.06,9.66,7.86,12.9l-4.86,3.48c-1-2.34-2.52-5.52-4.2-8.64a31.78,31.78,0,0,1-8.34,15L144.94,52c7-6.66,8.76-14.7,8.76-24.42V0h5.7V20.4a111.06,111.06,0,0,0,3.54-12.18L167.38,10c-.18.72-.48,1.5-.72,2.34l3.06-3.12c1.68,1.2,3.12,2.34,4.38,3.42a34,34,0,0,0,2.16-5.22h-9V2.1H178.9l3.9,1a42.81,42.81,0,0,1-5.7,15.24h11.64A51.55,51.55,0,0,1,182.8,1.74L188,.06a43.58,43.58,0,0,0,1.26,5.34A33.43,33.43,0,0,0,194.14.72l3.78,3.12a68.26,68.26,0,0,1-7.2,5.82,27.6,27.6,0,0,0,1.68,3.54,40,40,0,0,0,4.8-4.74L201,11.52a58.26,58.26,0,0,1-6.36,5.22,24.59,24.59,0,0,0,7,6.48l-4,4.8-.54-.36V40.74h-7L195,42.3c-.84,2-2,4.38-3.3,6.78H201v5.34H165V49.08Zm21.36-22.74a29.23,29.23,0,0,1-4.92-5.22v2.22H175.12V21.18a36.28,36.28,0,0,1-4.86,5.16Zm-20,9.78h15.36V31H175.48Zm10.32,13a83.27,83.27,0,0,0,3.12-8.34H177a36.37,36.37,0,0,1,2.88,8.34h5.94Z"></path><path class="cls-2" d="M210.94,53.64l-1.5-6.36c.84-.18,1.74-.36,2.7-.6V25.32h5.28v20.1c1-.24,2-.48,3.06-.78v-24h-8.64V2h20.4V17.16a38.93,38.93,0,0,0,9.9-17.1l5.7,1.44c-.3,1.08-.66,2.22-1,3.24h10.8L262,6.18a45.82,45.82,0,0,1-8.7,16.5,45,45,0,0,0,13.32,8.52l-4.2,5.1c-.24-.18-.54-.3-.84-.48V55.74H255.4v-2H243.16v2h-6v-20c-.54.24-1.08.54-1.62.84l-2.94-3.36v.06h-6.06v9.84c2.52-.66,5-1.32,7-1.92l.54,5.34C227.32,48.78,216.94,52,210.94,53.64Zm15.24-46.5h-8.46v8.28h8.46Zm.36,20.64h6.06V31.2a46.63,46.63,0,0,0,12.78-8.52,48.74,48.74,0,0,1-4.44-6.42,57.45,57.45,0,0,1-3.78,4.62l-4.92-3.3v3.06h-5.7Zm30.9,5.64a55.17,55.17,0,0,1-8.1-6.42,53.13,53.13,0,0,1-8.22,6.42Zm-2,14.82V39H243.16v9.24Zm-1.32-38h-9.6l-.24.54a38.29,38.29,0,0,0,5,7.68A36.62,36.62,0,0,0,254.08,10.26Z"></path></g></g></svg>