<svg viewbox="0 0 264.88 124" xmlns="http://www.w3.org/2000/svg"><defs><style>.cls-1{fill:#aa697d;}.cls-2{fill:#323232;}.cls-3{fill:#fff;}</style></defs><title>アセット 1</title><g data-name="レイヤー 2" id="レイヤー_2"><g id="レイアウト"><rect class="cls-1" height="20" width="50" y="80.59"></rect><path class="cls-2" d="M6.2,119H2.8l-1,2.26h-1l3.69-8.39,3.58,8.39h-1Zm-.35-.84-1.34-3.2-1.37,3.2Z"></path><path class="cls-2" d="M10.38,112.49v5.62l1.82-1.85h1.13L11.2,118.4l2.51,2.84H12.59l-2-2.27-.22.22v2H9.52v-8.75Z"></path><path class="cls-2" d="M15.49,113.77a.61.61,0,0,1,.61.61.61.61,0,0,1-.61.61.62.62,0,0,1-.61-.61A.61.61,0,0,1,15.49,113.77Zm.43,2.49v5h-.86v-5Z"></path><path class="cls-2" d="M22.77,114.08v7.16h-.88v-7.16H19.94v-.84h4.78v.84Z"></path><path class="cls-2" d="M25.51,118.77a2.64,2.64,0,1,1,2.64,2.61A2.56,2.56,0,0,1,25.51,118.77Zm.89,0a1.75,1.75,0,1,0,1.75-1.86A1.72,1.72,0,0,0,26.4,118.77Z"></path><path class="cls-2" d="M33.8,120.77l-2.29-4.51h1l1.76,3.56,1.62-3.56h1L33.18,124h-1Z"></path><path class="cls-2" d="M37.56,118.77a2.64,2.64,0,1,1,2.64,2.61A2.56,2.56,0,0,1,37.56,118.77Zm.89,0a1.75,1.75,0,1,0,1.75-1.86A1.72,1.72,0,0,0,38.45,118.77Z"></path><path class="cls-2" d="M46.33,117.41a.76.76,0,0,0-.7-.5.54.54,0,0,0-.59.56c0,.36.23.47.8.71a3.1,3.1,0,0,1,1.25.77,1.2,1.2,0,0,1,.26.8,1.59,1.59,0,0,1-1.72,1.63,1.77,1.77,0,0,1-1.73-1.27l.74-.31a1.13,1.13,0,0,0,1,.81.77.77,0,0,0,.81-.79c0-.47-.33-.62-.8-.83a3.07,3.07,0,0,1-1.21-.73,1.09,1.09,0,0,1-.23-.73,1.34,1.34,0,0,1,1.45-1.39A1.45,1.45,0,0,1,47,117Z"></path><path class="cls-2" d="M52.8,116.26h.86v5H52.8v-.7a2.12,2.12,0,0,1-1.71.84,2.63,2.63,0,0,1,0-5.24,2.08,2.08,0,0,1,1.71.83Zm-3.24,2.48a1.66,1.66,0,0,0,1.63,1.87,1.86,1.86,0,0,0,0-3.7A1.65,1.65,0,0,0,49.56,118.74Z"></path><path class="cls-2" d="M56.4,112.49v5.62l1.82-1.85h1.13l-2.14,2.14,2.52,2.84H58.61l-2-2.27-.21.22v2h-.86v-8.75Z"></path><path class="cls-2" d="M61.39,113.77a.61.61,0,0,1,.61.61.61.61,0,1,1-1.22,0A.61.61,0,0,1,61.39,113.77Zm.43,2.49v5H61v-5Z"></path><path class="cls-2" d="M70.79,116.26h.86v5h-.86v-.7a2.12,2.12,0,0,1-1.71.84,2.63,2.63,0,0,1,0-5.24,2.08,2.08,0,0,1,1.71.83Zm-3.24,2.48a1.66,1.66,0,0,0,1.63,1.87,1.86,1.86,0,0,0,0-3.7A1.65,1.65,0,0,0,67.55,118.74Z"></path><path class="cls-2" d="M75.57,117.41a.75.75,0,0,0-.69-.5.55.55,0,0,0-.6.56c0,.36.24.47.8.71a3,3,0,0,1,1.25.77,1.2,1.2,0,0,1,.26.8,1.58,1.58,0,0,1-1.71,1.63,1.77,1.77,0,0,1-1.74-1.27l.74-.31a1.14,1.14,0,0,0,1,.81.78.78,0,0,0,.82-.79c0-.47-.34-.62-.81-.83a3.15,3.15,0,0,1-1.21-.73,1.09,1.09,0,0,1-.23-.73,1.34,1.34,0,0,1,1.45-1.39,1.43,1.43,0,0,1,1.37.9Z"></path><path class="cls-2" d="M82.85,113.24v8H82v-8Z"></path><path class="cls-2" d="M87.11,117.41a.77.77,0,0,0-.7-.5.55.55,0,0,0-.6.56c0,.36.24.47.8.71a3,3,0,0,1,1.25.77,1.15,1.15,0,0,1,.26.8,1.58,1.58,0,0,1-1.71,1.63,1.78,1.78,0,0,1-1.74-1.27l.75-.31a1.11,1.11,0,0,0,1,.81.77.77,0,0,0,.82-.79c0-.47-.34-.62-.81-.83a3.15,3.15,0,0,1-1.21-.73,1.08,1.08,0,0,1-.22-.73,1.34,1.34,0,0,1,1.45-1.39,1.43,1.43,0,0,1,1.36.9Z"></path><path class="cls-2" d="M90.5,119.16a1.7,1.7,0,0,0,.24,1.07,1.06,1.06,0,0,0,.88.38,1,1,0,0,0,.87-.38,1.7,1.7,0,0,0,.24-1.07v-2.9h.87v3a2,2,0,0,1-.46,1.5,2.06,2.06,0,0,1-1.52.62,2.08,2.08,0,0,1-1.53-.62,2,2,0,0,1-.45-1.5v-3h.86Z"></path><path class="cls-2" d="M96.6,120.45h3.45v.79H94.87l3.6-4.19h-2.9v-.79h4.63Z"></path><path class="cls-2" d="M102.33,119.16a1.7,1.7,0,0,0,.24,1.07,1.07,1.07,0,0,0,.88.38,1,1,0,0,0,.87-.38,1.7,1.7,0,0,0,.24-1.07v-2.9h.87v3a2,2,0,0,1-.46,1.5,2.17,2.17,0,0,1-3,0,2,2,0,0,1-.46-1.5v-3h.86Z"></path><path class="cls-2" d="M114.37,114.82a2,2,0,0,0-.47-.6,1.44,1.44,0,0,0-.9-.27,1.22,1.22,0,0,0-1.34,1.23.85.85,0,0,0,.3.7,2.57,2.57,0,0,0,.84.5l.76.34a4,4,0,0,1,1.24.75,1.93,1.93,0,0,1,.58,1.45,2.57,2.57,0,0,1-4.28,1.81,2.93,2.93,0,0,1-.74-1.41l.86-.24a2,2,0,0,0,.49,1,1.63,1.63,0,0,0,2.75-1.14,1.2,1.2,0,0,0-.39-.94,3.63,3.63,0,0,0-1-.55l-.72-.33a3.89,3.89,0,0,1-1.07-.66,1.66,1.66,0,0,1-.55-1.31,2.06,2.06,0,0,1,2.24-2.06,2.11,2.11,0,0,1,1.28.36,2.48,2.48,0,0,1,.79.88Z"></path><path class="cls-2" d="M116.48,118.77a2.64,2.64,0,1,1,2.64,2.61A2.56,2.56,0,0,1,116.48,118.77Zm.89,0a1.75,1.75,0,1,0,1.75-1.86A1.72,1.72,0,0,0,117.37,118.77Z"></path><path class="cls-2" d="M123.56,116.26h.86v.53a1.45,1.45,0,0,1,1.24-.65,1.48,1.48,0,0,1,1.35.8,1.68,1.68,0,0,1,1.5-.8c1.48,0,1.62,1.24,1.62,1.94v3.16h-.86v-3c0-.57-.07-1.31-.89-1.31-1,0-1.1,1-1.1,1.56v2.77h-.86v-2.95c0-.35,0-1.38-.9-1.38s-1.1,1-1.1,1.62v2.71h-.86Z"></path><path class="cls-2" d="M136,116.26h.86v5H136v-.7a2.12,2.12,0,0,1-1.71.84,2.63,2.63,0,0,1,0-5.24A2.08,2.08,0,0,1,136,117Zm-3.24,2.48a1.66,1.66,0,0,0,1.63,1.87,1.86,1.86,0,0,0,0-3.7A1.65,1.65,0,0,0,132.72,118.74Z"></path><path class="cls-3" d="M20.35,96.11a6.5,6.5,0,0,1-3.05.7,6.19,6.19,0,0,1-4.51-1.67,5.94,5.94,0,0,1-2-4.59,6.21,6.21,0,0,1,2-4.7,6.39,6.39,0,0,1,4.53-1.59,6.38,6.38,0,0,1,3,.74v2.74a4,4,0,0,0-3-1.35,4.15,4.15,0,0,0,.09,8.3,3.78,3.78,0,0,0,2.89-1.32Z"></path><path class="cls-3" d="M28.07,84.53l3.29,8.07,3.29-8.07h2.62l-5.21,12H30.62l-5.18-12Z"></path><path class="cls-2" d="M65.84,97.62A8.68,8.68,0,0,0,65,95.7l.92-.3H63.06V91.47H76.42V95.4H73.74l1,.32c-.32.56-.72,1.24-1.16,1.9H79v1.52H60.44V97.62Zm12.34-8.41v1.4H61.32v-1.4Zm-11.62-7V80.93h2v1.26h2.18V80.93h2v1.26h4.38v6.14H62.34V82.19Zm-2.14,2.48h2.14V83.59H64.42Zm0,2.26h2.14v-1.1H64.42Zm.8,7.19h9V92.75h-9Zm6.22,3.5a20.26,20.26,0,0,0,1.08-2.22H67a9.54,9.54,0,0,1,.92,2.22Zm-.68-13V83.59H68.58v1.08Zm0,2.26v-1.1H68.58v1.1ZM75,84.67V83.59H72.78v1.08Zm0,2.26v-1.1H72.78v1.1Z"></path><path class="cls-2" d="M84.74,94.05V81h1.62v13.1h1.18V83.73h1.62V97.36H87.54V95.84H83.62v1.88H82v-14h1.58v10.3ZM99,97.72c0,1-.28,1.56-1.12,1.72a16.73,16.73,0,0,1-2.34.06l-.36-1.88a13.22,13.22,0,0,0,1.46,0c.24,0,.32-.14.32-.36V90.71H89.6V88.89h10.61v1.82H99ZM100,87l-1.19,1.72a7,7,0,0,1-3.9-2.7,6.81,6.81,0,0,1-3.7,2.72l-1.22-1.56a5.11,5.11,0,0,0,3.42-2.44H90.24V83h3.68a18.56,18.56,0,0,0,.18-2L96,81a18.91,18.91,0,0,1-.16,2h3.72v1.76h-3.4A5.4,5.4,0,0,0,100,87ZM92,91.73h3.84v5.21H92v.8H90.32v-6H92Zm2.08,3.59V93.38H92v1.94Z"></path><path class="cls-2" d="M117.08,92.47h5.64l1.58.65a9.33,9.33,0,0,1-3.4,3.44,33.66,33.66,0,0,0,7.16,1.24l-1.14,1.76a34.36,34.36,0,0,1-8.2-1.92,31.41,31.41,0,0,1-8.12,1.92L109.46,98a30.6,30.6,0,0,0,7.1-1.3,14.79,14.79,0,0,1-2.3-1.52A19.11,19.11,0,0,1,111,97.08l-1.58-1.2a14.1,14.1,0,0,0,6-4.53l2.26.22A10.88,10.88,0,0,1,117.08,92.47Zm-4.8-8.74h-1.06l-.64-1.7a80.13,80.13,0,0,0,15-1.08l.9,1.64-1.6.26.72.24a23.28,23.28,0,0,1-1.44,2.06h3.42v3.5h-2.12v-1.9h-6A8.58,8.58,0,0,1,121,88.23l-1.58.94a8.32,8.32,0,0,0-2-1.94l.66-.48H112v1.9h-2v-3.5H113A9.82,9.82,0,0,0,112.28,83.73ZM112,91.51l-1.68-1a7.36,7.36,0,0,0,2.7-2.88l1.74.62A9,9,0,0,1,112,91.51Zm3.08-6.36h2.64a8.32,8.32,0,0,0-.7-1.58c-.88.06-1.76.1-2.62.12A7.22,7.22,0,0,1,115.12,85.15Zm5.48,6.38h-3c-2.1-.06-2.52-.46-2.52-2.32V87.63H117v1.58c0,.58.14.72.88.74s1.86,0,2.58,0,.82-.1.86-1l1.76.3C122.88,91.23,122.52,91.49,120.6,91.53Zm.42,2.56H115.9a11.61,11.61,0,0,0,2.82,1.67A9,9,0,0,0,121,94.09Zm.86-8.94a24.11,24.11,0,0,0,1.34-2.1c-1.28.16-2.68.28-4.12.4a8.58,8.58,0,0,1,.68,1.7Zm3.34,6.32a15.9,15.9,0,0,0-2.7-3.08l1.56-.88A17.93,17.93,0,0,1,127,90.57Z"></path><path class="cls-2" d="M138.88,96.72V92.66h-5.22v-2h5.22V87h-4a20.31,20.31,0,0,1-2.12,3.52l-2-1a17.89,17.89,0,0,0,3.54-7.76l2.22.42a22.61,22.61,0,0,1-.78,2.82h3.16V80.93h2.28V85h6.66v2h-6.66v3.58h5.3v2h-5.3v4.06h7.78v2h-18v-2Z"></path><path class="cls-2" d="M15.4,4.32V0h6.48V4.32H33.7V0h6.6V4.32H55.84v5.4H40.3v3.06H33.7V9.72H21.88V12.9H15.4V9.72H.16V4.32Zm9,36.12V36.66H8.56V14.16H47.5v22.5H31.12v3.78H55.84V46H31.12v9.78H24.4V46H.16V40.44ZM15,23.28H40.84v-4H15Zm0,8.34H40.84V27.48H15Z"></path><path class="cls-2" d="M72.82,4.38H88.54V.06H95.2V4.38h23.58V9.3h-46V19.92c0,11.88-1.14,24.36-5,35.46L62.2,52.14c3.6-9.9,4.56-20.94,4.56-32.16V4.38h6.06ZM91.9,41.46v-3.3H76.3V33.84H91.9V30.9c-4.62.3-9.12.42-12.9.36-.42-1.26-.9-2.46-1.44-4,9.72.36,24.42-.78,31.86-2.46l2.1,3.84a128,128,0,0,1-12.9,1.74v3.48H114v4.32H98.62v3.3h20v4.62h-20v4.14c0,3.06-1,4.86-3.72,5.28a56.46,56.46,0,0,1-8.7.18l-1-5.28c1.92.12,4.68.06,5.52.06s1.2-.48,1.2-1.26V46.08H72V41.46ZM94.72,21.6,92.32,25c-1.26-1.08-3.06-2.58-5-4v4.26H82v-4.2a32.65,32.65,0,0,1-6.3,5.1L73,22.5a26,26,0,0,0,8.28-5.64H74.62V13.08H82v-2.7h5.34v2.7h7.38v3.78H87.34v.3C90,18.66,93,20.46,94.72,21.6Zm2.82,4.08-2.64-3.6a22.44,22.44,0,0,0,8-5.22H96.58V13.08H104v-2.7h5.34v2.7H118v3.78h-7.74a25.49,25.49,0,0,0,8.76,5.4L116.2,26.1a31.21,31.21,0,0,1-6.9-5.22v3.9H104V20.7A26.1,26.1,0,0,1,97.54,25.68Z"></path><path class="cls-2" d="M159.4,55.74H153V27.3a73.23,73.23,0,0,1-4.32,6.3l-4-5.1A79.39,79.39,0,0,0,158,0l6.24,1.38a96,96,0,0,1-4.8,13.74Zm10.74-7.08V35a58.27,58.27,0,0,1-5.4,5l-4.5-5A56.57,56.57,0,0,0,176.38,16.2H162.22v-6h15.84V.06h6.66V10.2H201v6H185.32A83.22,83.22,0,0,0,188.2,30a76.6,76.6,0,0,0,7.8-9.78l5,4.14a116.46,116.46,0,0,1-10.62,11.52c2.82,6.48,6.66,11.4,11.4,14.7l-5,5.22c-8.28-6.72-13.74-18.18-16.5-34.2-1.14,2-2.4,4-3.72,5.82V47.58c3.54-.6,7.08-1.26,9.9-1.86.18,1.74.36,3.48.48,5.58-6.24,1.38-15.72,3.3-21.24,4.26L164,49.62C165.64,49.38,167.8,49,170.14,48.66Z"></path><path class="cls-2" d="M217.54,46.68V30.3H209.2V24.78h8.34V20H211.9V18.3l-.18.18-4.32-4.26A47.1,47.1,0,0,0,218.62,0l6.72.48-.36.66a83.35,83.35,0,0,1,8.94,9.72l-5.1,3.66h.42V20h-5.4v4.8h8V30.3h-8V45.78c3-.48,5.94-1,8.4-1.38l.3,5.34c-6.42,1.32-16.32,3.12-22.08,4.08l-1.56-5.94C211.18,47.58,214.24,47.16,217.54,46.68Zm-4-13.62A40.54,40.54,0,0,1,216,43.44c-1.74.6-3.12,1-4.5,1.5a35.54,35.54,0,0,0-2.34-10.38Zm15.3-18.54A63.82,63.82,0,0,0,222,6.18a69.35,69.35,0,0,1-6.48,8.34Zm3.78,19.62a94.78,94.78,0,0,1-3.72,9.9l-4.08-1.5a74,74,0,0,0,3-9.9ZM256.6,22H239.68V17.28a44.39,44.39,0,0,1-5,4.14l-3.24-6.06c4.92-3.06,9.78-8.22,13.8-15.24h5.4a46.92,46.92,0,0,0,14.22,15.24l-3.48,6.18a50.32,50.32,0,0,1-4.8-4.14Zm-8.4,33.72h-6.54V32.22h-7.8V26.46H262.3V44.34c0,2.94-.84,4.68-3.3,5.1a48.13,48.13,0,0,1-6.84.18L251,43.74a32.29,32.29,0,0,0,4.08.06c.66,0,.84-.36.84-.9V32.22H248.2Zm7.44-39.18a60.45,60.45,0,0,1-7.74-9.78,52,52,0,0,1-7.44,9.78Z"></path></g></g></svg>