<svg viewbox="0 0 263.98 124" xmlns="http://www.w3.org/2000/svg"><defs><style>.cls-1{fill:#ba9999;}.cls-2{fill:#323232;}.cls-3{fill:#fff;}</style></defs><title>アセット 4</title><g data-name="レイヤー 2" id="レイヤー_2"><g id="レイアウト"><rect class="cls-1" height="20" width="50" y="80.59"></rect><path class="cls-2" d="M3.07,113.24a3.46,3.46,0,0,1,1.94.44,2.22,2.22,0,0,1-1.13,4l2.54,3.58H5.34l-2.44-3.5H2.68v3.5H1.79v-8Zm-.39,3.7h.56c1.1,0,1.76-.52,1.76-1.46a1.23,1.23,0,0,0-.63-1.17,2.22,2.22,0,0,0-1.15-.23H2.68Z"></path><path class="cls-2" d="M8.63,113.77a.61.61,0,0,1,.61.61.62.62,0,0,1-.61.61.61.61,0,0,1-.61-.61A.61.61,0,0,1,8.63,113.77Zm.43,2.49v5H8.2v-5Z"></path><path class="cls-2" d="M15.71,120a3.08,3.08,0,0,1-.62.8,2.37,2.37,0,0,1-1.65.61,2.38,2.38,0,0,1-2.46-2.6,2.41,2.41,0,0,1,2.41-2.64,2.23,2.23,0,0,1,1.88.91,3.24,3.24,0,0,1,.47,1.87H11.87a1.59,1.59,0,0,0,1.58,1.69,1.51,1.51,0,0,0,1-.36,2,2,0,0,0,.52-.68Zm-.85-1.77a1.48,1.48,0,0,0-2.93,0Z"></path><path class="cls-2" d="M22.16,116.67l3.41-3.43h1.2L23,117l3.86,4.27H25.67l-3.28-3.67-.23.23v3.44h-.88v-8h.88Z"></path><path class="cls-2" d="M29.34,119.16a1.7,1.7,0,0,0,.24,1.07,1.06,1.06,0,0,0,.88.38,1,1,0,0,0,.87-.38,1.7,1.7,0,0,0,.24-1.07v-2.9h.86v3a2,2,0,0,1-.45,1.5,2.06,2.06,0,0,1-1.52.62,2.08,2.08,0,0,1-1.53-.62,2,2,0,0,1-.45-1.5v-3h.86Z"></path><path class="cls-2" d="M38.48,116.26h.87v4.86a3.11,3.11,0,0,1-.48,1.95,2.43,2.43,0,0,1-2,.93,2.45,2.45,0,0,1-1.78-.68,2.2,2.2,0,0,1-.65-1.6h.85a1.55,1.55,0,0,0,.39,1,1.52,1.52,0,0,0,1.2.48,1.4,1.4,0,0,0,1.32-.7,2.31,2.31,0,0,0,.27-1.27v-.72a2.11,2.11,0,0,1-1.7.84,2.39,2.39,0,0,1-1.7-.67,2.69,2.69,0,0,1-.72-2,2.61,2.61,0,0,1,.72-1.93,2.44,2.44,0,0,1,1.7-.67,2,2,0,0,1,1.7.83Zm-2.73,1.12a1.9,1.9,0,0,0-.51,1.36,1.94,1.94,0,0,0,.57,1.47,1.5,1.5,0,0,0,1.07.4,1.47,1.47,0,0,0,1.09-.42,2,2,0,0,0,.56-1.43,2,2,0,0,0-.53-1.41,1.6,1.6,0,0,0-1.12-.44A1.55,1.55,0,0,0,35.75,117.38Z"></path><path class="cls-2" d="M42,113.77a.61.61,0,0,1,.61.61A.61.61,0,0,1,42,115a.62.62,0,0,1-.61-.61A.61.61,0,0,1,42,113.77Zm.43,2.49v5h-.86v-5Z"></path><path class="cls-2" d="M44.68,116.26h.86v.53a1.45,1.45,0,0,1,1.23-.65,1.52,1.52,0,0,1,1.36.8,1.67,1.67,0,0,1,1.5-.8c1.47,0,1.62,1.24,1.62,1.94v3.16h-.87v-3c0-.57-.07-1.31-.88-1.31-1,0-1.11,1-1.11,1.56v2.77h-.86v-2.95c0-.35,0-1.38-.9-1.38s-1.09,1-1.09,1.62v2.71h-.86Z"></path><path class="cls-2" d="M53.93,113.77a.61.61,0,0,1,.61.61.62.62,0,0,1-.61.61.61.61,0,0,1-.61-.61A.61.61,0,0,1,53.93,113.77Zm.43,2.49v5H53.5v-5Z"></path><path class="cls-2" d="M58.16,120.77l-2.29-4.51h1l1.76,3.56,1.62-3.56h1L57.54,124h-1Z"></path><path class="cls-2" d="M66.53,116.26h.86v5h-.86v-.7a2.12,2.12,0,0,1-1.71.84,2.63,2.63,0,0,1,0-5.24,2.08,2.08,0,0,1,1.71.83Zm-3.24,2.48a1.66,1.66,0,0,0,1.63,1.87,1.86,1.86,0,0,0,0-3.7A1.65,1.65,0,0,0,63.29,118.74Z"></path><path class="cls-2" d="M76.83,116.26h.87v5h-.87v-.7a2.11,2.11,0,0,1-1.7.84,2.63,2.63,0,0,1,0-5.24,2.06,2.06,0,0,1,1.7.83Zm-3.24,2.48a1.66,1.66,0,0,0,1.64,1.87,1.86,1.86,0,0,0,0-3.7A1.65,1.65,0,0,0,73.59,118.74Z"></path><path class="cls-2" d="M82,117.41a.75.75,0,0,0-.69-.5.55.55,0,0,0-.6.56c0,.36.24.47.8.71a3.1,3.1,0,0,1,1.25.77,1.2,1.2,0,0,1,.26.8,1.58,1.58,0,0,1-1.71,1.63,1.77,1.77,0,0,1-1.74-1.27l.74-.31a1.13,1.13,0,0,0,1,.81.77.77,0,0,0,.81-.79c0-.47-.33-.62-.8-.83a3.15,3.15,0,0,1-1.21-.73,1.09,1.09,0,0,1-.23-.73,1.34,1.34,0,0,1,1.45-1.39,1.44,1.44,0,0,1,1.37.9Z"></path><path class="cls-2" d="M89.25,116.67l3.41-3.43h1.2L90.12,117,94,121.24H92.75l-3.27-3.67-.23.23v3.44h-.88v-8h.88Z"></path><path class="cls-2" d="M99.38,116.26h.86v5h-.86v-.7a2.11,2.11,0,0,1-1.7.84,2.63,2.63,0,0,1,0-5.24,2.06,2.06,0,0,1,1.7.83Zm-3.24,2.48a1.66,1.66,0,0,0,1.63,1.87,1.86,1.86,0,0,0,0-3.7A1.65,1.65,0,0,0,96.14,118.74Z"></path><path class="cls-2" d="M106.29,116.26h.86v4.86a3.11,3.11,0,0,1-.48,1.95,2.4,2.4,0,0,1-2,.93,2.43,2.43,0,0,1-1.77-.68,2.2,2.2,0,0,1-.65-1.6h.85a1.55,1.55,0,0,0,.39,1,1.52,1.52,0,0,0,1.2.48,1.38,1.38,0,0,0,1.31-.7,2.23,2.23,0,0,0,.28-1.27v-.72a2.11,2.11,0,0,1-1.7.84,2.43,2.43,0,0,1-1.71-.67,2.73,2.73,0,0,1-.71-2,2.61,2.61,0,0,1,.71-1.93,2.46,2.46,0,0,1,1.71-.67,2.06,2.06,0,0,1,1.7.83Zm-2.73,1.12a1.9,1.9,0,0,0-.51,1.36,1.94,1.94,0,0,0,.57,1.47,1.49,1.49,0,0,0,1.06.4,1.44,1.44,0,0,0,1.09-.42,2.11,2.11,0,0,0,0-2.84,1.6,1.6,0,0,0-1.13-.44A1.54,1.54,0,0,0,103.56,117.38Z"></path><path class="cls-2" d="M110.25,119.16a1.7,1.7,0,0,0,.24,1.07,1.06,1.06,0,0,0,.88.38,1,1,0,0,0,.87-.38,1.7,1.7,0,0,0,.24-1.07v-2.9h.87v3a2,2,0,0,1-.46,1.5,2.06,2.06,0,0,1-1.52.62,2.09,2.09,0,0,1-1.53-.62,2,2,0,0,1-.45-1.5v-3h.86Z"></path><path class="cls-2" d="M115.58,116.26h.86v.54a1.41,1.41,0,0,1,1.13-.66,2,2,0,0,1,.77.2l-.41.78a.87.87,0,0,0-.5-.16.83.83,0,0,0-.7.31,2.17,2.17,0,0,0-.29,1.34v2.63h-.86Z"></path><path class="cls-2" d="M123.55,116.26h.86v5h-.86v-.7a2.12,2.12,0,0,1-1.71.84,2.63,2.63,0,0,1,0-5.24,2.08,2.08,0,0,1,1.71.83Zm-3.24,2.48a1.66,1.66,0,0,0,1.63,1.87,1.86,1.86,0,0,0,0-3.7A1.65,1.65,0,0,0,120.31,118.74Z"></path><path class="cls-2" d="M133.83,114.82a2,2,0,0,0-.47-.6,1.42,1.42,0,0,0-.9-.27,1.22,1.22,0,0,0-1.34,1.23.85.85,0,0,0,.3.7,2.57,2.57,0,0,0,.84.5l.77.34a4,4,0,0,1,1.23.75,1.93,1.93,0,0,1,.58,1.45,2.57,2.57,0,0,1-4.27,1.81,2.86,2.86,0,0,1-.75-1.41l.87-.24a1.87,1.87,0,0,0,.48,1,1.63,1.63,0,0,0,2.75-1.14,1.2,1.2,0,0,0-.39-.94,3.63,3.63,0,0,0-1-.55l-.72-.33a3.89,3.89,0,0,1-1.07-.66,1.66,1.66,0,0,1-.55-1.31,2.06,2.06,0,0,1,2.24-2.06,2.14,2.14,0,0,1,1.29.36,2.45,2.45,0,0,1,.78.88Z"></path><path class="cls-2" d="M136.54,118.77a2.64,2.64,0,1,1,2.64,2.61A2.56,2.56,0,0,1,136.54,118.77Zm.89,0a1.75,1.75,0,1,0,1.75-1.86A1.72,1.72,0,0,0,137.43,118.77Z"></path><path class="cls-2" d="M143.74,116.26h.87v.53a1.42,1.42,0,0,1,1.23-.65,1.52,1.52,0,0,1,1.36.8,1.67,1.67,0,0,1,1.5-.8c1.47,0,1.62,1.24,1.62,1.94v3.16h-.87v-3c0-.57-.07-1.31-.89-1.31-1,0-1.1,1-1.1,1.56v2.77h-.86v-2.95c0-.35,0-1.38-.9-1.38s-1.09,1-1.09,1.62v2.71h-.87Z"></path><path class="cls-2" d="M156.38,116.26h.86v5h-.86v-.7a2.12,2.12,0,0,1-1.71.84,2.63,2.63,0,0,1,0-5.24,2.08,2.08,0,0,1,1.71.83Zm-3.24,2.48a1.66,1.66,0,0,0,1.63,1.87,1.86,1.86,0,0,0,0-3.7A1.65,1.65,0,0,0,153.14,118.74Z"></path><path class="cls-3" d="M20.35,96.11a6.5,6.5,0,0,1-3.05.7,6.19,6.19,0,0,1-4.51-1.67,5.94,5.94,0,0,1-2-4.59,6.21,6.21,0,0,1,2-4.7,6.39,6.39,0,0,1,4.53-1.59,6.38,6.38,0,0,1,3,.74v2.74a4,4,0,0,0-3-1.35,4.15,4.15,0,0,0,.09,8.3,3.78,3.78,0,0,0,2.89-1.32Z"></path><path class="cls-3" d="M28.07,84.53l3.29,8.07,3.29-8.07h2.62l-5.21,12H30.62l-5.18-12Z"></path><path class="cls-2" d="M64,96.54V91.05H60.74V89.19H64v-1.6H62v-.82c-.12.1-.24.2-.36.32l-1.42-1.42a15.58,15.58,0,0,0,4.06-4.74l2.28.18-.12.2a25.9,25.9,0,0,1,3.24,3.2L68,85.77h.28v1.82h-2.2v1.6H69.2v1.86H66.08v5.21c1.16-.16,2.28-.34,3.2-.48l.1,1.82c-2.4.48-6.06,1.1-8.18,1.42L60.66,97C61.52,96.88,62.72,96.72,64,96.54Zm-1.52-4.65a13.19,13.19,0,0,1,1,3.61l-1.56.56a12.64,12.64,0,0,0-1-3.6ZM68,85.77a24.63,24.63,0,0,0-2.58-2.86A22.93,22.93,0,0,1,63,85.77Zm1.32,6.52A37,37,0,0,1,68,95.78l-1.48-.54a30.12,30.12,0,0,0,1-3.51Zm6.38,4.77c0,1.4-.42,2.18-1.72,2.38a21.89,21.89,0,0,1-2.88,0l-.46-2.18a16.75,16.75,0,0,0,2.22,0c.46,0,.58-.26.58-.68V84.07H69.28V82H79v2.1h-3.3Z"></path><path class="cls-2" d="M89.52,82.87V81H91.8v1.92h7.62v4.5H97.24V84.73H84.18v2.64h-2.1v-4.5ZM86,98.9v.62H83.84V92.66H89c.16-.45.3-.91.42-1.33h-4V85.89H96v5.44h-4.2c-.18.42-.38.88-.6,1.33h6.46v6.86H95.38V98.9Zm9.36-1.8V94.48H86V97.1Zm-7.84-7.41h6.24V87.53H87.54Z"></path><path class="cls-2" d="M111.2,94.2V89.71h-1.9V87.77h1.9v-3.6H109v-2h6.28v2h-1.94v3.6H115v1.94h-1.66v4l1.94-.46.16,1.84c-1.84.56-4.64,1.38-6.28,1.8l-.46-2.14Zm8.92,2.74V94.62h-4.18V92.7h4.18V90.77H115.9V81.69h10.8v9.08h-4.42V92.7h4.38v1.92h-4.38v2.32h5.12v1.92H114.5V96.94Zm-2.18-11.53h2.18V83.57h-2.18Zm0,3.48h2.18V87h-2.18Zm6.66-3.48V83.57h-2.32v1.84Zm0,3.48V87h-2.32v1.9Z"></path><path class="cls-2" d="M134.4,94.52a13.31,13.31,0,0,1-2.58,4.28l-2-.86a10.21,10.21,0,0,0,2.58-4Zm3.84-2h-6V85.33h5.64v-1.2h-8V82.45h8V81h2.22v1.5h8.22v1.68H140.1v1.2H146v7.21h-6.66a13.75,13.75,0,0,1,2.32,2.34L140,96a15.63,15.63,0,0,0-2.6-2.8Zm-3.86-4.31h3.5V87h-3.5Zm0,2.66h3.5V89.57h-3.5Zm2.7,2.81v2.66c0,.72.2.86,1,.88s2.08,0,2.9,0,.92-.12,1-1.5l2,.34c-.22,2.78-.6,3.12-2.84,3.16-.94,0-2.4,0-3.28,0-2.4-.08-2.92-.56-2.92-2.88V93.7Zm6.72-5.47V87h-3.7v1.28Zm0,2.66V89.57h-3.7v1.32Zm1.56,2.69a21.54,21.54,0,0,1,3,4.32l-2.12.84a19.55,19.55,0,0,0-2.78-4.34Z"></path><path class="cls-2" d="M15.4,4.32V0h6.48V4.32H33.7V0h6.6V4.32H55.84v5.4H40.3v3.06H33.7V9.72H21.88V12.9H15.4V9.72H.16V4.32Zm9,36.12V36.66H8.56V14.16H47.5v22.5H31.12v3.78H55.84V46H31.12v9.78H24.4V46H.16V40.44ZM15,23.28H40.84v-4H15Zm0,8.34H40.84V27.48H15Z"></path><path class="cls-2" d="M72.82,4.38H88.54V.06H95.2V4.38h23.58V9.3h-46V19.92c0,11.88-1.14,24.36-5,35.46L62.2,52.14c3.6-9.9,4.56-20.94,4.56-32.16V4.38h6.06ZM91.9,41.46v-3.3H76.3V33.84H91.9V30.9c-4.62.3-9.12.42-12.9.36-.42-1.26-.9-2.46-1.44-4,9.72.36,24.42-.78,31.86-2.46l2.1,3.84a128,128,0,0,1-12.9,1.74v3.48H114v4.32H98.62v3.3h20v4.62h-20v4.14c0,3.06-1,4.86-3.72,5.28a56.46,56.46,0,0,1-8.7.18l-1-5.28c1.92.12,4.68.06,5.52.06s1.2-.48,1.2-1.26V46.08H72V41.46ZM94.72,21.6,92.32,25c-1.26-1.08-3.06-2.58-5-4v4.26H82v-4.2a32.65,32.65,0,0,1-6.3,5.1L73,22.5a26,26,0,0,0,8.28-5.64H74.62V13.08H82v-2.7h5.34v2.7h7.38v3.78H87.34v.3C90,18.66,93,20.46,94.72,21.6Zm2.82,4.08-2.64-3.6a22.44,22.44,0,0,0,8-5.22H96.58V13.08H104v-2.7h5.34v2.7H118v3.78h-7.74a25.49,25.49,0,0,0,8.76,5.4L116.2,26.1a31.21,31.21,0,0,1-6.9-5.22v3.9H104V20.7A26.1,26.1,0,0,1,97.54,25.68Z"></path><path class="cls-2" d="M201.7,49l-4.26,5.64a59.87,59.87,0,0,1-21.12-12.9v14h-6.78v-14a64.9,64.9,0,0,1-20.7,13.14l-4.08-5.34c7.68-2.4,16-6.78,21.42-12.18H145.54V31.86h24v-4.5H162V5.22h6.66a45.23,45.23,0,0,0,1.5-5.16l7,.66c-.6,1.38-1.32,2.94-2.16,4.5h9.3V27.36h-8v4.5H200.8v5.52H179.74C185.2,42.66,193.72,46.8,201.7,49ZM159,16.26l1.5,5.1c-3.78,2.34-9.18,5.58-12.36,7.38l-2.82-5.46C148.72,21.72,154.9,18.6,159,16.26Zm-7.5-14.58a42.18,42.18,0,0,1,8.7,9.24c-1.68,1-3.36,1.92-5.4,3.12a42.59,42.59,0,0,0-7.92-9.24ZM168,14.22h10V10.14H168Zm0,8.28h10V18.24H168Zm21.3-6.78a111.46,111.46,0,0,1,11.7,8.4l-4.62,4.08a98.21,98.21,0,0,0-11.16-8.76ZM199.66,4.38a99.92,99.92,0,0,1-8.76,9.84l-5-2.76a71,71,0,0,0,8-9.84Z"></path><path class="cls-2" d="M216.76,40.44a43.17,43.17,0,0,1-3.84,13l-5.16-1.86a34.31,34.31,0,0,0,3.72-12ZM264,48.84v4.92h-21.3v2h-6.24V33.18a27.55,27.55,0,0,1-2.16,2.46l-2.82-3.9a30.13,30.13,0,0,1,2,4.92l-5.16,1.86c-.18-.66-.36-1.38-.6-2l-3.48.36v18.9h-6.06V37.5c-3.36.36-6.6.72-8.94.9l-1.08-5.16c1.32-.06,2.94-.18,4.74-.24.9-1,1.8-1.92,2.64-2.88a35.51,35.51,0,0,0-7.2-5.94l3.24-3.66c.48.3,1,.6,1.38.9a58,58,0,0,0,5.1-7.08h-6.84V1.56H261.1V14.34H240.64l4.86,1a49.24,49.24,0,0,1-2,5.94H248a66.27,66.27,0,0,0,1.92-7c5.82,1.08,5.94,1.08,6.06,1.14-.6,1.68-1.38,3.78-2.28,5.82h9.06v4.8h-8.46v4.44h7.2V35.1h-7.2v4.5h7.2v4.56h-7.2v4.68ZM225.88,32.1c-.54-1-1.14-2.1-1.8-3.18l4.5-1.92c.9,1.32,1.68,2.58,2.4,3.84a38,38,0,0,0,8.64-16.5H219.94l3.84,1.5a74.16,74.16,0,0,1-6.84,8.4c.78.66,1.5,1.26,2.16,1.92a79.46,79.46,0,0,0,6.36-8.22l5.46,2.46A149.1,149.1,0,0,1,220,32.52C222,32.4,224,32.22,225.88,32.1Zm-8.4-21.84h8.28V5.64h-8.28Zm13.2,28.62a38.56,38.56,0,0,1,3.06,10.44L228,50.7a39,39,0,0,0-2.4-10.32Zm9.42-28.62V5.64h-8.52v4.62Zm8.1,20.28V26.1h-5.52v4.44Zm0,9.06V35.1h-5.52v4.5Zm0,9.24V44.16h-5.52v4.68Zm6.36-38.58V5.64H246v4.62Z"></path></g></g></svg>