<svg viewbox="0 0 199.78 123.93" xmlns="http://www.w3.org/2000/svg"><defs><style>.cls-1{fill:#7bad76;}.cls-2{fill:#323232;}.cls-3{fill:#fff;}</style></defs><title>txt_kakeru</title><g data-name="レイヤー 2" id="レイヤー_2"><g id="レイアウト"><rect class="cls-1" height="20" width="50" y="80.71"></rect><path class="cls-2" d="M3.76,114v7.16H2.87V114H.92v-.84H5.7V114Z"></path><path class="cls-2" d="M11.1,116.19H12v5H11.1v-.7a2.11,2.11,0,0,1-1.7.84,2.63,2.63,0,0,1,0-5.24,2.07,2.07,0,0,1,1.7.83Zm-3.24,2.48a1.66,1.66,0,0,0,1.63,1.87,1.7,1.7,0,0,0,1.66-1.86,1.68,1.68,0,0,0-1.66-1.84A1.65,1.65,0,0,0,7.86,118.67Z"></path><path class="cls-2" d="M15.06,112.42V118l1.82-1.85H18l-2.13,2.13,2.51,2.85H17.27l-2-2.27-.22.22v2H14.2v-8.75Z"></path><path class="cls-2" d="M20.72,119.09a1.7,1.7,0,0,0,.24,1.07,1.07,1.07,0,0,0,.88.38,1,1,0,0,0,.87-.38,1.7,1.7,0,0,0,.24-1.07v-2.9h.87v3a2,2,0,0,1-.46,1.5,2.17,2.17,0,0,1-3,0,2,2,0,0,1-.46-1.5v-3h.86Z"></path><path class="cls-2" d="M27.62,120.7l-2.29-4.51h1l1.76,3.56,1.62-3.56h1L27,123.93H26Z"></path><path class="cls-2" d="M36,116.19h.86v5H36v-.7a2.12,2.12,0,0,1-1.71.84,2.63,2.63,0,0,1,0-5.24,2.08,2.08,0,0,1,1.71.83Zm-3.24,2.48a1.66,1.66,0,0,0,1.63,1.87A1.7,1.7,0,0,0,36,118.68a1.68,1.68,0,0,0-1.65-1.84A1.65,1.65,0,0,0,32.75,118.67Z"></path><path class="cls-2" d="M46.85,114H43.58v2.37h3.17v.84H43.58v3.11h3.27v.84H42.7v-8h4.15Z"></path><path class="cls-2" d="M52.68,116.19h.86v4.86a3.12,3.12,0,0,1-.48,2,2.4,2.4,0,0,1-2,.93,2.47,2.47,0,0,1-1.78-.68,2.24,2.24,0,0,1-.64-1.6h.85a1.59,1.59,0,0,0,.38,1,1.57,1.57,0,0,0,1.2.48,1.4,1.4,0,0,0,1.32-.7,2.33,2.33,0,0,0,.28-1.27v-.72a2.12,2.12,0,0,1-1.71.84,2.39,2.39,0,0,1-1.7-.67,2.73,2.73,0,0,1-.72-2,2.61,2.61,0,0,1,.72-1.93,2.44,2.44,0,0,1,1.7-.67,2.07,2.07,0,0,1,1.71.83Zm-2.74,1.12a1.87,1.87,0,0,0-.5,1.36,1.94,1.94,0,0,0,.56,1.47,1.52,1.52,0,0,0,1.07.4,1.44,1.44,0,0,0,1.09-.42,2.11,2.11,0,0,0,0-2.84,1.64,1.64,0,0,0-1.13-.44A1.55,1.55,0,0,0,49.94,117.31Z"></path><path class="cls-2" d="M56.64,119.09a1.7,1.7,0,0,0,.24,1.07,1,1,0,0,0,.87.38,1.06,1.06,0,0,0,.88-.38,1.7,1.7,0,0,0,.24-1.07v-2.9h.86v3a2,2,0,0,1-.45,1.5,2.12,2.12,0,0,1-1.53.62,2.1,2.1,0,0,1-1.52-.62,2,2,0,0,1-.45-1.5v-3h.86Z"></path><path class="cls-2" d="M65.87,117.58a2,2,0,0,0-1.56-.74,1.85,1.85,0,0,0,0,3.7,2.09,2.09,0,0,0,1.61-.78v1a2.68,2.68,0,0,1-1.58.51,2.54,2.54,0,0,1-2.66-2.6,2.57,2.57,0,0,1,2.66-2.64,2.64,2.64,0,0,1,1.55.48Z"></path><path class="cls-2" d="M67.82,112.42h.87v4.35a1.73,1.73,0,0,1,1.42-.7,1.7,1.7,0,0,1,1.43.68,2.23,2.23,0,0,1,.29,1.33v3.09H71v-3.06a1.48,1.48,0,0,0-.23-.91,1,1,0,0,0-.82-.36,1.07,1.07,0,0,0-.87.38,2.07,2.07,0,0,0-.36,1.34v2.61h-.87Z"></path><path class="cls-2" d="M74.5,113.7a.61.61,0,0,1,.61.61.62.62,0,1,1-.61-.61Zm.43,2.49v5h-.87v-5Z"></path><path class="cls-2" d="M84.37,116.19h.86v5h-.86v-.7a2.11,2.11,0,0,1-1.7.84,2.63,2.63,0,0,1,0-5.24,2.07,2.07,0,0,1,1.7.83Zm-3.24,2.48a1.66,1.66,0,0,0,1.63,1.87,1.7,1.7,0,0,0,1.66-1.86,1.68,1.68,0,0,0-1.66-1.84A1.65,1.65,0,0,0,81.13,118.67Z"></path><path class="cls-2" d="M89.52,117.34a.76.76,0,0,0-.7-.5.55.55,0,0,0-.6.56c0,.36.24.47.81.71a3,3,0,0,1,1.24.77,1.14,1.14,0,0,1,.27.8,1.59,1.59,0,0,1-1.72,1.63A1.78,1.78,0,0,1,87.08,120l.75-.31a1.11,1.11,0,0,0,1,.81.77.77,0,0,0,.82-.79c0-.47-.34-.62-.8-.83a3.21,3.21,0,0,1-1.22-.73,1.08,1.08,0,0,1-.22-.73,1.34,1.34,0,0,1,1.45-1.39,1.45,1.45,0,0,1,1.37.9Z"></path><path class="cls-2" d="M96.79,116.6l3.41-3.43h1.2l-3.75,3.73,3.87,4.27h-1.23L97,117.5l-.23.23v3.44H95.9v-8h.89Z"></path><path class="cls-2" d="M106.92,116.19h.86v5h-.86v-.7a2.12,2.12,0,0,1-1.71.84,2.63,2.63,0,0,1,0-5.24,2.08,2.08,0,0,1,1.71.83Zm-3.24,2.48a1.66,1.66,0,0,0,1.63,1.87,1.7,1.7,0,0,0,1.65-1.86,1.68,1.68,0,0,0-1.65-1.84A1.65,1.65,0,0,0,103.68,118.67Z"></path><path class="cls-2" d="M110.88,112.42V118l1.82-1.85h1.13l-2.14,2.13,2.52,2.85h-1.13l-2-2.27-.21.22v2H110v-8.75Z"></path><path class="cls-2" d="M120.09,119.9a3,3,0,0,1-.61.8,2.41,2.41,0,0,1-1.65.61,2.38,2.38,0,0,1-2.46-2.6,2.41,2.41,0,0,1,2.41-2.64,2.23,2.23,0,0,1,1.88.91,3.4,3.4,0,0,1,.47,1.87h-3.88a1.6,1.6,0,0,0,1.59,1.69,1.51,1.51,0,0,0,1-.36,2.06,2.06,0,0,0,.51-.68Zm-.85-1.77a1.48,1.48,0,0,0-1.46-1.29,1.53,1.53,0,0,0-1.47,1.29Z"></path><path class="cls-2" d="M122.05,116.19h.86v.54a1.41,1.41,0,0,1,1.13-.66,2,2,0,0,1,.77.2l-.41.78a.87.87,0,0,0-.5-.16.83.83,0,0,0-.7.31,2.17,2.17,0,0,0-.29,1.34v2.63h-.86Z"></path><path class="cls-2" d="M127.07,119.09a1.7,1.7,0,0,0,.24,1.07,1,1,0,0,0,.87.38,1.07,1.07,0,0,0,.88-.38,1.7,1.7,0,0,0,.24-1.07v-2.9h.86v3a2,2,0,0,1-.46,1.5,2.17,2.17,0,0,1-3,0,2,2,0,0,1-.46-1.5v-3h.87Z"></path><path class="cls-2" d="M135.73,121.17l1.33-8.45,3.07,6.76,3.13-6.77,1.25,8.46h-.91l-.76-5.57-2.72,5.9-2.69-5.9-.79,5.57Z"></path><path class="cls-2" d="M150.56,116.19h.86v5h-.86v-.7a2.11,2.11,0,0,1-1.7.84,2.63,2.63,0,0,1,0-5.24,2.06,2.06,0,0,1,1.7.83Zm-3.24,2.48a1.66,1.66,0,0,0,1.63,1.87,1.7,1.7,0,0,0,1.66-1.86,1.68,1.68,0,0,0-1.66-1.84A1.65,1.65,0,0,0,147.32,118.67Z"></path><path class="cls-2" d="M153.66,116.19h.86v.58a1.75,1.75,0,0,1,1.43-.7,1.7,1.7,0,0,1,1.43.68,2.23,2.23,0,0,1,.28,1.33v3.09h-.86v-3.06a1.42,1.42,0,0,0-.23-.91,1,1,0,0,0-.81-.36,1.09,1.09,0,0,0-.88.38,2.13,2.13,0,0,0-.36,1.34v2.61h-.86Z"></path><path class="cls-2" d="M163.71,116.19h.87v5h-.87v-.7a2.11,2.11,0,0,1-1.7.84,2.63,2.63,0,0,1,0-5.24,2.06,2.06,0,0,1,1.7.83Zm-3.24,2.48a1.66,1.66,0,0,0,1.63,1.87,1.7,1.7,0,0,0,1.66-1.86,1.68,1.68,0,0,0-1.66-1.84A1.65,1.65,0,0,0,160.47,118.67Z"></path><path class="cls-2" d="M167.67,121.17h-.86v-8.75h.86v4.47a2.14,2.14,0,0,1,1.71-.82,2.47,2.47,0,0,1,2.42,2.64,2.42,2.42,0,0,1-2.39,2.6,2.12,2.12,0,0,1-1.74-.84Zm3.24-2.46a1.7,1.7,0,0,0-1.63-1.87,1.73,1.73,0,0,0-1.66,1.86,1.7,1.7,0,0,0,1.67,1.84A1.67,1.67,0,0,0,170.91,118.71Z"></path><path class="cls-2" d="M178.13,119.9a3,3,0,0,1-.61.8,2.57,2.57,0,1,1-1.7-4.63,2.23,2.23,0,0,1,1.88.91,3.32,3.32,0,0,1,.47,1.87H174.3a1.59,1.59,0,0,0,1.58,1.69,1.51,1.51,0,0,0,1-.36,2,2,0,0,0,.52-.68Zm-.85-1.77a1.48,1.48,0,0,0-1.46-1.29,1.51,1.51,0,0,0-1.46,1.29Z"></path><path class="cls-3" d="M20.35,96.06a6.63,6.63,0,0,1-3.05.7,6.16,6.16,0,0,1-4.51-1.68,5.9,5.9,0,0,1-2-4.58,6.21,6.21,0,0,1,2-4.7,6.43,6.43,0,0,1,4.53-1.58,6.27,6.27,0,0,1,3,.74v2.73a4,4,0,0,0-3-1.35,4.15,4.15,0,0,0,.1,8.29,3.76,3.76,0,0,0,2.88-1.31Z"></path><path class="cls-3" d="M28.07,84.49l3.29,8.06,3.29-8.06h2.62l-5.21,12H30.62l-5.18-12Z"></path><path class="cls-2" d="M61.62,86.41a15.41,15.41,0,0,1,3.8,2.48L64,90.44a14.84,14.84,0,0,0-3.56-2.53Zm2.66,5.17,1.6,1.28a50.39,50.39,0,0,1-3.28,6.5L60.72,98A39.52,39.52,0,0,0,64.28,91.58ZM62.44,81.09a16.81,16.81,0,0,1,3.66,2.34l-1.44,1.62a14.63,14.63,0,0,0-3.42-2.44ZM71,96.44V84.63H66.28v-2.1H78.06v2.1H73.22V96.44H79v2.1H65.22v-2.1Z"></path><path class="cls-2" d="M84.88,97.64V99H82.66V82.67h16.1V99h-2.3V97.64Zm11.58-2.12V84.81H84.88V95.52Z"></path><path class="cls-2" d="M113.58,91.68v5.5c0,1.28-.36,2-1.52,2.18a14.46,14.46,0,0,1-2.36.06l-.42-2.06a13.3,13.3,0,0,0,1.72,0c.38,0,.48-.22.48-.56V92.42l-2.32.76L108.68,91c.72-.18,1.72-.46,2.8-.76V86.53H109v-2h2.52V80.91h2.1v3.62h1.9v2h-1.9v3.14c.72-.2,1.38-.42,2-.6l.2,1.85C115.1,91.16,114.36,91.42,113.58,91.68Zm5.7,6.94v.84h-2.06V93.54a18.37,18.37,0,0,1-1.5,2l-1.7-1.4a19.43,19.43,0,0,0,3.2-5,22.06,22.06,0,0,0,1.6-5.46h-3.3v-2H127.4v2H121a27,27,0,0,1-1.48,5.46h6.94V99.46h-2.12v-.84Zm5.06-2V91.08h-5.06v5.54Z"></path><path class="cls-2" d="M146.34,84.33c-.08,5.75-.24,8.67-.92,9.21a2.05,2.05,0,0,1-1.26.38l-2.06,0-.28-2.06a16.18,16.18,0,0,0,1.66,0,.51.51,0,0,0,.36-.1c.22-.24.32-2,.38-5.37-.72.26-1.68.62-3.48,1.26V94.8h-2.22V88.45c-.94.32-2,.7-3.32,1.16v4.61c0,2.06.62,2.5,2.4,2.54s4.48.06,6.38,0,2.08-.22,2.18-2.54l2.22.42c-.4,3.74-.9,4.2-4.24,4.28-2.06,0-4.74,0-6.7,0-3.38-.06-4.46-1-4.46-4.7V90.38l-2.68.92-.66-1.93L133,88.15V82.69h2.22v4.66l3.32-1.2V80.91h2.22v4.44l3.52-1.28Z"></path><path class="cls-2" d="M35.8,44.86H19.54l4.32,1.85A75.44,75.44,0,0,1,7,55.71l-6-3.6a70.68,70.68,0,0,0,15.6-7.25H.16v-5.1H55.84v5.1H39.58c5.7,2.63,10.68,5.21,15.18,7.85l-6.6,3C43.78,53,38.26,50.07,31.84,47ZM24.46,11.15V8.4H.46V3.48h24V.06h6.78V3.48h24.3V8.4H31.24v2.75H46.9V37.24H9.1V11.15Zm-8.82,7.68H40.12V15.71H15.64Zm0,6.9H40.12V22.61H15.64Zm0,7H40.12V29.5H15.64Z"></path><path class="cls-2" d="M71.68,46.71V30.28H63.82V24.77h7.86V20H66.16V18l-3.9-3.78A48.63,48.63,0,0,0,72.76,0l6.66.42-.36.72a72.81,72.81,0,0,1,8.28,9.53l-5.1,3.54a67.49,67.49,0,0,0-6-8,71.08,71.08,0,0,1-6.06,8.27H83V20H77.74v4.8h6.84v5.51H77.74V45.81c2.34-.35,4.5-.71,6.36-1L84.46,50c-5.64,1.2-14.16,2.88-19.14,3.78l-1.5-5.94C65.8,47.55,68.62,47.13,71.68,46.71ZM68.08,33.1a38,38,0,0,1,2.4,10.44c-1.68.48-3,.9-4.32,1.38a35.11,35.11,0,0,0-2.22-10.38Zm17.58.9c-.84,2.82-2.1,6.48-3.48,9.84l-3.72-1.38a79.84,79.84,0,0,0,2.82-9.84Zm30.48-10.85h1.62V50.43c0,2.94-.84,4.68-3.36,5.1a32.76,32.76,0,0,1-6.12.12l-1-5.58a25.88,25.88,0,0,0,3.66.06c.72,0,.9-.36.9-1V28.36H91.6V55.77H86V23.15h3.3V1.56h25.32V23.15ZM99,31.42h10V46.71H99v2.58H94.48V31.42H99ZM99,23.15V10.67h9.72V6.84H94.9V23.15Zm5.34,19V36H99V42.1Zm4.38-19V15.29H104v7.86Z"></path><path class="cls-2" d="M154.3,32.5V26.57h-6.72v-5.4h6.72v-4.8h-8.22V11H150a38.94,38.94,0,0,0-2.7-9.23L152.2.12a38.73,38.73,0,0,1,3,10.13l-2.4.78h5.88a92,92,0,0,0,3.78-11L168,1.8c-1,2.7-2.4,6-4,9.23h3.72v3.18l4.44-2.52a58.24,58.24,0,0,1,4.8,8.4V7.8H168V1.86H183.1V38.8c2.7-2.1,7.08-5.7,10.44-8.64V22.67c-3.36,2-3.48,2.1-3.6,2.1a40.83,40.83,0,0,0-5.82-10.62l4.5-2.7a53.3,53.3,0,0,1,4.92,8V7.8h-9.06V1.86h15.3V49.29c0,3.66-1,5.7-4.32,6.24a36.7,36.7,0,0,1-7,.12l-1.08-5.88a43.48,43.48,0,0,0,4.74.06c1.08-.12,1.38-.54,1.38-1.56V37.48c-2.64,2.52-5.46,5.22-7.38,7l-3.06-4.62v9.41c0,3.66-1,5.76-4.38,6.36a42.69,42.69,0,0,1-6.9.06l-1.14-5.88a34.62,34.62,0,0,0,4.92.06c1.14-.06,1.44-.6,1.44-1.62V37.66c-3.06,2.76-6.54,5.82-8.82,7.74l-3.66-5.16c3.06-2.22,8.58-6.42,12.48-9.72V22.79l-3.9,2.1a42.65,42.65,0,0,0-5.34-10.56v2h-7.26v4.8h5.88v5.4h-5.88v5c2.7-.42,5.28-.84,7.5-1.2l.24,5.1c-2.28.48-5,1-7.92,1.56-.54,7-3,13.37-9.42,18.65-1.92-1.56-3.54-2.82-5.16-4.08,5.1-3.9,7.38-8.27,8.16-13.37-2.94.54-5.64,1-7.74,1.32L145,33.76C147.34,33.46,150.7,33,154.3,32.5Z"></path></g></g></svg>