<svg viewbox="0 0 264.04 124" xmlns="http://www.w3.org/2000/svg"><defs><style>.cls-1{fill:#7188b5;}.cls-2{fill:#323232;}.cls-3{fill:#fff;}</style></defs><title>アセット 3</title><g data-name="レイヤー 2" id="レイヤー_2"><g id="レイアウト"><rect class="cls-1" height="20" width="50" y="80.59"></rect><path class="cls-2" d="M3.75,114.08v7.16H2.87v-7.16H.92v-.84H5.7v.84Z"></path><path class="cls-2" d="M6.61,118.77a2.56,2.56,0,0,1,2.64-2.63,2.62,2.62,0,1,1,0,5.24A2.55,2.55,0,0,1,6.61,118.77Zm.89,0a1.75,1.75,0,1,0,1.75-1.86A1.72,1.72,0,0,0,7.5,118.77Z"></path><path class="cls-2" d="M15.74,117.41a.75.75,0,0,0-.69-.5.55.55,0,0,0-.6.56c0,.36.24.47.8.71a3,3,0,0,1,1.25.77,1.2,1.2,0,0,1,.26.8,1.58,1.58,0,0,1-1.71,1.63,1.77,1.77,0,0,1-1.74-1.27l.74-.31a1.14,1.14,0,0,0,1,.81.78.78,0,0,0,.82-.79c0-.47-.34-.62-.81-.83a3.15,3.15,0,0,1-1.21-.73,1.09,1.09,0,0,1-.23-.73,1.34,1.34,0,0,1,1.45-1.39,1.43,1.43,0,0,1,1.37.9Z"></path><path class="cls-2" d="M18.4,112.49h.86v4.35a1.75,1.75,0,0,1,1.43-.7,1.68,1.68,0,0,1,1.42.68,2.19,2.19,0,0,1,.29,1.34v3.08h-.86v-3.06a1.48,1.48,0,0,0-.23-.91,1,1,0,0,0-.81-.36,1.09,1.09,0,0,0-.88.38,2.1,2.1,0,0,0-.36,1.35v2.6H18.4Z"></path><path class="cls-2" d="M25,113.77a.61.61,0,0,1,.61.61A.62.62,0,0,1,25,115a.61.61,0,0,1-.61-.61A.61.61,0,0,1,25,113.77Zm.43,2.49v5h-.86v-5Z"></path><path class="cls-2" d="M29.18,120.77l-2.29-4.51h1l1.76,3.56,1.62-3.56h1L28.56,124h-1Z"></path><path class="cls-2" d="M34.23,119.16a1.7,1.7,0,0,0,.24,1.07,1.21,1.21,0,0,0,1.76,0,1.7,1.7,0,0,0,.24-1.07v-2.9h.86v3a2,2,0,0,1-.46,1.5,2.17,2.17,0,0,1-3,0,2,2,0,0,1-.46-1.5v-3h.86Z"></path><path class="cls-2" d="M40.19,112.49v5.62L42,116.26h1.13L41,118.4l2.52,2.84H42.39l-2-2.27-.21.22v2h-.87v-8.75Z"></path><path class="cls-2" d="M45.3,113.77a.61.61,0,0,1,.61.61.61.61,0,1,1-1.22,0A.61.61,0,0,1,45.3,113.77Zm.43,2.49v5h-.86v-5Z"></path><path class="cls-2" d="M51.06,121.24l1.33-8.45,3.07,6.76,3.13-6.77,1.25,8.46h-.91l-.76-5.57-2.72,5.9-2.69-5.9L52,121.24Z"></path><path class="cls-2" d="M61.52,118.77a2.64,2.64,0,1,1,2.64,2.61A2.56,2.56,0,0,1,61.52,118.77Zm.89,0a1.75,1.75,0,1,0,1.75-1.86A1.72,1.72,0,0,0,62.41,118.77Z"></path><path class="cls-2" d="M68.48,116.26h.87v.54a1.37,1.37,0,0,1,1.12-.66,1.9,1.9,0,0,1,.77.2l-.41.78a.87.87,0,0,0-.5-.16.85.85,0,0,0-.7.31,2.19,2.19,0,0,0-.28,1.34v2.63h-.87Z"></path><path class="cls-2" d="M73.07,113.77a.61.61,0,0,1,.61.61.62.62,0,0,1-.61.61.61.61,0,0,1-.61-.61A.61.61,0,0,1,73.07,113.77Zm.43,2.49v5h-.87v-5Z"></path><path class="cls-2" d="M76.59,112.49v5.62l1.83-1.85h1.13l-2.14,2.14,2.52,2.84H78.8l-2-2.27-.22.22v2h-.86v-8.75Z"></path><path class="cls-2" d="M85.09,116.26H86v5h-.86v-.7a2.11,2.11,0,0,1-1.7.84,2.63,2.63,0,0,1,0-5.24,2.07,2.07,0,0,1,1.7.83Zm-3.24,2.48a1.66,1.66,0,0,0,1.63,1.87,1.86,1.86,0,0,0,0-3.7A1.65,1.65,0,0,0,81.85,118.74Z"></path><path class="cls-2" d="M88.19,116.26l1.47,3.38,1.56-3.76,1.55,3.76,1.48-3.38h1l-2.47,5.33-1.53-3.72-1.54,3.72-2.44-5.33Z"></path><path class="cls-2" d="M100.3,116.26h.87v5h-.87v-.7a2.08,2.08,0,0,1-1.7.84,2.63,2.63,0,0,1,0-5.24,2,2,0,0,1,1.7.83Zm-3.23,2.48a1.66,1.66,0,0,0,1.63,1.87,1.86,1.86,0,0,0,0-3.7A1.65,1.65,0,0,0,97.07,118.74Z"></path><path class="cls-2" d="M110.49,116.26h.86v5h-.86v-.7a2.11,2.11,0,0,1-1.7.84,2.63,2.63,0,0,1,0-5.24,2.06,2.06,0,0,1,1.7.83Zm-3.24,2.48a1.66,1.66,0,0,0,1.63,1.87,1.86,1.86,0,0,0,0-3.7A1.65,1.65,0,0,0,107.25,118.74Z"></path><path class="cls-2" d="M115.28,117.41a.76.76,0,0,0-.7-.5.55.55,0,0,0-.6.56c0,.36.24.47.81.71A3.1,3.1,0,0,1,116,119a1.2,1.2,0,0,1,.26.8,1.59,1.59,0,0,1-1.72,1.63,1.78,1.78,0,0,1-1.74-1.27l.75-.31a1.12,1.12,0,0,0,1,.81.77.77,0,0,0,.81-.79c0-.47-.33-.62-.8-.83a3.07,3.07,0,0,1-1.21-.73,1.09,1.09,0,0,1-.23-.73,1.34,1.34,0,0,1,1.45-1.39,1.45,1.45,0,0,1,1.37.9Z"></path><path class="cls-2" d="M122.55,116.67l3.41-3.43h1.2L123.42,117l3.86,4.27h-1.23l-3.27-3.67-.23.23v3.44h-.89v-8h.89Z"></path><path class="cls-2" d="M132.68,116.26h.86v5h-.86v-.7a2.11,2.11,0,0,1-1.7.84,2.63,2.63,0,0,1,0-5.24,2.07,2.07,0,0,1,1.7.83Zm-3.24,2.48a1.66,1.66,0,0,0,1.63,1.87,1.86,1.86,0,0,0,0-3.7A1.65,1.65,0,0,0,129.44,118.74Z"></path><path class="cls-2" d="M136.78,120.45h3.46v.79h-5.18l3.6-4.19h-2.91v-.79h4.63Z"></path><path class="cls-2" d="M142.76,119.16a1.7,1.7,0,0,0,.24,1.07,1.2,1.2,0,0,0,1.75,0,1.7,1.7,0,0,0,.24-1.07v-2.9h.86v3a2,2,0,0,1-.45,1.5,2.19,2.19,0,0,1-3.05,0,2,2,0,0,1-.45-1.5v-3h.86Z"></path><path class="cls-2" d="M148.09,116.26H149v.53a1.45,1.45,0,0,1,1.24-.65,1.48,1.48,0,0,1,1.35.8,1.68,1.68,0,0,1,1.5-.8c1.48,0,1.62,1.24,1.62,1.94v3.16h-.86v-3c0-.57-.08-1.31-.89-1.31-1,0-1.1,1-1.1,1.56v2.77h-.87v-2.95c0-.35,0-1.38-.9-1.38s-1.09,1-1.09,1.62v2.71h-.86Z"></path><path class="cls-2" d="M160.72,116.26h.86v5h-.86v-.7a2.11,2.11,0,0,1-1.7.84,2.63,2.63,0,0,1,0-5.24,2.06,2.06,0,0,1,1.7.83Zm-3.24,2.48a1.66,1.66,0,0,0,1.63,1.87,1.86,1.86,0,0,0,0-3.7A1.65,1.65,0,0,0,157.48,118.74Z"></path><path class="cls-2" d="M170.52,114.82a1.82,1.82,0,0,0-.46-.6,1.47,1.47,0,0,0-.9-.27,1.23,1.23,0,0,0-1.35,1.23.88.88,0,0,0,.3.7,2.57,2.57,0,0,0,.84.5l.77.34a4,4,0,0,1,1.24.75,2,2,0,0,1,.57,1.45,2.57,2.57,0,0,1-4.27,1.81,2.93,2.93,0,0,1-.74-1.41l.86-.24a1.87,1.87,0,0,0,.48,1,1.64,1.64,0,0,0,2.76-1.14,1.21,1.21,0,0,0-.4-.94,3.47,3.47,0,0,0-1-.55l-.71-.33a3.75,3.75,0,0,1-1.07-.66,1.66,1.66,0,0,1-.55-1.31,2.06,2.06,0,0,1,2.24-2.06,2.11,2.11,0,0,1,1.28.36,2.36,2.36,0,0,1,.78.88Z"></path><path class="cls-2" d="M172.64,118.77a2.64,2.64,0,1,1,2.64,2.61A2.56,2.56,0,0,1,172.64,118.77Zm.89,0a1.75,1.75,0,1,0,1.75-1.86A1.72,1.72,0,0,0,173.53,118.77Z"></path><path class="cls-2" d="M179.72,116.26h.86v.53a1.45,1.45,0,0,1,1.24-.65,1.48,1.48,0,0,1,1.35.8,1.68,1.68,0,0,1,1.5-.8c1.48,0,1.62,1.24,1.62,1.94v3.16h-.86v-3c0-.57-.07-1.31-.89-1.31-1,0-1.1,1-1.1,1.56v2.77h-.87v-2.95c0-.35,0-1.38-.9-1.38s-1.09,1-1.09,1.62v2.71h-.86Z"></path><path class="cls-2" d="M192.11,116.26H193v5h-.87v-.7a2.11,2.11,0,0,1-1.7.84,2.63,2.63,0,0,1,0-5.24,2.06,2.06,0,0,1,1.7.83Zm-3.24,2.48a1.66,1.66,0,0,0,1.63,1.87,1.86,1.86,0,0,0,0-3.7A1.65,1.65,0,0,0,188.87,118.74Z"></path><path class="cls-3" d="M20.35,96.11a6.5,6.5,0,0,1-3.05.7,6.19,6.19,0,0,1-4.51-1.67,5.94,5.94,0,0,1-2-4.59,6.21,6.21,0,0,1,2-4.7,6.39,6.39,0,0,1,4.53-1.59,6.38,6.38,0,0,1,3,.74v2.74a4,4,0,0,0-3-1.35,4.15,4.15,0,0,0,.09,8.3,3.78,3.78,0,0,0,2.89-1.32Z"></path><path class="cls-3" d="M28.07,84.53l3.29,8.07,3.29-8.07h2.62l-5.21,12H30.62l-5.18-12Z"></path><path class="cls-2" d="M69,95.8l-1.3,1.46c-.38-.64-1-1.48-1.58-2.32v4.58H64V95.66a16.31,16.31,0,0,1-2.46,3.12l-1.36-1.6a13.61,13.61,0,0,0,3.64-4.55H60.5V90.85H64V88.93h2.12v1.92H68.9v1.78H66.16v.1C67.22,93.79,68.4,95,69,95.8Zm9.48-8.35-1.26,1.76a16.91,16.91,0,0,1-6.5-3.42V89H68.54v-3.2a19.48,19.48,0,0,1-6.34,3.5l-1.26-1.72a16.45,16.45,0,0,0,6.46-3.1H61.34V82.79h7.2V80.93h2.22v1.86h7.32v1.72H72A14.79,14.79,0,0,0,78.52,87.45ZM79.26,97c-.54.62-1,1.16-1.4,1.7A16,16,0,0,1,75,95.4v4.12H72.84V95.44a14.57,14.57,0,0,1-3.08,3.32l-1.3-1.6a11.82,11.82,0,0,0,4.16-4.53h-3V90.85h3.24V88.93H75v1.92h3.91v1.78H75.22A13.72,13.72,0,0,0,79.26,97Z"></path><path class="cls-2" d="M86.12,81.37v7.46c0,3.87-.6,7.63-2.66,10.69l-2-1.08c2-2.84,2.48-6.06,2.48-9.59V81.37ZM92,82.49V97.64H89.86V82.49Zm6.3-1.12V99.5H96.1V81.37Z"></path><path class="cls-2" d="M107.72,98.92v.6h-2.18V91.27a11,11,0,0,1-1.08.62l-1.62-1.38c2.36-1,3.54-2.22,4-3.5h-3.92V85.33h1.58l-1.34-.74a7.93,7.93,0,0,0,2-3.66l1.82.32c-.08.28-.16.56-.24.82h5.38v1.68h-3.06v1.58h3.3V87h-3.3a32.79,32.79,0,0,1,3.06,2.52l-1.3,1.18h7.86v8.81h-2.24v-.6ZM107,85.33V83.75h-1a8.54,8.54,0,0,1-1.14,1.58Zm3.42,5.38c-.62-.64-1.34-1.3-2.18-2a7.12,7.12,0,0,1-1.9,2Zm6,3.29V92.5h-8.72V94Zm0,3.16V95.54h-8.72v1.62Zm4.06-15.37v7.76h-7.58V81.79Zm-5.54,6h3.44v-4.2H115Z"></path><path class="cls-2" d="M129.12,95.48a38.55,38.55,0,0,0,8.64-8.61H125.08V84.79h7V80.93h2.26v3.86H140l1.52.88a44.36,44.36,0,0,1-10.42,10.89,11.72,11.72,0,0,0,3.4.48c1,0,7.08,0,8.28-.06l-.46,2.16c-1.16,0-7,0-8.18,0-2.88-.06-4.86-.64-6.52-2.5-.62,1.1-1.26,2.16-1.76,2.88l-2-1.26a36.84,36.84,0,0,0,3.6-5.7l1.64,1.17c-.16.37-.34.75-.54,1.15Z"></path><path class="cls-2" d="M15.4,4.32V0h6.48V4.32H33.7V0h6.6V4.32H55.84v5.4H40.3v3.06H33.7V9.72H21.88V12.9H15.4V9.72H.16V4.32Zm9,36.12V36.66H8.56V14.16H47.5v22.5H31.12v3.78H55.84V46H31.12v9.78H24.4V46H.16V40.44ZM15,23.28H40.84v-4H15Zm0,8.34H40.84V27.48H15Z"></path><path class="cls-2" d="M72.82,4.38H88.54V.06H95.2V4.38h23.58V9.3h-46V19.92c0,11.88-1.14,24.36-5,35.46L62.2,52.14c3.6-9.9,4.56-20.94,4.56-32.16V4.38h6.06ZM91.9,41.46v-3.3H76.3V33.84H91.9V30.9c-4.62.3-9.12.42-12.9.36-.42-1.26-.9-2.46-1.44-4,9.72.36,24.42-.78,31.86-2.46l2.1,3.84a128,128,0,0,1-12.9,1.74v3.48H114v4.32H98.62v3.3h20v4.62h-20v4.14c0,3.06-1,4.86-3.72,5.28a56.46,56.46,0,0,1-8.7.18l-1-5.28c1.92.12,4.68.06,5.52.06s1.2-.48,1.2-1.26V46.08H72V41.46ZM94.72,21.6,92.32,25c-1.26-1.08-3.06-2.58-5-4v4.26H82v-4.2a32.65,32.65,0,0,1-6.3,5.1L73,22.5a26,26,0,0,0,8.28-5.64H74.62V13.08H82v-2.7h5.34v2.7h7.38v3.78H87.34v.3C90,18.66,93,20.46,94.72,21.6Zm2.82,4.08-2.64-3.6a22.44,22.44,0,0,0,8-5.22H96.58V13.08H104v-2.7h5.34v2.7H118v3.78h-7.74a25.49,25.49,0,0,0,8.76,5.4L116.2,26.1a31.21,31.21,0,0,1-6.9-5.22v3.9H104V20.7A26.1,26.1,0,0,1,97.54,25.68Z"></path><path class="cls-2" d="M169,43.86l-3.66,4.8c-1-1.74-2.52-4-4.2-6.3V55.74H155V43.86a50.48,50.48,0,0,1-6.24,8.82l-4.14-4.92a44.9,44.9,0,0,0,9.66-12.6h-8.88V30.3H155V27h-7V22.32h7V19c-2.82.3-5.64.42-8.1.48L145.54,15c2.82,0,6.12-.18,9.42-.48v-3.9h5.28V8.16H145.36V3.24h14.88V0h6.48V3.24H179.2V0h6.54V3.24H201V8.16h-15.3v2.76h-4.08V15.6h6.18v-5h6.3v5h5.34v4.74h-5.34v5.58H201v4.8H168.76v-4.8h6.66V20.34h-5V15.6h5v-5h3.78V8.16H166.72v2.76h-5.58V13.8a55.35,55.35,0,0,0,6.42-1.26l2,4.32a69.77,69.77,0,0,1-8.4,1.5v4h6.06V27h-6.06v3.3h7v4.86h-7v.24C164,38.34,167.14,41.7,169,43.86Zm9,10.5v1.38h-6.12V33.42h26V55.74H191.5V54.36Zm13.5-12.6v-3.6H178v3.6Zm0,7.92V46H178v3.72Zm-3.66-23.76V20.34h-6.18v5.58Z"></path><path class="cls-2" d="M244,44.88H227.74l4.32,1.86a75.44,75.44,0,0,1-16.86,9l-6-3.6a70.25,70.25,0,0,0,15.6-7.26H208.36v-5.1H264v5.1H247.78c5.7,2.64,10.68,5.22,15.18,7.86l-6.6,3C252,53,246.46,50.1,240,47ZM232.66,11.16V8.4h-24V3.48h24V.06h6.78V3.48h24.3V8.4h-24.3v2.76H255.1v26.1H217.3V11.16Zm-8.82,7.68h24.48V15.72H223.84Zm0,6.9h24.48V22.62H223.84Zm0,7h24.48V29.52H223.84Z"></path></g></g></svg>