<svg viewbox="0 0 266.98 121.38" xmlns="http://www.w3.org/2000/svg"><defs><style>.cls-1{fill:#ffe296;}.cls-2{fill:#323232;}.cls-3{fill:#fff;}</style></defs><title>txt_name</title><g data-name="レイヤー 2" id="レイヤー_2"><g id="レイアウト"><rect class="cls-1" height="20" width="50" y="80.59"></rect><path class="cls-2" d="M3.07,113.24a3.46,3.46,0,0,1,1.94.44,2.22,2.22,0,0,1-1.13,4l2.54,3.58H5.34l-2.44-3.5H2.68v3.5H1.79v-8Zm-.39,3.7h.56c1.1,0,1.76-.52,1.76-1.46a1.23,1.23,0,0,0-.63-1.17,2.22,2.22,0,0,0-1.15-.23H2.68Z"></path><path class="cls-2" d="M12.61,120a3,3,0,0,1-.61.8,2.42,2.42,0,0,1-1.66.61,2.38,2.38,0,0,1-2.46-2.6,2.42,2.42,0,0,1,2.41-2.64,2.23,2.23,0,0,1,1.89.91,3.4,3.4,0,0,1,.47,1.87H8.77a1.59,1.59,0,0,0,1.59,1.69,1.53,1.53,0,0,0,1-.36,2.06,2.06,0,0,0,.51-.68Zm-.85-1.77a1.49,1.49,0,0,0-1.47-1.29,1.51,1.51,0,0,0-1.46,1.29Z"></path><path class="cls-2" d="M15,113.77a.61.61,0,0,1,.61.61.61.61,0,0,1-1.22,0A.61.61,0,0,1,15,113.77Zm.43,2.49v5h-.86v-5Z"></path><path class="cls-2" d="M17.66,116.26h.87v.58a1.73,1.73,0,0,1,1.43-.7,1.69,1.69,0,0,1,1.42.68,2.26,2.26,0,0,1,.29,1.34v3.08h-.86v-3.06a1.48,1.48,0,0,0-.23-.91,1,1,0,0,0-.82-.36,1.07,1.07,0,0,0-.87.38,2.1,2.1,0,0,0-.36,1.35v2.6h-.87Z"></path><path class="cls-2" d="M27.72,116.26h.86v5h-.86v-.7a2.11,2.11,0,0,1-1.7.84,2.63,2.63,0,0,1,0-5.24,2.07,2.07,0,0,1,1.7.83Zm-3.24,2.48a1.66,1.66,0,0,0,1.63,1.87,1.86,1.86,0,0,0,0-3.7A1.65,1.65,0,0,0,24.48,118.74Z"></path><path class="cls-2" d="M35.31,118.14a2.28,2.28,0,0,0,.64,2,2.26,2.26,0,0,0,1.32.45,2.28,2.28,0,0,0,1.32-.45,2.31,2.31,0,0,0,.63-2v-4.9h.89v5.14a3.09,3.09,0,0,1-.5,1.92,3.08,3.08,0,0,1-4.68,0,3.09,3.09,0,0,1-.5-1.92v-5.14h.88Z"></path><path class="cls-2" d="M47,120a3.27,3.27,0,0,1-.61.8,2.42,2.42,0,0,1-1.66.61,2.38,2.38,0,0,1-2.46-2.6,2.41,2.41,0,0,1,2.41-2.64,2.25,2.25,0,0,1,1.89.91,3.31,3.31,0,0,1,.46,1.87H43.14a1.59,1.59,0,0,0,1.58,1.69,1.51,1.51,0,0,0,1-.36,2,2,0,0,0,.52-.68Zm-.85-1.77a1.48,1.48,0,0,0-2.93,0Z"></path><path class="cls-2" d="M52.75,112.49h.86v8.75h-.86v-.7a2.11,2.11,0,0,1-1.7.84,2.63,2.63,0,0,1,0-5.24,2.07,2.07,0,0,1,1.7.83Zm-3.24,6.25a1.66,1.66,0,0,0,1.63,1.87,1.86,1.86,0,0,0,0-3.7A1.65,1.65,0,0,0,49.51,118.74Z"></path><path class="cls-2" d="M59.66,116.26h.86v5h-.86v-.7a2.11,2.11,0,0,1-1.7.84,2.63,2.63,0,0,1,0-5.24,2.06,2.06,0,0,1,1.7.83Zm-3.24,2.48a1.66,1.66,0,0,0,1.63,1.87,1.86,1.86,0,0,0,0-3.7A1.65,1.65,0,0,0,56.42,118.74Z"></path><path class="cls-2" d="M70,116.26h.86v5H70v-.7a2.12,2.12,0,0,1-1.71.84,2.63,2.63,0,0,1,0-5.24A2.08,2.08,0,0,1,70,117Zm-3.24,2.48a1.66,1.66,0,0,0,1.63,1.87,1.86,1.86,0,0,0,0-3.7A1.65,1.65,0,0,0,66.73,118.74Z"></path><path class="cls-2" d="M75.12,117.41a.76.76,0,0,0-.7-.5.55.55,0,0,0-.6.56c0,.36.24.47.8.71a3,3,0,0,1,1.25.77,1.16,1.16,0,0,1,.27.8,1.59,1.59,0,0,1-1.72,1.63,1.78,1.78,0,0,1-1.74-1.27l.75-.31a1.11,1.11,0,0,0,1,.81.77.77,0,0,0,.82-.79c0-.47-.34-.62-.81-.83a3.15,3.15,0,0,1-1.21-.73,1.08,1.08,0,0,1-.22-.73,1.34,1.34,0,0,1,1.45-1.39,1.43,1.43,0,0,1,1.36.9Z"></path><path class="cls-2" d="M82.39,116.67l3.4-3.43H87L83.25,117l3.86,4.27H85.89l-3.27-3.67-.23.23v3.44H81.5v-8h.89Z"></path><path class="cls-2" d="M89.13,113.77a.61.61,0,0,1,.62.61.62.62,0,0,1-1.23,0A.61.61,0,0,1,89.13,113.77Zm.43,2.49v5H88.7v-5Z"></path><path class="cls-2" d="M93.85,117.41a.76.76,0,0,0-.7-.5.55.55,0,0,0-.6.56c0,.36.24.47.81.71a3,3,0,0,1,1.24.77,1.16,1.16,0,0,1,.27.8,1.59,1.59,0,0,1-1.72,1.63,1.78,1.78,0,0,1-1.74-1.27l.75-.31a1.11,1.11,0,0,0,1,.81.77.77,0,0,0,.82-.79c0-.47-.34-.62-.8-.83a3.21,3.21,0,0,1-1.22-.73,1.08,1.08,0,0,1-.22-.73,1.34,1.34,0,0,1,1.45-1.39,1.45,1.45,0,0,1,1.37.9Z"></path><path class="cls-2" d="M100.44,116.26h.86v5h-.86v-.7a2.12,2.12,0,0,1-1.71.84,2.63,2.63,0,0,1,0-5.24,2.08,2.08,0,0,1,1.71.83Zm-3.24,2.48a1.66,1.66,0,0,0,1.63,1.87,1.86,1.86,0,0,0,0-3.7A1.65,1.65,0,0,0,97.2,118.74Z"></path><path class="cls-2" d="M110.72,114.82a2,2,0,0,0-.47-.6,1.44,1.44,0,0,0-.9-.27,1.22,1.22,0,0,0-1.34,1.23.85.85,0,0,0,.3.7,2.57,2.57,0,0,0,.84.5l.77.34a4,4,0,0,1,1.23.75,1.93,1.93,0,0,1,.58,1.45,2.57,2.57,0,0,1-4.27,1.81,2.86,2.86,0,0,1-.75-1.41l.87-.24a1.87,1.87,0,0,0,.48,1,1.63,1.63,0,0,0,2.75-1.14,1.2,1.2,0,0,0-.39-.94,3.63,3.63,0,0,0-1-.55l-.72-.33a3.89,3.89,0,0,1-1.07-.66,1.66,1.66,0,0,1-.55-1.31,2.06,2.06,0,0,1,2.24-2.06,2.14,2.14,0,0,1,1.29.36,2.45,2.45,0,0,1,.78.88Z"></path><path class="cls-2" d="M113.43,118.77a2.64,2.64,0,1,1,2.64,2.61A2.56,2.56,0,0,1,113.43,118.77Zm.89,0a1.75,1.75,0,1,0,1.75-1.86A1.72,1.72,0,0,0,114.32,118.77Z"></path><path class="cls-2" d="M120.63,116.26h.87v.53a1.42,1.42,0,0,1,1.23-.65,1.52,1.52,0,0,1,1.36.8,1.66,1.66,0,0,1,1.49-.8c1.48,0,1.62,1.24,1.62,1.94v3.16h-.86v-3c0-.57-.07-1.31-.89-1.31-1,0-1.1,1-1.1,1.56v2.77h-.86v-2.95c0-.35,0-1.38-.9-1.38s-1.09,1-1.09,1.62v2.71h-.87Z"></path><path class="cls-2" d="M133.27,116.26h.86v5h-.86v-.7a2.12,2.12,0,0,1-1.71.84,2.63,2.63,0,0,1,0-5.24,2.08,2.08,0,0,1,1.71.83ZM130,118.74a1.66,1.66,0,0,0,1.63,1.87,1.86,1.86,0,0,0,0-3.7A1.65,1.65,0,0,0,130,118.74Z"></path><path class="cls-3" d="M20.35,96.11a6.5,6.5,0,0,1-3.05.7,6.19,6.19,0,0,1-4.51-1.67,5.94,5.94,0,0,1-2-4.59,6.21,6.21,0,0,1,2-4.7,6.39,6.39,0,0,1,4.53-1.59,6.38,6.38,0,0,1,3,.74v2.74a4,4,0,0,0-3-1.35,4.15,4.15,0,0,0,.09,8.3,3.78,3.78,0,0,0,2.89-1.32Z"></path><path class="cls-3" d="M28.07,84.53l3.29,8.07,3.29-8.07h2.62l-5.21,12H30.62l-5.18-12Z"></path><path class="cls-2" d="M68,96.46V80.93h2.28v6h7.06V89H70.32v7.49h8.56v2.08H60.52V96.46Z"></path><path class="cls-2" d="M84.94,97.8V99H82.78V82.61H98.66V99H96.42V97.8Zm4.52-8.75v-4.4H84.94v4.4Zm0,6.69V91.07H84.94v4.67Zm7-6.69v-4.4H91.66v4.4Zm0,6.69V91.07H91.66v4.67Z"></path><path class="cls-2" d="M126.22,89.75v3.79H112.38a14.65,14.65,0,0,1-1.8,5.94l-2-1.06a12.92,12.92,0,0,0,1.78-7.19V87.29H117v-.6h-1.66V84.47h-3.6v2.22h-1.7V83.33h7v2.78H119V83.33h7.2v3.36h-1.78V84.47h-3.68v2.22h-1.62v.6H127v1.48h-5.56v1Zm-8.66-8.42v1.36h-8.44V81.33Zm-4.18,16.39v-4.1h2v.94h3.46V96H115.4v1.56l3.54-.32,0,1.44c-2,.26-5.06.6-6.82.78-.12-.5-.22-1-.38-1.64C112.22,97.8,112.78,97.78,113.38,97.72ZM115,92.21V91.05h-2.5v.18c0,.34,0,.66,0,1Zm0-2.46v-1h-2.5v1Zm-.74-4.82v1.7h-1.38v-1.7Zm5.28,4.82v-1h-2.62v1Zm0,2.46V91.05h-2.62v1.16Zm7.6-10.88v1.36h-8.8V81.33Zm-1,13.87a21.89,21.89,0,0,1-4.6,1.22v.24c0,.74.16.86.82.88h2.3c.68,0,.74-.08.78-1.1l1.94.34c-.2,2.16-.58,2.46-2.56,2.48-.78,0-2,0-2.68,0-2.2-.06-2.64-.52-2.64-2.58V93.62h2v1.32a17.7,17.7,0,0,0,3.74-1Zm-2-3V91.05h-2.62v1.16Zm-.82-7.28v1.7H121.9v-1.7Z"></path><path class="cls-2" d="M143.44,89.87h-8.62V88.69a16.72,16.72,0,0,1-3.92,2L129.56,89a12.7,12.7,0,0,0,6.1-3.8h-5.58V83.45h6.76a12.19,12.19,0,0,0,1-2.52l2.22.12a17,17,0,0,1-.86,2.4h9v1.78h-5.84a10.81,10.81,0,0,0,6.3,3.56l-1.3,1.82a15.5,15.5,0,0,1-3.88-1.76Zm-7.22,4.73a15.15,15.15,0,0,1-4,4.16l-2-1a14.09,14.09,0,0,0,4-4Zm3.94,3c0,1.08-.34,1.7-1.26,1.84a16.84,16.84,0,0,1-2.9,0l-.4-2a17.09,17.09,0,0,0,1.94,0c.28,0,.38-.14.38-.38v-4H131V91.35h16.12v1.82h-7Zm2.28-9.47a10.54,10.54,0,0,1-2.48-2.9H138.2a12.1,12.1,0,0,1-2.64,2.9Zm1.3,5.61a44.73,44.73,0,0,1,4.14,4c-2,.9-2,.92-2.08,1a41.85,41.85,0,0,0-3.9-4Z"></path><path class="cls-2" d="M15.4,4.32V0h6.48V4.32H33.7V0h6.6V4.32H55.84v5.4H40.3v3.06H33.7V9.72H21.88V12.9H15.4V9.72H.16V4.32Zm9,36.12V36.66H8.56V14.16H47.5v22.5H31.12v3.78H55.84V46H31.12v9.78H24.4V46H.16V40.44ZM15,23.28H40.84v-4H15Zm0,8.34H40.84V27.48H15Z"></path><path class="cls-2" d="M72.82,4.38H88.54V.06H95.2V4.38h23.58V9.3h-46V19.92c0,11.88-1.14,24.36-5,35.46L62.2,52.14c3.6-9.9,4.56-20.94,4.56-32.16V4.38h6.06ZM91.9,41.46v-3.3H76.3V33.84H91.9V30.9c-4.62.3-9.12.42-12.9.36-.42-1.26-.9-2.46-1.44-4,9.72.36,24.42-.78,31.86-2.46l2.1,3.84a128,128,0,0,1-12.9,1.74v3.48H114v4.32H98.62v3.3h20v4.62h-20v4.14c0,3.06-1,4.86-3.72,5.28a56.46,56.46,0,0,1-8.7.18l-1-5.28c1.92.12,4.68.06,5.52.06s1.2-.48,1.2-1.26V46.08H72V41.46ZM94.72,21.6,92.32,25c-1.26-1.08-3.06-2.58-5-4v4.26H82v-4.2a32.65,32.65,0,0,1-6.3,5.1L73,22.5a26,26,0,0,0,8.28-5.64H74.62V13.08H82v-2.7h5.34v2.7h7.38v3.78H87.34v.3C90,18.66,93,20.46,94.72,21.6Zm2.82,4.08-2.64-3.6a22.44,22.44,0,0,0,8-5.22H96.58V13.08H104v-2.7h5.34v2.7H118v3.78h-7.74a25.49,25.49,0,0,0,8.76,5.4L116.2,26.1a31.21,31.21,0,0,1-6.9-5.22v3.9H104V20.7A26.1,26.1,0,0,1,97.54,25.68Z"></path><path class="cls-2" d="M169.66,31.86c-1.62,1.92-2.88,3.6-4.2,5.28-1-2.46-2.58-5.76-4.26-9.06V55.74h-6.6V32.82A73,73,0,0,1,149,44.28l-4.68-4.92a67.09,67.09,0,0,0,10.2-21.42h-9.18v-6h9.24V.06h6.6V11.94h8.34v6H161.2v1.62C164.32,23.88,167.68,28.74,169.66,31.86Zm4.86-10.14h16.74V8.34H170.44V2.28h27.42v25.5H177.1V43.44c0,3.78.84,4.38,3.78,4.44,2.76.06,7.2.06,10.14,0s3.36-.54,3.54-7.56L201,41.4c-.84,11.52-2.1,12.84-9.54,13-3.36.06-8.16.06-11.28,0-7.86-.18-9.78-2.16-9.78-11V21.72Z"></path><path class="cls-2" d="M227,55.74h-6.12V32.28c-3.54.36-7,.66-9.48.9l-1.08-5.76,3.36-.18c1.74-2.16,3.42-4.38,5-6.6a62.14,62.14,0,0,0-7.8-8.22L214.06,8l1.62,1.44A77.07,77.07,0,0,0,221,.06l5.4,2.28a99.93,99.93,0,0,1-7,10.86c.9,1,1.74,1.92,2.52,2.82a113.1,113.1,0,0,0,6.48-10.56L234.1,8a195.91,195.91,0,0,1-13.5,18.84c2.64-.12,5.34-.3,7.8-.42a43.5,43.5,0,0,0-3.06-4.8l4.8-2.58a40.3,40.3,0,0,1,4,6.42A52.75,52.75,0,0,0,239,9.9L244.6,11A61.31,61.31,0,0,1,239,29l-3.9-1.44A21.47,21.47,0,0,1,236.5,31l-5,2.64c-.24-.78-.54-1.56-.84-2.4l-3.66.36ZM219.16,36a55.5,55.5,0,0,1-3.48,15.78l-5.34-1.86a46.71,46.71,0,0,0,3.42-14.82Zm14.64-1.32a57,57,0,0,1,2.82,11.76l-5.52,1.44a54.47,54.47,0,0,0-2.64-11.76ZM264,31c-4,12.6-12.84,20.16-25.68,24.66L233.62,51c12.6-3.72,20.64-9.9,24.42-22ZM253.6.06V30.84c0,3.24-.9,5-3.72,5.58a51.4,51.4,0,0,1-7.08.18c-1.08-5.58-1.08-5.7-1.08-5.82a38.22,38.22,0,0,0,4.44.06c.84-.06,1.08-.42,1.08-1.2V.06Zm8,9.18a89.28,89.28,0,0,1,5.4,17.4l-6.12,1.86a82.92,82.92,0,0,0-4.74-17.76Z"></path></g></g></svg>