<svg viewbox="0 0 264.28 121.31" xmlns="http://www.w3.org/2000/svg"><defs><style>.cls-1{fill:#cc9f95;}.cls-2{fill:#323232;}.cls-3{fill:#fff;}</style></defs><g data-name="レイヤー 2" id="レイヤー_2"><g id="レイアウト"><rect class="cls-1" height="20" width="50" y="80.71"></rect><path class="cls-2" d="M3.48,117.73.85,113.17h1l2,3.57L6,113.17H7l-2.65,4.56v3.44H3.48Z"></path><path class="cls-2" d="M9.4,119.09a1.7,1.7,0,0,0,.24,1.07,1,1,0,0,0,.87.38,1.07,1.07,0,0,0,.88-.38,1.7,1.7,0,0,0,.24-1.07v-2.9h.86v3a2,2,0,0,1-.46,1.5,2.17,2.17,0,0,1-3,0,2,2,0,0,1-.46-1.5v-3H9.4Z"></path><path class="cls-2" d="M15.59,119.09a1.7,1.7,0,0,0,.24,1.07,1,1,0,0,0,.87.38,1.06,1.06,0,0,0,.88-.38,1.7,1.7,0,0,0,.24-1.07v-2.9h.86v3a2,2,0,0,1-.45,1.5,2.13,2.13,0,0,1-1.53.62,2.1,2.1,0,0,1-1.52-.62,2,2,0,0,1-.46-1.5v-3h.87Z"></path><path class="cls-2" d="M21.35,113.7a.61.61,0,0,1,.61.61.62.62,0,0,1-.61.61.61.61,0,0,1-.61-.61A.61.61,0,0,1,21.35,113.7Zm.43,2.49v5h-.86v-5Z"></path><path class="cls-2" d="M27.91,117.58a2,2,0,0,0-1.56-.74,1.85,1.85,0,0,0,0,3.7,2.11,2.11,0,0,0,1.61-.78v1a2.7,2.7,0,0,1-1.59.51,2.55,2.55,0,0,1-2.66-2.6,2.58,2.58,0,0,1,2.66-2.64,2.64,2.64,0,0,1,1.55.48Z"></path><path class="cls-2" d="M29.87,112.42h.86v4.35a1.75,1.75,0,0,1,1.43-.7,1.7,1.7,0,0,1,1.43.68,2.23,2.23,0,0,1,.28,1.33v3.09H33v-3.06a1.42,1.42,0,0,0-.23-.91,1,1,0,0,0-.81-.36,1.09,1.09,0,0,0-.88.38,2.13,2.13,0,0,0-.36,1.34v2.61h-.86Z"></path><path class="cls-2" d="M36.54,113.7a.61.61,0,0,1,.61.61.61.61,0,1,1-1.22,0A.61.61,0,0,1,36.54,113.7Zm.43,2.49v5h-.86v-5Z"></path><path class="cls-2" d="M39.2,116.19h.87v.54a1.37,1.37,0,0,1,1.12-.66,1.9,1.9,0,0,1,.77.2l-.41.78a.87.87,0,0,0-.5-.16.85.85,0,0,0-.7.31,2.19,2.19,0,0,0-.28,1.34v2.63H39.2Z"></path><path class="cls-2" d="M43,118.7a2.64,2.64,0,1,1,2.64,2.61A2.56,2.56,0,0,1,43,118.7Zm.89,0a1.75,1.75,0,1,0,1.75-1.86A1.72,1.72,0,0,0,43.93,118.7Z"></path><path class="cls-2" d="M51.11,119.09a1.7,1.7,0,0,0,.24,1.07,1,1,0,0,0,.87.38,1.06,1.06,0,0,0,.88-.38,1.7,1.7,0,0,0,.24-1.07v-2.9h.86v3a2,2,0,0,1-.45,1.5,2.13,2.13,0,0,1-1.53.62,2.1,2.1,0,0,1-1.52-.62,2,2,0,0,1-.46-1.5v-3h.87Z"></path><path class="cls-2" d="M60.93,118.07a2.28,2.28,0,0,0,.64,2,2.26,2.26,0,0,0,1.32.45,2.28,2.28,0,0,0,1.32-.45,2.31,2.31,0,0,0,.63-2v-4.9h.89v5.14a3.11,3.11,0,0,1-.5,1.92,3.08,3.08,0,0,1-4.68,0,3.11,3.11,0,0,1-.5-1.92v-5.14h.88Z"></path><path class="cls-2" d="M68.18,116.19h.87v.53a1.42,1.42,0,0,1,1.23-.65,1.52,1.52,0,0,1,1.36.8,1.67,1.67,0,0,1,1.5-.8c1.47,0,1.61,1.24,1.61,1.94v3.16h-.86v-3c0-.56-.07-1.3-.89-1.3-1,0-1.1,1-1.1,1.56v2.77H71v-3c0-.35,0-1.38-.9-1.38s-1.09,1-1.09,1.62v2.71h-.87Z"></path><path class="cls-2" d="M81.42,119.9a3.08,3.08,0,0,1-.62.8,2.57,2.57,0,1,1-1.7-4.63A2.23,2.23,0,0,1,81,117a3.24,3.24,0,0,1,.47,1.87H77.58a1.59,1.59,0,0,0,1.58,1.69,1.51,1.51,0,0,0,1-.36,2,2,0,0,0,.52-.68Zm-.86-1.77a1.48,1.48,0,0,0-1.46-1.29,1.51,1.51,0,0,0-1.46,1.29Z"></path><path class="cls-2" d="M83.37,112.42h.87v4.35a1.73,1.73,0,0,1,1.43-.7,1.69,1.69,0,0,1,1.42.68,2.23,2.23,0,0,1,.29,1.33v3.09h-.86v-3.06a1.48,1.48,0,0,0-.23-.91,1,1,0,0,0-.82-.36,1.07,1.07,0,0,0-.87.38,2.07,2.07,0,0,0-.36,1.34v2.61h-.87Z"></path><path class="cls-2" d="M93.43,116.19h.86v5h-.86v-.7a2.12,2.12,0,0,1-1.71.84,2.63,2.63,0,0,1,0-5.24,2.08,2.08,0,0,1,1.71.83Zm-3.24,2.48a1.66,1.66,0,0,0,1.63,1.87,1.7,1.7,0,0,0,1.66-1.86,1.68,1.68,0,0,0-1.66-1.84A1.65,1.65,0,0,0,90.19,118.67Z"></path><path class="cls-2" d="M96.53,116.19h.86v.54a1.39,1.39,0,0,1,1.13-.66,1.9,1.9,0,0,1,.76.2l-.4.78a.92.92,0,0,0-.51-.16.83.83,0,0,0-.69.31,2.1,2.1,0,0,0-.29,1.34v2.63h-.86Z"></path><path class="cls-2" d="M104.49,116.19h.87v5h-.87v-.7a2.11,2.11,0,0,1-1.7.84,2.63,2.63,0,0,1,0-5.24,2.06,2.06,0,0,1,1.7.83Zm-3.24,2.48a1.66,1.66,0,0,0,1.63,1.87,1.7,1.7,0,0,0,1.66-1.86,1.68,1.68,0,0,0-1.66-1.84A1.65,1.65,0,0,0,101.25,118.67Z"></path><path class="cls-2" d="M114.8,116.19h.86v5h-.86v-.7a2.11,2.11,0,0,1-1.7.84,2.63,2.63,0,0,1,0-5.24,2.06,2.06,0,0,1,1.7.83Zm-3.24,2.48a1.66,1.66,0,0,0,1.63,1.87,1.7,1.7,0,0,0,1.66-1.86,1.68,1.68,0,0,0-1.66-1.84A1.65,1.65,0,0,0,111.56,118.67Z"></path><path class="cls-2" d="M120,117.34a.76.76,0,0,0-.7-.5.55.55,0,0,0-.6.56c0,.36.24.47.81.71a3,3,0,0,1,1.24.77,1.14,1.14,0,0,1,.27.8,1.59,1.59,0,0,1-1.72,1.63,1.78,1.78,0,0,1-1.74-1.27l.75-.31a1.11,1.11,0,0,0,1,.81.77.77,0,0,0,.82-.79c0-.47-.34-.62-.8-.83a3.07,3.07,0,0,1-1.21-.73,1,1,0,0,1-.23-.73,1.34,1.34,0,0,1,1.45-1.39,1.45,1.45,0,0,1,1.37.9Z"></path><path class="cls-2" d="M127.22,116.6l3.41-3.43h1.2l-3.75,3.73,3.87,4.27h-1.23l-3.27-3.67-.23.23v3.44h-.89v-8h.89Z"></path><path class="cls-2" d="M134.4,119.09a1.7,1.7,0,0,0,.24,1.07,1,1,0,0,0,.87.38,1.06,1.06,0,0,0,.88-.38,1.7,1.7,0,0,0,.24-1.07v-2.9h.86v3a2,2,0,0,1-.45,1.5,2.13,2.13,0,0,1-1.53.62,2.1,2.1,0,0,1-1.52-.62,2,2,0,0,1-.46-1.5v-3h.87Z"></path><path class="cls-2" d="M139.72,116.19h.87v.54a1.37,1.37,0,0,1,1.13-.66,1.9,1.9,0,0,1,.76.2l-.4.78a.92.92,0,0,0-.51-.16.81.81,0,0,0-.69.31,2.1,2.1,0,0,0-.29,1.34v2.63h-.87Z"></path><path class="cls-2" d="M148.29,119.9a3,3,0,0,1-.61.8,2.42,2.42,0,0,1-1.66.61,2.38,2.38,0,0,1-2.46-2.6,2.42,2.42,0,0,1,2.42-2.64,2.23,2.23,0,0,1,1.88.91,3.4,3.4,0,0,1,.47,1.87h-3.88a1.59,1.59,0,0,0,1.59,1.69,1.49,1.49,0,0,0,1-.36,2,2,0,0,0,.52-.68Zm-.85-1.77a1.49,1.49,0,0,0-1.46-1.29,1.51,1.51,0,0,0-1.47,1.29Z"></path><path class="cls-2" d="M150.25,116.19h.86v.58a1.75,1.75,0,0,1,1.43-.7,1.7,1.7,0,0,1,1.43.68,2.23,2.23,0,0,1,.28,1.33v3.09h-.86v-3.06a1.42,1.42,0,0,0-.23-.91,1,1,0,0,0-.81-.36,1.09,1.09,0,0,0-.88.38,2.13,2.13,0,0,0-.36,1.34v2.61h-.86Z"></path><path class="cls-2" d="M156.18,118.7a2.64,2.64,0,1,1,2.63,2.61A2.55,2.55,0,0,1,156.18,118.7Zm.88,0a1.76,1.76,0,1,0,1.75-1.86A1.72,1.72,0,0,0,157.06,118.7Z"></path><path class="cls-2" d="M170.56,114.75a1.87,1.87,0,0,0-.47-.6,1.42,1.42,0,0,0-.9-.27,1.22,1.22,0,0,0-1.34,1.23.88.88,0,0,0,.3.7,2.57,2.57,0,0,0,.84.5l.77.34a3.79,3.79,0,0,1,1.23.75,1.93,1.93,0,0,1,.58,1.45,2.57,2.57,0,0,1-4.27,1.81,2.77,2.77,0,0,1-.74-1.41l.86-.24a1.87,1.87,0,0,0,.48,1,1.64,1.64,0,0,0,2.76-1.14,1.21,1.21,0,0,0-.4-.94,3.63,3.63,0,0,0-1-.55l-.72-.33a3.85,3.85,0,0,1-1.06-.66,1.67,1.67,0,0,1-.56-1.31,2.07,2.07,0,0,1,2.25-2.06,2.13,2.13,0,0,1,1.28.36,2.45,2.45,0,0,1,.78.88Z"></path><path class="cls-2" d="M173.28,118.7a2.64,2.64,0,1,1,2.63,2.61A2.55,2.55,0,0,1,173.28,118.7Zm.88,0a1.76,1.76,0,1,0,1.75-1.86A1.72,1.72,0,0,0,174.16,118.7Z"></path><path class="cls-2" d="M180.48,116.19h.86v.53a1.45,1.45,0,0,1,1.24-.65,1.51,1.51,0,0,1,1.35.8,1.67,1.67,0,0,1,1.5-.8c1.47,0,1.62,1.24,1.62,1.94v3.16h-.86v-3c0-.56-.08-1.3-.89-1.3-1,0-1.11,1-1.11,1.56v2.77h-.86v-3c0-.35,0-1.38-.9-1.38s-1.09,1-1.09,1.62v2.71h-.86Z"></path><path class="cls-2" d="M193.11,116.19H194v5h-.86v-.7a2.11,2.11,0,0,1-1.7.84,2.63,2.63,0,0,1,0-5.24,2.06,2.06,0,0,1,1.7.83Zm-3.24,2.48a1.66,1.66,0,0,0,1.63,1.87,1.7,1.7,0,0,0,1.66-1.86,1.68,1.68,0,0,0-1.66-1.84A1.65,1.65,0,0,0,189.87,118.67Z"></path><path class="cls-3" d="M20.35,96.06a6.63,6.63,0,0,1-3.05.7,6.16,6.16,0,0,1-4.51-1.68,5.9,5.9,0,0,1-2-4.58,6.21,6.21,0,0,1,2-4.7,6.43,6.43,0,0,1,4.53-1.58,6.27,6.27,0,0,1,3,.74v2.73a4,4,0,0,0-3-1.35,4.15,4.15,0,0,0,.1,8.29,3.76,3.76,0,0,0,2.88-1.31Z"></path><path class="cls-3" d="M28.07,84.49l3.29,8.06,3.29-8.06h2.62l-5.21,12H30.62l-5.18-12Z"></path><path class="cls-2" d="M78.88,94.58v1.84H77.24a5.2,5.2,0,0,1-.72,2.6,2.2,2.2,0,0,1-1.5.46c-.38,0-1.24,0-1.72,0l-.24-1.82c.4,0,1.08,0,1.38,0a.56.56,0,0,0,.42-.14,2.52,2.52,0,0,0,.32-1.1H69.06c-.06.36-.1.7-.16,1l-2.06-.1c.24-1.36.52-3.28.76-5.3H66.4V90.86L65.76,92c-.22-.6-.5-1.38-.84-2.17v9.61h-2.1V91.78a32.86,32.86,0,0,1-1.62,4l-1.1-2.24a24.69,24.69,0,0,0,2.7-6.67H60.44V85h2.38V80.91h2.1V85H66.6v1.16a15.1,15.1,0,0,0,2.28-5.24l2,.42c-.1.44-.22.88-.36,1.3H79v1.86H69.86a14.74,14.74,0,0,1-.68,1.38h8.68c0,1.58-.1,3-.16,4.3H79V92H77.6c0,.94-.1,1.8-.16,2.56ZM67.82,90.15c.1-.88.2-1.76.28-2.6l-.08.1-1.42-.76H64.92v.18c.7,1.08,1.46,2.26,1.9,3l0,.05Zm3.48,4.43c.08-.76.18-1.64.28-2.56H69.64c-.1.88-.22,1.74-.32,2.56Zm.44-4.43c.08-.84.14-1.68.18-2.44h-1.8c-.08.78-.16,1.62-.26,2.44Zm3.64,4.43c.06-.72.12-1.58.16-2.56H73.46c-.1.92-.18,1.8-.28,2.56Zm.24-4.43c0-.76.06-1.58.1-2.44H73.8c0,.78-.1,1.6-.18,2.44Z"></path><path class="cls-2" d="M93.38,97.62c0,1-.32,1.62-1.24,1.78a15.22,15.22,0,0,1-2.76,0L89,97.56a14.32,14.32,0,0,0,1.78,0c.26,0,.36-.14.36-.38V92.6H86.6V85.23h4c.18-.6.34-1.22.46-1.76h-6V88a26.71,26.71,0,0,1-1.94,11l-1.92-1.12A23,23,0,0,0,83,88V81.59h16.8v1.88H93.54c-.2.54-.42,1.16-.68,1.76h5.26V92.6H93.38Zm-3.76-3.68a14.41,14.41,0,0,1-3.22,4.64l-1.86-.88a13,13,0,0,0,3.12-4.4Zm-.9-5.69h7.22v-1.4H88.72Zm0,2.71h7.22V89.55H88.72Zm8,2.22a22.61,22.61,0,0,1,3,4.46l-2,.82A20.56,20.56,0,0,0,94.92,94Z"></path><path class="cls-2" d="M113.58,99.44h-2.1V93a18.46,18.46,0,0,1-1.78,1.76l-1.18-1.68a16.86,16.86,0,0,0,5-7h-4.58V84.23h2.56V80.91h2.1v3.32h1.22l1.18.48a20.75,20.75,0,0,1-2.26,5.23c.18.23.36.44.54.66a14.67,14.67,0,0,0,1.22-2.07l1.12.76A20.63,20.63,0,0,1,115,91.54c.48.6.92,1.16,1.22,1.6l-1.32,1.34a26.3,26.3,0,0,0-1.34-2.32Zm5.7-.66v.66H117.2V92.82a4.85,4.85,0,0,1-.4.28l-1.12-2a14.7,14.7,0,0,0,5.06-5.59h1.86A16,16,0,0,0,127.78,91l-1.18,2a2.86,2.86,0,0,1-.3-.22v6.64h-2.16v-.66Zm1.42-16.93a14.18,14.18,0,0,1-2.8,4.46l-1.78-.8a13.13,13.13,0,0,0,2.7-4.26Zm3.9,9.51a19.38,19.38,0,0,1-2.92-3.61,19,19,0,0,1-2.8,3.61Zm-.46,5.54V93.22h-4.86V96.9Zm.32-15.71a23,23,0,0,1,2.9,4.32l-2,.74a21.19,21.19,0,0,0-2.66-4.34Z"></path><path class="cls-2" d="M148.4,88.81v2.31H129.84V88.81Z"></path><path class="cls-2" d="M151.78,96V83.05h3V80.91H157v2.14h3.08V91H153.9v4.5c1.22-.3,2.5-.62,3.62-.92a23.6,23.6,0,0,0-1.18-2.36l1.86-.76a20.19,20.19,0,0,1,2.52,5.7l-2.14.84a14,14,0,0,0-.42-1.7c-2.18.7-5.14,1.6-6.92,2.1l-.62-2.14C151,96.18,151.36,96.08,151.78,96Zm6.16-9.81V84.79h-4v1.38Zm-4,1.62v1.44h4V87.79Zm13.76-6.14h.48l1.18.44c-.8,2-1.68,4.22-2.64,6.4,1.74,1.85,2.44,3.15,2.44,4.57,0,1.66-.5,3.28-2,3.58a11.11,11.11,0,0,1-2.5.1l-.4-2.14a7.32,7.32,0,0,0,1.6,0c.84-.1,1-.76,1-1.8s-.6-2.22-2.44-3.91c.68-1.82,1.3-3.6,1.82-5.2h-2.72V99.46h-2.2V81.65h6.32Z"></path><path class="cls-2" d="M15.4,4.32V0h6.48V4.32H33.7V0h6.6V4.32H55.84V9.71H40.3v3.06H33.7V9.71H21.88v3.18H15.4V9.71H.16V4.32Zm9,36.1V36.64H8.56V14.15H47.5V36.64H31.12v3.78H55.84v5.52H31.12v9.77H24.4V45.94H.16V40.42ZM15,23.27H40.84v-4H15Zm0,8.33H40.84V27.47H15Z"></path><path class="cls-2" d="M72.82,4.38H88.54V.06H95.2V4.38h23.58V9.29h-46V19.91c0,11.87-1.14,24.35-5,35.44L62.2,52.11c3.6-9.89,4.56-20.93,4.56-32.14V4.38h6.06ZM91.9,41.44v-3.3H76.3V33.82H91.9V30.88c-4.62.3-9.12.42-12.9.36-.42-1.26-.9-2.46-1.44-4,9.72.35,24.42-.78,31.86-2.46l2.1,3.83a128,128,0,0,1-12.9,1.74v3.48H114v4.32H98.62v3.3h20v4.61h-20v4.14c0,3.06-1,4.86-3.72,5.28a56.46,56.46,0,0,1-8.7.18l-1-5.28c1.92.12,4.68.06,5.52.06s1.2-.48,1.2-1.26V46.05H72V41.44Zm2.82-19.85L92.32,25c-1.26-1.08-3.06-2.58-5-4v4.26H82v-4.2a32.65,32.65,0,0,1-6.3,5.1L73,22.49a26,26,0,0,0,8.28-5.64H74.62V13.07H82v-2.7h5.34v2.7h7.38v3.78H87.34v.3C90,18.65,93,20.45,94.72,21.59Zm2.82,4.08-2.64-3.6a22.44,22.44,0,0,0,8-5.22H96.58V13.07H104v-2.7h5.34v2.7H118v3.78h-7.74a25.49,25.49,0,0,0,8.76,5.4l-2.82,3.84a31.21,31.21,0,0,1-6.9-5.22v3.9H104V20.69A26.1,26.1,0,0,1,97.54,25.67Z"></path><path class="cls-2" d="M154.3,36a56.08,56.08,0,0,1-3.9,15.89l-5.52-2a44.77,44.77,0,0,0,3.84-14.81Zm27.42,11.93V9.24H170.38v-.9a208.1,208.1,0,0,1-13.92,18.35c2.88-.12,5.82-.3,8.52-.48a51.35,51.35,0,0,0-3.06-4.62L167,19a47.34,47.34,0,0,1,6.72,12l-5.34,2.64q-.36-1.17-.9-2.52l-4.74.54V55.71h-6.6V32.26c-3.72.36-7.26.66-10,.9l-1.2-5.87,4.08-.18c1.74-2.1,3.48-4.32,5.16-6.48a61.26,61.26,0,0,0-8.64-8.52l3.66-4.19c.54.42,1.08.9,1.62,1.32A70.84,70.84,0,0,0,156.46.06l6,2.52A96.26,96.26,0,0,1,155,13.19c1,1,1.86,1.92,2.64,2.76,2.76-3.84,5.16-7.43,6.84-10.37l5.88,2.7v-5H199.6V9.24H188.26V47.91H201v6H168.16v-6ZM170.14,34.24A51.1,51.1,0,0,1,173,45.4l-5.82,1.49a50.58,50.58,0,0,0-2.64-11.15Z"></path><path class="cls-2" d="M219.88,38.86H209.56V33.58h10.32v-5.4h-10V1.56h26.7V28.18h-10.5v5.4H237v5.28H226.12v6.3l11.7-1.5.18,4.85c-8.4,1.5-21.48,3.42-29,4.5l-1.26-5.88c3.12-.3,7.5-.72,12.12-1.25Zm.36-32.14h-4.8v5.63h4.8Zm0,10.49h-4.8V23h4.8Zm5.58-4.86h5.1V6.72h-5.1Zm0,10.68h5.1V17.21h-5.1Zm22.26,32.5a53.36,53.36,0,0,1-7.8.12l-1.14-6.12c1.86.12,4.56.12,5.34.06,1-.06,1.2-.48,1.2-1.26V26.27h-7.8V20.93h10.86a59.57,59.57,0,0,0-9.24-8.7L243.28,9c1.92,1.37,3.66,2.81,5.22,4.13a54.51,54.51,0,0,0,5-6.11h-14.7V1.68H259.6l3.72,2.22A105.25,105.25,0,0,1,252.1,16.61a27,27,0,0,1,2.52,2.88l-1.92,1.44h8.46l3.12.24a102.54,102.54,0,0,1-4.86,15l-5.58-1.14c1.14-2.64,2.28-5.82,3.24-8.81h-5V49.71C252,53.07,251.08,55,248.08,55.53Z"></path></g></g></svg>