<svg viewbox="0 0 201.52 124" xmlns="http://www.w3.org/2000/svg"><defs><style>.cls-1{fill:#fac78a;}.cls-2{fill:#323232;}.cls-3{fill:#fff;}</style></defs><title>アセット 4</title><g data-name="レイヤー 2" id="レイヤー_2"><g id="レイアウト"><rect class="cls-1" height="20" width="50" y="80.59"></rect><path class="cls-2" d="M3.48,117.8.85,113.24h1l2,3.57L6,113.24H7L4.37,117.8v3.44H3.48Z"></path><path class="cls-2" d="M9.4,119.16a1.7,1.7,0,0,0,.24,1.07,1,1,0,0,0,.87.38,1.07,1.07,0,0,0,.88-.38,1.7,1.7,0,0,0,.24-1.07v-2.9h.86v3a2,2,0,0,1-.46,1.5,2.17,2.17,0,0,1-3,0,2,2,0,0,1-.46-1.5v-3H9.4Z"></path><path class="cls-2" d="M14.72,116.26h.87v.53a1.44,1.44,0,0,1,1.23-.65,1.52,1.52,0,0,1,1.36.8,1.67,1.67,0,0,1,1.5-.8c1.47,0,1.62,1.24,1.62,1.94v3.16h-.87v-3c0-.57-.07-1.31-.88-1.31-1,0-1.11,1-1.11,1.56v2.77h-.86v-2.95c0-.35,0-1.38-.9-1.38s-1.09,1-1.09,1.62v2.71h-.87Z"></path><path class="cls-2" d="M27.36,116.26h.86v5h-.86v-.7a2.11,2.11,0,0,1-1.7.84,2.63,2.63,0,0,1,0-5.24,2.07,2.07,0,0,1,1.7.83Zm-3.24,2.48a1.66,1.66,0,0,0,1.63,1.87,1.86,1.86,0,0,0,0-3.7A1.65,1.65,0,0,0,24.12,118.74Z"></path><path class="cls-2" d="M35,118.14a2.31,2.31,0,0,0,.63,2,2.28,2.28,0,0,0,1.32.45,2.26,2.26,0,0,0,1.32-.45,2.28,2.28,0,0,0,.64-2v-4.9h.88v5.14a3.09,3.09,0,0,1-.5,1.92,3.07,3.07,0,0,1-4.68,0,3.09,3.09,0,0,1-.5-1.92v-5.14H35Z"></path><path class="cls-2" d="M46.1,117.65a2,2,0,0,0-1.56-.74,1.85,1.85,0,0,0,0,3.7,2.1,2.1,0,0,0,1.61-.78v1a2.7,2.7,0,0,1-1.59.51,2.55,2.55,0,0,1-2.66-2.6,2.58,2.58,0,0,1,2.66-2.64,2.61,2.61,0,0,1,1.55.48Z"></path><path class="cls-2" d="M48.06,112.49h.86v4.35a1.75,1.75,0,0,1,1.43-.7,1.7,1.7,0,0,1,1.43.68,2.26,2.26,0,0,1,.29,1.34v3.08H51.2v-3.06a1.42,1.42,0,0,0-.23-.91,1,1,0,0,0-.81-.36,1.1,1.1,0,0,0-.88.38,2.16,2.16,0,0,0-.36,1.35v2.6h-.86Z"></path><path class="cls-2" d="M54.73,113.77a.61.61,0,0,1,.61.61.61.61,0,1,1-1.22,0A.61.61,0,0,1,54.73,113.77Zm.43,2.49v5H54.3v-5Z"></path><path class="cls-2" d="M61.21,112.49h.86v8.75h-.86v-.7a2.11,2.11,0,0,1-1.7.84,2.63,2.63,0,0,1,0-5.24,2.06,2.06,0,0,1,1.7.83ZM58,118.74a1.66,1.66,0,0,0,1.63,1.87,1.86,1.86,0,0,0,0-3.7A1.65,1.65,0,0,0,58,118.74Z"></path><path class="cls-2" d="M68.12,116.26H69v5h-.86v-.7a2.11,2.11,0,0,1-1.7.84,2.63,2.63,0,0,1,0-5.24,2.06,2.06,0,0,1,1.7.83Zm-3.24,2.48a1.66,1.66,0,0,0,1.63,1.87,1.86,1.86,0,0,0,0-3.7A1.65,1.65,0,0,0,64.88,118.74Z"></path><path class="cls-2" d="M78.43,116.26h.86v5h-.86v-.7a2.11,2.11,0,0,1-1.7.84,2.63,2.63,0,0,1,0-5.24,2.07,2.07,0,0,1,1.7.83Zm-3.24,2.48a1.66,1.66,0,0,0,1.63,1.87,1.86,1.86,0,0,0,0-3.7A1.65,1.65,0,0,0,75.19,118.74Z"></path><path class="cls-2" d="M83.58,117.41a.77.77,0,0,0-.7-.5.55.55,0,0,0-.6.56c0,.36.24.47.8.71a3,3,0,0,1,1.25.77,1.16,1.16,0,0,1,.27.8,1.59,1.59,0,0,1-1.72,1.63,1.78,1.78,0,0,1-1.74-1.27l.75-.31a1.11,1.11,0,0,0,1,.81.77.77,0,0,0,.82-.79c0-.47-.34-.62-.81-.83a3.15,3.15,0,0,1-1.21-.73,1.08,1.08,0,0,1-.22-.73,1.34,1.34,0,0,1,1.45-1.39,1.43,1.43,0,0,1,1.36.9Z"></path><path class="cls-2" d="M90.85,116.67l3.4-3.43h1.2L91.71,117l3.86,4.27H94.35l-3.27-3.67-.23.23v3.44H90v-8h.89Z"></path><path class="cls-2" d="M98.73,120.77l-2.29-4.51h1l1.77,3.56,1.62-3.56h1L98.11,124h-1Z"></path><path class="cls-2" d="M103,118.77a2.64,2.64,0,1,1,2.64,2.61A2.56,2.56,0,0,1,103,118.77Zm.89,0a1.75,1.75,0,1,0,1.75-1.86A1.72,1.72,0,0,0,103.86,118.77Z"></path><path class="cls-2" d="M117.35,114.82a1.82,1.82,0,0,0-.46-.6,1.47,1.47,0,0,0-.9-.27,1.23,1.23,0,0,0-1.35,1.23.88.88,0,0,0,.3.7,2.57,2.57,0,0,0,.84.5l.77.34a4,4,0,0,1,1.24.75,2,2,0,0,1,.57,1.45,2.57,2.57,0,0,1-4.27,1.81,2.93,2.93,0,0,1-.74-1.41l.86-.24a1.87,1.87,0,0,0,.48,1,1.64,1.64,0,0,0,2.76-1.14,1.21,1.21,0,0,0-.4-.94,3.47,3.47,0,0,0-1-.55l-.71-.33a3.75,3.75,0,0,1-1.07-.66,1.66,1.66,0,0,1-.55-1.31,2.06,2.06,0,0,1,2.24-2.06,2.11,2.11,0,0,1,1.28.36,2.36,2.36,0,0,1,.78.88Z"></path><path class="cls-2" d="M120.07,118.77a2.64,2.64,0,1,1,2.64,2.61A2.56,2.56,0,0,1,120.07,118.77Zm.89,0a1.75,1.75,0,1,0,1.75-1.86A1.72,1.72,0,0,0,121,118.77Z"></path><path class="cls-2" d="M127.27,116.26h.86v.53a1.45,1.45,0,0,1,1.24-.65,1.48,1.48,0,0,1,1.35.8,1.67,1.67,0,0,1,1.5-.8c1.48,0,1.62,1.24,1.62,1.94v3.16H133v-3c0-.57-.08-1.31-.89-1.31-1,0-1.1,1-1.1,1.56v2.77h-.87v-2.95c0-.35,0-1.38-.9-1.38s-1.09,1-1.09,1.62v2.71h-.86Z"></path><path class="cls-2" d="M139.9,116.26h.87v5h-.87v-.7a2.11,2.11,0,0,1-1.7.84,2.63,2.63,0,0,1,0-5.24,2.06,2.06,0,0,1,1.7.83Zm-3.24,2.48a1.66,1.66,0,0,0,1.63,1.87,1.86,1.86,0,0,0,0-3.7A1.65,1.65,0,0,0,136.66,118.74Z"></path><path class="cls-3" d="M20.35,96.11a6.5,6.5,0,0,1-3.05.7,6.19,6.19,0,0,1-4.51-1.67,5.94,5.94,0,0,1-2-4.59,6.21,6.21,0,0,1,2-4.7,6.39,6.39,0,0,1,4.53-1.59,6.38,6.38,0,0,1,3,.74v2.74a4,4,0,0,0-3-1.35,4.15,4.15,0,0,0,.09,8.3,3.78,3.78,0,0,0,2.89-1.32Z"></path><path class="cls-3" d="M28.07,84.53l3.29,8.07,3.29-8.07h2.62l-5.21,12H30.62l-5.18-12Z"></path><path class="cls-2" d="M74.46,95.16a9.91,9.91,0,0,1-4.72-5.07,12,12,0,0,1-4.62,5.19L63.7,94v5.51H61.48V84.31H68.3V80.93h2.26v3.38h7.36V97.06c0,1.4-.4,2.18-1.72,2.38a22.79,22.79,0,0,1-3.14,0L72.6,97.3a21.74,21.74,0,0,0,2.48,0c.46,0,.6-.26.6-.68V93.54ZM63.7,86.39v7.15C67,91.45,68.18,89,68.3,86.39Zm12,6.7v-6.7h-5C71.5,90,73.24,92.05,75.68,93.09Z"></path><path class="cls-2" d="M84.94,97.8V99H82.78V82.61H98.66V99H96.42V97.8Zm4.52-8.75v-4.4H84.94v4.4Zm0,6.69V91.07H84.94v4.67Zm7-6.69v-4.4H91.66v4.4Zm0,6.69V91.07H91.66v4.67Z"></path><path class="cls-2" d="M113.14,84.17H118V86h-5A49.92,49.92,0,0,1,110,98.66l-1.66-1.22A42.18,42.18,0,0,0,111,86h-2.16V84.17h2.32c.08-1.06.12-2.14.16-3.24l2,.2C113.28,82.15,113.22,83.17,113.14,84.17Zm-1.62,14.35-.52-2c.3,0,.64-.1,1-.18.74-3.09,1.38-6.63,1.7-9l2,.3c-.42,2.36-1.08,5.46-1.82,8.35.76-.14,1.52-.28,2.2-.42a29.82,29.82,0,0,0-.88-3l1.74-.54a29.18,29.18,0,0,1,1.48,6.15l-1.8.54c0-.42-.12-.9-.2-1.38C114.88,97.76,112.8,98.24,111.52,98.52Zm9,0v1h-2V89.31q-.48.72-1,1.44l-1.22-1.54A19.41,19.41,0,0,0,119.92,81l1.9.38a22.12,22.12,0,0,1-.9,3.18h1.58a35.78,35.78,0,0,0,.88-3.5l2,.42c-.26.9-.62,2-1,3.08h2.8v1.8h-2.62v2.22h2.3v1.76h-2.3v2.29h2.3v1.78h-2.3v2.3h2.86V98.5Zm0-10h2V86.31h-2Zm0,4h2V90.29h-2Zm2,4.08v-2.3h-2v2.3Z"></path><path class="cls-2" d="M133.82,93.86a16.66,16.66,0,0,1-2.08,4.82l-1.88-.74a13.2,13.2,0,0,0,2.1-4.56Zm12.36-3.15h1.42c-.46,5.23-1,8-1.94,8.49a3.37,3.37,0,0,1-1.52.32c-.52,0-1.72,0-2.4,0l-.3-2c.62,0,1.66.06,2.14,0a.78.78,0,0,0,.5-.12c.44-.24.84-1.8,1.16-4.92h-13V81.47h14.36v1.78H140.2v1.44h5.4v1.52h-5.4v1.48h5.4v1.52h-5.4v1.5h6Zm-8.16-6V83.25H134.5v1.44Zm0,3V86.21H134.5v1.48Zm0,3v-1.5H134.5v1.5Zm-1.5,2.88a19.6,19.6,0,0,1,.56,4.39l-2,.12a20.15,20.15,0,0,0-.36-4.32Zm3.08-.26a15.8,15.8,0,0,1,1.08,3.81l-1.86.32A15.44,15.44,0,0,0,138,93.7Zm3-.45A13.83,13.83,0,0,1,144,96.1l-1.7.46A13.58,13.58,0,0,0,141,93.38Z"></path><path class="cls-2" d="M15.4,4.32V0h6.48V4.32H33.7V0h6.6V4.32H55.84v5.4H40.3v3.06H33.7V9.72H21.88V12.9H15.4V9.72H.16V4.32Zm9,36.12V36.66H8.56V14.16H47.5v22.5H31.12v3.78H55.84V46H31.12v9.78H24.4V46H.16V40.44ZM15,23.28H40.84v-4H15Zm0,8.34H40.84V27.48H15Z"></path><path class="cls-2" d="M72.82,4.38H88.54V.06H95.2V4.38h23.58V9.3h-46V19.92c0,11.88-1.14,24.36-5,35.46L62.2,52.14c3.6-9.9,4.56-20.94,4.56-32.16V4.38h6.06ZM91.9,41.46v-3.3H76.3V33.84H91.9V30.9c-4.62.3-9.12.42-12.9.36-.42-1.26-.9-2.46-1.44-4,9.72.36,24.42-.78,31.86-2.46l2.1,3.84a128,128,0,0,1-12.9,1.74v3.48H114v4.32H98.62v3.3h20v4.62h-20v4.14c0,3.06-1,4.86-3.72,5.28a56.46,56.46,0,0,1-8.7.18l-1-5.28c1.92.12,4.68.06,5.52.06s1.2-.48,1.2-1.26V46.08H72V41.46ZM94.72,21.6,92.32,25c-1.26-1.08-3.06-2.58-5-4v4.26H82v-4.2a32.65,32.65,0,0,1-6.3,5.1L73,22.5a26,26,0,0,0,8.28-5.64H74.62V13.08H82v-2.7h5.34v2.7h7.38v3.78H87.34v.3C90,18.66,93,20.46,94.72,21.6Zm2.82,4.08-2.64-3.6a22.44,22.44,0,0,0,8-5.22H96.58V13.08H104v-2.7h5.34v2.7H118v3.78h-7.74a25.49,25.49,0,0,0,8.76,5.4L116.2,26.1a31.21,31.21,0,0,1-6.9-5.22v3.9H104V20.7A26.1,26.1,0,0,1,97.54,25.68Z"></path><path class="cls-2" d="M201.52,49.56l-4.44,6.18c-10.32-2.64-18.48-7.62-23.94-16.2C169.6,45.9,162.4,51.42,149,55.86l-4.08-5.64c19.68-5.82,24.42-13.5,24.42-23.4V14.7h-24V8.64h24V.12h6.78V8.64H201V14.7h-24.9V27c0,1-.06,2-.12,2.94C180.16,41.46,189.22,47.34,201.52,49.56Zm-34.2-18.42-5,3.24a61.06,61.06,0,0,0-5-6.9,34.3,34.3,0,0,1-6.78,8.1l-4.74-3.18A28.58,28.58,0,0,0,156,15.9l5.64.84a49.44,49.44,0,0,1-1.68,5.52A77.68,77.68,0,0,1,167.32,31.14Zm33.24.66-5.1,3.54a76.17,76.17,0,0,0-6.48-8,32.15,32.15,0,0,1-6.24,7.86L177.88,32a27.51,27.51,0,0,0,9.18-16.08l5.82.84a43.17,43.17,0,0,1-1.5,5.16A100.13,100.13,0,0,1,200.56,31.8Z"></path></g></g></svg>