<svg viewbox="0 0 326.58 124.24" xmlns="http://www.w3.org/2000/svg"><defs><style>.cls-1{fill:#e8cc7d;}.cls-2{fill:#323232;}.cls-3{fill:#fff;}</style></defs><title>txt_name_nrw</title><g data-name="レイヤー 2" id="レイヤー_2"><g id="レイアウト"><rect class="cls-1" height="20" width="50" x="0.74" y="80.83"></rect><path class="cls-2" d="M2.25,121.48,3.58,113l3.07,6.75L9.78,113,11,121.48h-.91l-.76-5.57-2.72,5.9L4,115.91l-.79,5.57Z"></path><path class="cls-2" d="M13.7,114a.61.61,0,1,1-.61.61A.61.61,0,0,1,13.7,114Zm.43,2.49v5h-.86v-5Z"></path><path class="cls-2" d="M17.94,121l-2.29-4.51h1l1.76,3.56L20,116.5h1l-3.66,7.74h-1Z"></path><path class="cls-2" d="M23.35,119.4a1.69,1.69,0,0,0,.24,1.07,1.19,1.19,0,0,0,1.75,0,1.69,1.69,0,0,0,.24-1.07v-2.9h.86v3A2,2,0,0,1,26,121a2.17,2.17,0,0,1-3,0,2,2,0,0,1-.46-1.5v-3h.86Z"></path><path class="cls-2" d="M29.54,112.73v5.61l1.82-1.85h1.13l-2.14,2.13,2.52,2.84H31.75l-2-2.27-.22.22v2.05h-.86v-8.74Z"></path><path class="cls-2" d="M34.77,114a.61.61,0,1,1-.61.61A.61.61,0,0,1,34.77,114Zm.43,2.49v5h-.86v-5Z"></path><path class="cls-2" d="M44.62,115.06a1.94,1.94,0,0,0-.47-.6,1.44,1.44,0,0,0-.9-.28,1.23,1.23,0,0,0-1.34,1.24.84.84,0,0,0,.3.7,2.61,2.61,0,0,0,.84.5l.77.34a3.89,3.89,0,0,1,1.24.76,1.92,1.92,0,0,1,.58,1.45A2.57,2.57,0,0,1,41.36,121a2.9,2.9,0,0,1-.74-1.42l.86-.24a1.89,1.89,0,0,0,.48,1,1.64,1.64,0,0,0,2.76-1.14,1.19,1.19,0,0,0-.4-.94,3.48,3.48,0,0,0-1-.55l-.72-.34a3.53,3.53,0,0,1-1.07-.66,1.66,1.66,0,0,1-.55-1.31,2.07,2.07,0,0,1,2.24-2.06,2.17,2.17,0,0,1,1.28.36,2.42,2.42,0,0,1,.78.89Z"></path><path class="cls-2" d="M51.46,116.5h.86v5h-.86v-.7a2.1,2.1,0,0,1-1.7.84,2.63,2.63,0,0,1,0-5.24,2.06,2.06,0,0,1,1.7.83ZM48.22,119a1.66,1.66,0,0,0,1.63,1.87,1.86,1.86,0,0,0,0-3.71A1.65,1.65,0,0,0,48.22,119Z"></path><path class="cls-2" d="M54.8,116.5l1.47,3.38,1.56-3.77,1.55,3.77,1.49-3.38h1l-2.47,5.33-1.54-3.72-1.54,3.72-2.45-5.33Z"></path><path class="cls-2" d="M67.16,116.5H68v5h-.86v-.7a2.1,2.1,0,0,1-1.7.84,2.63,2.63,0,0,1,0-5.24,2.06,2.06,0,0,1,1.7.83ZM63.92,119a1.66,1.66,0,0,0,1.63,1.87,1.86,1.86,0,0,0,0-3.71A1.65,1.65,0,0,0,63.92,119Z"></path><path class="cls-2" d="M72.3,117.65a.76.76,0,0,0-.7-.5.55.55,0,0,0-.6.56c0,.36.24.47.8.71a3,3,0,0,1,1.25.77,1.18,1.18,0,0,1,.26.8,1.58,1.58,0,0,1-1.71,1.63,1.78,1.78,0,0,1-1.74-1.27l.74-.31a1.13,1.13,0,0,0,1,.82.77.77,0,0,0,.82-.79c0-.47-.34-.62-.8-.83a3.23,3.23,0,0,1-1.21-.73,1.08,1.08,0,0,1-.23-.73,1.34,1.34,0,0,1,1.45-1.39,1.44,1.44,0,0,1,1.37.9Z"></path><path class="cls-2" d="M75.08,112.73h.86v4.34a1.76,1.76,0,0,1,1.43-.7,1.69,1.69,0,0,1,1.43.68,2.22,2.22,0,0,1,.29,1.33v3.08h-.86v-3.06a1.46,1.46,0,0,0-.23-.91,1,1,0,0,0-.82-.36,1.09,1.09,0,0,0-.87.38,2.1,2.1,0,0,0-.36,1.34v2.6h-.86Z"></path><path class="cls-2" d="M81.75,114a.61.61,0,1,1-.61.61A.61.61,0,0,1,81.75,114Zm.43,2.49v5h-.86v-5Z"></path><path class="cls-2" d="M84.41,116.5h.86V117a1.38,1.38,0,0,1,1.13-.66,1.83,1.83,0,0,1,.77.2l-.41.78a.88.88,0,0,0-.5-.17.84.84,0,0,0-.7.31,2.15,2.15,0,0,0-.29,1.34v2.63h-.86Z"></path><path class="cls-2" d="M88.25,119a2.64,2.64,0,1,1,2.64,2.61A2.56,2.56,0,0,1,88.25,119Zm.89,0a1.75,1.75,0,1,0,1.75-1.86A1.72,1.72,0,0,0,89.14,119Z"></path><path class="cls-2" d="M102.66,116.5h.86v5h-.86v-.7a2.1,2.1,0,0,1-1.7.84,2.63,2.63,0,0,1,0-5.24,2.06,2.06,0,0,1,1.7.83ZM99.43,119a1.66,1.66,0,0,0,1.63,1.87,1.86,1.86,0,0,0,0-3.71A1.65,1.65,0,0,0,99.43,119Z"></path><path class="cls-2" d="M107.81,117.65a.76.76,0,0,0-.7-.5.55.55,0,0,0-.6.56c0,.36.24.47.8.71a3,3,0,0,1,1.25.77,1.18,1.18,0,0,1,.26.8,1.58,1.58,0,0,1-1.71,1.63,1.78,1.78,0,0,1-1.74-1.27l.74-.31a1.13,1.13,0,0,0,1,.82.77.77,0,0,0,.82-.79c0-.47-.34-.62-.8-.83a3.23,3.23,0,0,1-1.21-.73,1.08,1.08,0,0,1-.23-.73,1.34,1.34,0,0,1,1.45-1.39,1.44,1.44,0,0,1,1.37.9Z"></path><path class="cls-2" d="M115.08,116.91l3.41-3.43h1.2l-3.74,3.73,3.86,4.27h-1.22l-3.27-3.67-.23.23v3.44h-.89v-8h.89Z"></path><path class="cls-2" d="M123,121l-2.29-4.51h1l1.76,3.56L125,116.5h1l-3.66,7.74h-1Z"></path><path class="cls-2" d="M127.21,119a2.64,2.64,0,1,1,2.64,2.61A2.56,2.56,0,0,1,127.21,119Zm.89,0a1.75,1.75,0,1,0,1.75-1.86A1.72,1.72,0,0,0,128.09,119Z"></path><path class="cls-2" d="M135.27,112.73v5.61l1.82-1.85h1.13l-2.14,2.13,2.52,2.84h-1.13l-2-2.27-.22.22v2.05h-.86v-8.74Z"></path><path class="cls-2" d="M139.76,119a2.64,2.64,0,1,1,2.64,2.61A2.56,2.56,0,0,1,139.76,119Zm.89,0a1.75,1.75,0,1,0,1.75-1.86A1.72,1.72,0,0,0,140.64,119Z"></path><path class="cls-2" d="M151.46,116.73h4.1v-3.25h.89v8h-.89v-3.91h-4.1v3.91h-.89v-8h.89Z"></path><path class="cls-2" d="M158.58,119a2.64,2.64,0,1,1,2.64,2.61A2.56,2.56,0,0,1,158.58,119Zm.89,0a1.75,1.75,0,1,0,1.75-1.86A1.72,1.72,0,0,0,159.47,119Z"></path><path class="cls-2" d="M165.78,116.5h.86v.58a1.76,1.76,0,0,1,1.43-.7,1.69,1.69,0,0,1,1.43.68,2.22,2.22,0,0,1,.29,1.33v3.08h-.86v-3.06a1.46,1.46,0,0,0-.23-.91,1,1,0,0,0-.82-.36,1.09,1.09,0,0,0-.87.38,2.1,2.1,0,0,0-.36,1.34v2.6h-.86Z"></path><path class="cls-2" d="M175.84,112.73h.86v8.74h-.86v-.7a2.1,2.1,0,0,1-1.7.84,2.63,2.63,0,0,1,0-5.24,2.06,2.06,0,0,1,1.7.83ZM172.6,119a1.66,1.66,0,0,0,1.63,1.87,1.86,1.86,0,0,0,0-3.71A1.65,1.65,0,0,0,172.6,119Z"></path><path class="cls-2" d="M182.75,116.5h.86v5h-.86v-.7a2.1,2.1,0,0,1-1.7.84,2.63,2.63,0,0,1,0-5.24,2.06,2.06,0,0,1,1.7.83ZM179.51,119a1.66,1.66,0,0,0,1.63,1.87,1.86,1.86,0,0,0,0-3.71A1.65,1.65,0,0,0,179.51,119Z"></path><path class="cls-3" d="M21.09,96.35a6.52,6.52,0,0,1-3,.7,6.16,6.16,0,0,1-4.51-1.67,5.91,5.91,0,0,1-2-4.59,6.2,6.2,0,0,1,2-4.7,6.41,6.41,0,0,1,4.53-1.58,6.33,6.33,0,0,1,3,.74V88a4,4,0,0,0-3-1.35,4.15,4.15,0,0,0,.09,8.3,3.77,3.77,0,0,0,2.88-1.31Z"></path><path class="cls-3" d="M28.81,84.77l3.29,8.07,3.29-8.07H38l-5.21,12H31.36l-5.17-12Z"></path><path class="cls-2" d="M62.32,86.67a15.25,15.25,0,0,1,3.88,2.38l-1.44,1.6a13.78,13.78,0,0,0-3.6-2.46Zm2.9,5.16,1.56,1.3a50.37,50.37,0,0,1-3.48,6.58l-1.84-1.36A43.43,43.43,0,0,0,65.22,91.83Zm-2-10.52A16.61,16.61,0,0,1,67,83.53l-1.4,1.64a15.12,15.12,0,0,0-3.5-2.3ZM80,97.86l-1.58,1.9c-2.9-1.76-4.82-5-5.7-10H70.56a14.82,14.82,0,0,1-3.44,10l-1.9-1.36c2.48-2.64,3.12-5.7,3.12-9.1V81.81H78.79v7.94H74.92C75.7,94,77.46,96.55,80,97.86ZM76.58,87.77v-4h-6v4Z"></path><path class="cls-2" d="M84.18,93.67V87.53H82.3v-2h1.88v-4.4h2.1v4.4H88v2H86.28v5.66c.58-.14,1.14-.28,1.62-.42l.16,1.88c-1.64.56-4.1,1.32-5.54,1.74L82,94.15C82.58,94,83.36,93.87,84.18,93.67Zm9.38-5h.7c0,4.76-.06,7.18-.62,7.6a1.78,1.78,0,0,1-1,.26c-.34,0-1.14,0-1.6,0l-.2-1.68c.36,0,.92,0,1.2,0a.35.35,0,0,0,.24-.06c.18-.18.2-1.54.2-4.38H90.62v.4a12.86,12.86,0,0,1-3,8.9L86,98.56a10.52,10.52,0,0,0,2.7-7.74v-6.1h6.2c0-1.12-.08-2.28-.1-3.5h2.1c0,1.22,0,2.38,0,3.5h3.84v1.88H97c.06,2,.2,3.8.36,5.34A17.38,17.38,0,0,0,98.48,88l1.84.44A18.65,18.65,0,0,1,97.8,95c.36,1.6.78,2.52,1.28,2.56.34,0,.46-.24.56-1.76l1.36.82c-.36,2.7-1,3.32-2.36,3.08-.94-.16-1.66-1.12-2.24-2.78a18.07,18.07,0,0,1-3.06,2.84l-1.6-1.14a15.71,15.71,0,0,0,4.08-4,61.21,61.21,0,0,1-.88-8.06H90.62v2.1h2.94Zm4.92-7.48a10.38,10.38,0,0,1,2,2.2l-1.54.9a8.43,8.43,0,0,0-1.78-2.18Z"></path><path class="cls-2" d="M122.6,91.71a26.77,26.77,0,0,0-4.44-.7c-.36,1.06-.72,2.06-1.06,2.9-1.08,2.58-2.16,3.6-3.76,3.6-1.82,0-2.84-1.68-2.84-3.64,0-2.68,1.74-4.84,6.08-5,.44-1.42.84-2.88,1.14-4.14-1.34.12-3.78.32-5.6.44l-.18-2.16a59.75,59.75,0,0,0,7-.44l1.6,1C120,85,119.44,87,118.82,89a35.08,35.08,0,0,1,4.06.6c.08-1,.12-2.12.12-3.32l2.28,0a35.56,35.56,0,0,1-.24,3.76c.92.24,1.84.5,2.74.76L127,93c-.76-.26-1.54-.52-2.32-.74a9.51,9.51,0,0,1-5.36,7l-1.44-1.8A7.44,7.44,0,0,0,122.6,91.71Zm-10.08,2c0,.84.3,1.42.84,1.42s1-.46,1.68-1.92c.28-.64.58-1.4.86-2.24C113.28,91.25,112.52,92.27,112.52,93.75Z"></path><path class="cls-2" d="M132,89.87a23.11,23.11,0,0,1,1.06-7l2.26.48a13.45,13.45,0,0,0-1.08,4.86v.4a8,8,0,0,1,6-4.16c-.12-.84-.26-1.7-.42-2.54l2.38-.28c.14.88.26,1.8.34,2.7,3.54.22,5.48,2.62,5.48,6.22s-2.52,5.92-6.1,5.92c-.24,0-.46,0-.68,0a10.15,10.15,0,0,1-2.5,3l-1.94-1.32a8.6,8.6,0,0,0,2.28-2.32,8.64,8.64,0,0,1-2.88-2.34l1.34-1.58a5.77,5.77,0,0,0,2.4,2.1,17.79,17.79,0,0,0,.58-5.24v0c0-.7,0-1.44-.08-2.2a7.13,7.13,0,0,0-5.48,4.5,5.56,5.56,0,0,0-.42,2.38,9.3,9.3,0,0,0,.16,1.48l-2,.46a20.21,20.21,0,0,1-.68-5.5Zm13.8.64c0-2.36-1.08-3.76-3.12-4,0,.76.06,1.52.06,2.26a20.49,20.49,0,0,1-.66,5.64C144.38,94.35,145.8,93,145.8,90.51Z"></path><path class="cls-2" d="M152.12,88.11c2.64,0,5.62-.1,8.46-.28-.22-.56-.42-1.16-.62-1.76-2.38.16-4.82.28-7,.3l-.12-2c2.08,0,4.36-.08,6.58-.22-.2-.74-.36-1.48-.48-2.2l2.42-.26c.08.76.22,1.52.36,2.28,1.82-.16,3.52-.36,4.94-.6l.28,2c-1.36.18-3,.36-4.76.5.18.6.36,1.2.58,1.78,1.86-.16,3.6-.36,5.06-.6l.22,2c-1.28.16-2.8.32-4.46.46a11.94,11.94,0,0,0,2.48,3.4L165,94.63a16.61,16.61,0,0,0-6.88-1.58c-2,0-2.92.88-2.92,1.94,0,1.28,1.78,2.1,5.36,2.1,1,0,2.32,0,3.68-.16l-.16,2.12c-1,.1-2.2.12-3.06.12-5.52,0-8.06-1.62-8.06-4.2,0-2.24,1.72-3.76,4.88-3.76a15.08,15.08,0,0,1,4.78.74,18.73,18.73,0,0,1-1.26-2.24c-3.08.22-6.38.36-9.12.38Z"></path><path class="cls-2" d="M4.68,46.44,0,41.28A58.75,58.75,0,0,0,22.2,17.64H.9V11.52H25.26V.3H32V11.52h24.6v6.12H35.4a60,60,0,0,0,22.08,23l-4.92,5.58A71.72,71.72,0,0,1,32,23.28v15.9h10.2V45.3H32V56H25.26V45.3h-10V39.18h10V24A71,71,0,0,1,4.68,46.44Z"></path><path class="cls-2" d="M74.4,50.82V54.3H67.92v-49h47.64v49h-6.72V50.82ZM88,24.6V11.4H74.4V24.6Zm0,20v-14H74.4v14Zm20.88-20V11.4H94.56V24.6Zm0,20v-14H94.56v14Z"></path><path class="cls-2" d="M188,24.24H160v-5A66.36,66.36,0,0,1,149.28,26l-4.2-5.52C154,16.68,163,9.84,170.58,0h6.36a69.55,69.55,0,0,0,25.92,20.16l-4.44,5.58A73.66,73.66,0,0,1,188,19.38Zm3,5h.72l4.26,2a58,58,0,0,1-19.44,25.5l-5.7-4.2a50.53,50.53,0,0,0,16-17.28H151.62v-6H191Zm-4.56-11A83,83,0,0,1,173.7,6a81.54,81.54,0,0,1-12.3,12.24Z"></path><path class="cls-2" d="M221.28,52.68v3H214.8V3.36h41.76V55.68h-6.78v-3ZM249.78,9.6h-28.5V24.48h28.5Zm0,36.84V30.6h-28.5V46.44Z"></path><path class="cls-2" d="M295.5,25v-7h2.64A105.82,105.82,0,0,0,307.5,8.7H280.56V2.76h34.5L319.5,5.4a157.87,157.87,0,0,1-17.16,16.8V25h24.24v6.06H302.34V48.9c0,4.14-1.26,6.42-5.1,7a65.22,65.22,0,0,1-9.9.12c-.48-2.46-1-4.56-1.44-6.6a73.17,73.17,0,0,0,7.86.12c1.32-.12,1.74-.72,1.74-1.92V31.08H270.9V25Z"></path></g></g></svg>