<svg viewbox="0 0 262.8 124" xmlns="http://www.w3.org/2000/svg"><defs><style>.cls-1{fill:#b7beb0;}.cls-2{fill:#323232;}.cls-3{fill:#fff;}</style></defs><title>txt_name_1</title><g data-name="レイヤー 2" id="レイヤー_2"><g id="レイアウト"><rect class="cls-1" height="20" width="50" x="0.5" y="80.59"></rect><path class="cls-2" d="M6.7,119H3.3l-1,2.26h-1L5,112.85l3.58,8.39h-1Zm-.35-.84L5,114.94l-1.37,3.2Z"></path><path class="cls-2" d="M10.57,113.77a.61.61,0,0,1,.61.61.62.62,0,0,1-.61.61.61.61,0,0,1-.61-.61A.61.61,0,0,1,10.57,113.77Zm.43,2.49v5h-.86v-5Z"></path><path class="cls-2" d="M17.73,116.67l3.41-3.43h1.2L18.59,117l3.87,4.27H21.23L18,117.57l-.23.23v3.44h-.89v-8h.89Z"></path><path class="cls-2" d="M27.86,116.26h.86v5h-.86v-.7a2.11,2.11,0,0,1-1.7.84,2.63,2.63,0,0,1,0-5.24,2.06,2.06,0,0,1,1.7.83Zm-3.24,2.48a1.66,1.66,0,0,0,1.63,1.87,1.86,1.86,0,0,0,0-3.7A1.65,1.65,0,0,0,24.62,118.74Z"></path><path class="cls-2" d="M31.82,112.49v5.62l1.82-1.85h1.13l-2.13,2.14,2.51,2.84H34L32,119l-.22.22v2H31v-8.75Z"></path><path class="cls-2" d="M37.48,119.16a1.7,1.7,0,0,0,.24,1.07,1.06,1.06,0,0,0,.88.38,1,1,0,0,0,.87-.38,1.7,1.7,0,0,0,.24-1.07v-2.9h.87v3a2,2,0,0,1-.46,1.5,2.17,2.17,0,0,1-3,0,2,2,0,0,1-.46-1.5v-3h.86Z"></path><path class="cls-2" d="M42.81,116.26h.86v.53a1.45,1.45,0,0,1,1.24-.65,1.52,1.52,0,0,1,1.36.8,1.66,1.66,0,0,1,1.49-.8c1.48,0,1.62,1.24,1.62,1.94v3.16h-.86v-3c0-.57-.07-1.31-.89-1.31-1,0-1.1,1-1.1,1.56v2.77h-.86v-2.95c0-.35,0-1.38-.9-1.38s-1.1,1-1.1,1.62v2.71h-.86Z"></path><path class="cls-2" d="M55.45,116.26h.86v5h-.86v-.7a2.12,2.12,0,0,1-1.71.84,2.63,2.63,0,0,1,0-5.24,2.08,2.08,0,0,1,1.71.83Zm-3.24,2.48a1.66,1.66,0,0,0,1.63,1.87,1.86,1.86,0,0,0,0-3.7A1.65,1.65,0,0,0,52.21,118.74Z"></path><path class="cls-2" d="M65.75,116.26h.87v5h-.87v-.7a2.11,2.11,0,0,1-1.7.84,2.63,2.63,0,0,1,0-5.24,2.06,2.06,0,0,1,1.7.83Zm-3.24,2.48a1.66,1.66,0,0,0,1.64,1.87,1.86,1.86,0,0,0,0-3.7A1.65,1.65,0,0,0,62.51,118.74Z"></path><path class="cls-2" d="M70.9,117.41a.75.75,0,0,0-.69-.5.55.55,0,0,0-.6.56c0,.36.23.47.8.71a3.1,3.1,0,0,1,1.25.77,1.2,1.2,0,0,1,.26.8,1.58,1.58,0,0,1-1.71,1.63,1.77,1.77,0,0,1-1.74-1.27l.74-.31a1.13,1.13,0,0,0,1,.81.77.77,0,0,0,.81-.79c0-.47-.33-.62-.8-.83a3.15,3.15,0,0,1-1.21-.73,1.09,1.09,0,0,1-.23-.73,1.34,1.34,0,0,1,1.45-1.39,1.45,1.45,0,0,1,1.37.9Z"></path><path class="cls-2" d="M77,121.24l1.33-8.45,3.07,6.76,3.13-6.77,1.25,8.46h-.91l-.76-5.57-2.72,5.9-2.69-5.9-.79,5.57Z"></path><path class="cls-2" d="M91.84,116.26h.86v5h-.86v-.7a2.11,2.11,0,0,1-1.7.84,2.63,2.63,0,0,1,0-5.24,2.06,2.06,0,0,1,1.7.83Zm-3.24,2.48a1.66,1.66,0,0,0,1.63,1.87,1.86,1.86,0,0,0,0-3.7A1.65,1.65,0,0,0,88.6,118.74Z"></path><path class="cls-2" d="M98.83,117.65a2,2,0,0,0-1.55-.74,1.85,1.85,0,0,0,0,3.7,2.09,2.09,0,0,0,1.61-.78v1a2.7,2.7,0,0,1-1.58.51,2.55,2.55,0,0,1-2.67-2.6,2.68,2.68,0,0,1,4.21-2.16Z"></path><path class="cls-2" d="M100.79,112.49h.87v4.35a1.82,1.82,0,0,1,2.85,0,2.26,2.26,0,0,1,.29,1.34v3.08h-.87v-3.06a1.47,1.47,0,0,0-.22-.91,1,1,0,0,0-.82-.36,1.07,1.07,0,0,0-.87.38,2.1,2.1,0,0,0-.36,1.35v2.6h-.87Z"></path><path class="cls-2" d="M107.46,113.77a.61.61,0,0,1,.62.61.62.62,0,0,1-1.23,0A.61.61,0,0,1,107.46,113.77Zm.44,2.49v5H107v-5Z"></path><path class="cls-2" d="M114.63,116.67l3.4-3.43h1.2L115.49,117l3.86,4.27h-1.22l-3.27-3.67-.23.23v3.44h-.89v-8h.89Z"></path><path class="cls-2" d="M121.8,119.16a1.7,1.7,0,0,0,.24,1.07,1.06,1.06,0,0,0,.88.38,1,1,0,0,0,.87-.38,1.7,1.7,0,0,0,.24-1.07v-2.9h.87v3a2,2,0,0,1-.46,1.5,2.17,2.17,0,0,1-3,0,2,2,0,0,1-.46-1.5v-3h.86Z"></path><path class="cls-2" d="M127.13,116.26H128v.54a1.41,1.41,0,0,1,1.13-.66,2,2,0,0,1,.77.2l-.41.78a.87.87,0,0,0-.5-.16.83.83,0,0,0-.7.31,2.17,2.17,0,0,0-.29,1.34v2.63h-.86Z"></path><path class="cls-2" d="M135.1,116.26H136v5h-.86v-.7a2.12,2.12,0,0,1-1.71.84,2.63,2.63,0,0,1,0-5.24,2.08,2.08,0,0,1,1.71.83Zm-3.24,2.48a1.66,1.66,0,0,0,1.63,1.87,1.86,1.86,0,0,0,0-3.7A1.65,1.65,0,0,0,131.86,118.74Z"></path><path class="cls-2" d="M142,116.26h.86v4.86a3.11,3.11,0,0,1-.48,1.95,2.4,2.4,0,0,1-2,.93,2.43,2.43,0,0,1-1.77-.68,2.2,2.2,0,0,1-.65-1.6h.85a1.59,1.59,0,0,0,.38,1,1.53,1.53,0,0,0,1.2.48,1.4,1.4,0,0,0,1.32-.7,2.31,2.31,0,0,0,.28-1.27v-.72a2.11,2.11,0,0,1-1.7.84,2.41,2.41,0,0,1-1.71-.67,2.73,2.73,0,0,1-.72-2,2.61,2.61,0,0,1,.72-1.93,2.45,2.45,0,0,1,1.71-.67,2.06,2.06,0,0,1,1.7.83Zm-2.74,1.12a1.88,1.88,0,0,0-.5,1.36,1.92,1.92,0,0,0,.56,1.47,1.53,1.53,0,0,0,1.07.4,1.44,1.44,0,0,0,1.09-.42,2.11,2.11,0,0,0,0-2.84,1.64,1.64,0,0,0-1.13-.44A1.55,1.55,0,0,0,139.27,117.38Z"></path><path class="cls-2" d="M145.54,113.77a.61.61,0,0,1,.61.61.62.62,0,0,1-.61.61.61.61,0,0,1-.61-.61A.61.61,0,0,1,145.54,113.77Zm.43,2.49v5h-.86v-5Z"></path><path class="cls-3" d="M20.85,96.11a6.5,6.5,0,0,1-3.05.7,6.19,6.19,0,0,1-4.51-1.67,5.94,5.94,0,0,1-2-4.59,6.21,6.21,0,0,1,2-4.7,6.39,6.39,0,0,1,4.53-1.59,6.38,6.38,0,0,1,3,.74v2.74a4,4,0,0,0-3-1.35,4.15,4.15,0,0,0,.09,8.3,3.78,3.78,0,0,0,2.89-1.32Z"></path><path class="cls-3" d="M28.57,84.53l3.29,8.07,3.29-8.07h2.62l-5.21,12H31.12l-5.18-12Z"></path><path class="cls-2" d="M69.46,84.71h1c-.2,8.25-.42,13-1.22,13.79A2.12,2.12,0,0,1,67.8,99c-.46,0-1.48,0-2.08,0l-.3-2.06c.52,0,1.36.06,1.74,0a.61.61,0,0,0,.46-.16c.38-.4.58-3.72.7-10H66c-.34,4.7-1.2,9.59-3.48,12.55l-1.94-1.16c2.22-2.68,3-7.07,3.34-11.39H61v-2h3.1c.06-1.3.06-2.58.08-3.78l2.1,0c0,1.18,0,2.46-.1,3.76h3.32ZM73.64,98V99.2H71.52V82.61H79V99.12h-2.2V98Zm3.12-2V84.65H73.64V96Z"></path><path class="cls-2" d="M89.88,97.18V91.89H88.56a3.49,3.49,0,0,1,.06.65c0,1.5-.38,2.94-1.56,3.24a7.15,7.15,0,0,1-2,.08L84.74,94a5.51,5.51,0,0,0,1.14,0c.6-.08.72-.7.72-1.67s-.44-2-1.72-3.64c.5-1.82,1-3.62,1.32-5.2H84.5v16h-2V81.59h5.18c.34.1.68.2,1.08.34-.58,2-1.26,4.18-2,6.36a8.87,8.87,0,0,1,1.76,3.34V90.05h12v1.84H95.68a10.29,10.29,0,0,0,.84,2.2,20.62,20.62,0,0,0,2.7-1.9l1.32,1.51a26.83,26.83,0,0,1-3,1.88,7,7,0,0,0,3.23,2.1L99.36,99.5c-2.82-1.2-4.72-3.54-5.68-7.61H91.9v5c1.28-.16,2.6-.34,3.6-.5l.12,1.78c-2,.38-5,.88-6.82,1.16l-.54-2Zm9.8-15.63V89H89.44V81.55Zm-8.2,3h2V83.19h-2Zm0,2.8h2V86h-2Zm6.1-2.8V83.19h-2.1v1.38Zm0,2.8V86h-2.1v1.42Z"></path><path class="cls-2" d="M115.2,96.88V93.51h-4.54v-7.1h4.54V83.65h-5.32v-2h17.46v2h-5.48v2.76h4.72v7.1h-4.72v3.37h6v2H109.34v-2Zm-2.4-5.25h2.4V88.29h-2.4Zm6.88-5.22V83.65h-2.32v2.76Zm0,5.22V88.29h-2.32v3.34Zm0,5.25V93.51h-2.32v3.37Zm4.66-5.25V88.29h-2.48v3.34Z"></path><path class="cls-2" d="M134.54,96.88V92.54a21.51,21.51,0,0,1-3,2l-1.5-1.75a20.1,20.1,0,0,0,7.66-6.66h-7.38v-2h8.06V80.93h2.28v3.18h8.22v2h-8.08a21.61,21.61,0,0,0,1.56,5.14,39.4,39.4,0,0,0,4.56-3.76l1.64,1.62A50.39,50.39,0,0,1,143.34,93a11.77,11.77,0,0,0,5.78,4.69l-1.56,1.82c-4.36-2-7.08-5.77-8.52-11.55a21.26,21.26,0,0,1-2.24,2.62V96.4c1.6-.36,3.22-.72,4.48-1,.06.58.12,1.18.2,1.92-2.6.7-6.6,1.68-8.9,2.22l-.68-2.08C132.62,97.28,133.54,97.1,134.54,96.88Z"></path><path class="cls-2" d="M37.92,15.72h-19V12.9A69,69,0,0,1,3.66,20.4L0,14.94A59.75,59.75,0,0,0,25.32.06h5.76a67.71,67.71,0,0,0,26,14.76l-3.84,5.64A81.72,81.72,0,0,1,37.92,13ZM20,54.24v1.5H13.68V43.32a37.11,37.11,0,0,1-6.9,10.86L1.26,50.34C8.16,43.56,10.2,35.82,10.2,28V18.36H46.74V35.58H16c-.18,1-.36,1.92-.6,2.88H49V55.74H42.48v-1.5ZM16.62,28.62a26.17,26.17,0,0,1-.18,3.06H40.32V28.62Zm23.7-3.42V22.26H16.62V25.2Zm2.16,24.24V43.38H20v6.06Zm-6.78-38a81.66,81.66,0,0,1-7.56-5.94,65.09,65.09,0,0,1-7.2,5.94Z"></path><path class="cls-2" d="M77.76,55.74H71.28V26.88a77.38,77.38,0,0,1-4.68,6.9l-4.08-5.4A79.51,79.51,0,0,0,75.84,0l6.42,1.5a92.93,92.93,0,0,1-4.5,12.78Zm42.3-5.88-4.32,5.82a55.34,55.34,0,0,1-16.32-7.74,56.07,56.07,0,0,1-15.78,7.74l-4.2-5.28a50.37,50.37,0,0,0,15-6.48A42.59,42.59,0,0,1,84.9,30.78l5.7-2.1H81.36V22.74H96.12V15.36H80.22V9.24h15.9V.06h6.6V9.24h16.62v6.12H102.72v7.38h8.16l4.8,1.38a41.9,41.9,0,0,1-11.1,19.5A49.32,49.32,0,0,0,120.06,49.86Zm-20.52-10a32.12,32.12,0,0,0,7.62-11.22H91.26A33.52,33.52,0,0,0,99.54,39.9Z"></path><path class="cls-2" d="M181.5,44.88H165.24l4.32,1.86a75.44,75.44,0,0,1-16.86,9l-6-3.6a70.25,70.25,0,0,0,15.6-7.26H145.86v-5.1h55.68v5.1H185.28c5.7,2.64,10.68,5.22,15.18,7.86l-6.6,3C189.48,53,184,50.1,177.54,47ZM170.16,11.16V8.4h-24V3.48h24V.06h6.78V3.48h24.3V8.4h-24.3v2.76H192.6v26.1H154.8V11.16Zm-8.82,7.68h24.48V15.72H161.34Zm0,6.9h24.48V22.62H161.34Zm0,7h24.48V29.52H161.34Z"></path><path class="cls-2" d="M237.78,46.74l-5.52,3.84c-1.92-3.24-4.26-6.72-7-10.5a36.32,36.32,0,0,1-11.58,15.54l-5.22-4.32c8.7-6.48,11.94-14,12.54-22H208.86V23.46H221.1V13.08h-2.58a45.21,45.21,0,0,1-4.26,8.52L209,18.78A43.53,43.53,0,0,0,215.7.06l5.88,1a53.2,53.2,0,0,1-1.26,6.3h16.26v5.76h-9V23.46h9.78v5.88h-9.9a32.52,32.52,0,0,1-.36,3.48A159.62,159.62,0,0,1,237.78,46.74Zm7.8,3.36v4.2H239.1v-49h23.7v48.3H256V50.1ZM256,44V11.46H245.58V44Z"></path></g></g></svg>