<svg viewbox="0 0 264.58 124" xmlns="http://www.w3.org/2000/svg"><defs><style>.cls-1{fill:#e6d773;}.cls-2{fill:#323232;}.cls-3{fill:#fff;}</style></defs><title>アセット 3</title><g data-name="レイヤー 2" id="レイヤー_2"><g id="レイアウト"><rect class="cls-1" height="20" width="50" y="80.59"></rect><path class="cls-2" d="M1.51,121.24l1.33-8.45,3.07,6.76L9,112.78l1.25,8.46H9.38l-.76-5.57-2.72,5.9-2.68-5.9-.8,5.57Z"></path><path class="cls-2" d="M16.94,120a3,3,0,0,1-.61.8,2.42,2.42,0,0,1-1.66.61,2.37,2.37,0,0,1-2.45-2.6,2.41,2.41,0,0,1,2.41-2.64,2.23,2.23,0,0,1,1.88.91,3.4,3.4,0,0,1,.47,1.87H13.1a1.6,1.6,0,0,0,1.59,1.69,1.53,1.53,0,0,0,1-.36,2.06,2.06,0,0,0,.51-.68Zm-.85-1.77a1.48,1.48,0,0,0-1.46-1.29,1.51,1.51,0,0,0-1.47,1.29Z"></path><path class="cls-2" d="M22.71,116.26h.87v4.86a3.11,3.11,0,0,1-.48,1.95,2.41,2.41,0,0,1-2,.93,2.45,2.45,0,0,1-1.78-.68,2.24,2.24,0,0,1-.65-1.6h.86a1.54,1.54,0,0,0,.38,1,1.52,1.52,0,0,0,1.2.48,1.4,1.4,0,0,0,1.32-.7,2.31,2.31,0,0,0,.27-1.27v-.72a2.08,2.08,0,0,1-1.7.84,2.39,2.39,0,0,1-1.7-.67,2.69,2.69,0,0,1-.72-2,2.61,2.61,0,0,1,.72-1.93,2.44,2.44,0,0,1,1.7-.67,2,2,0,0,1,1.7.83ZM20,117.38a1.88,1.88,0,0,0-.5,1.36,1.92,1.92,0,0,0,.56,1.47,1.5,1.5,0,0,0,1.07.4,1.47,1.47,0,0,0,1.09-.42,2,2,0,0,0,.56-1.43,2,2,0,0,0-.53-1.41,1.6,1.6,0,0,0-1.12-.44A1.55,1.55,0,0,0,20,117.38Z"></path><path class="cls-2" d="M26.67,119.16a1.7,1.7,0,0,0,.24,1.07,1.21,1.21,0,0,0,1.76,0,1.7,1.7,0,0,0,.24-1.07v-2.9h.86v3a2,2,0,0,1-.46,1.5,2.17,2.17,0,0,1-3,0,2,2,0,0,1-.46-1.5v-3h.86Z"></path><path class="cls-2" d="M32,116.26h.87v.53a1.42,1.42,0,0,1,1.23-.65,1.52,1.52,0,0,1,1.36.8,1.67,1.67,0,0,1,1.5-.8c1.47,0,1.62,1.24,1.62,1.94v3.16h-.87v-3c0-.57-.07-1.31-.89-1.31-1,0-1.1,1-1.1,1.56v2.77h-.86v-2.95c0-.35,0-1.38-.9-1.38s-1.09,1-1.09,1.62v2.71H32Z"></path><path class="cls-2" d="M41.25,113.77a.61.61,0,0,1,.62.61.62.62,0,0,1-1.23,0A.61.61,0,0,1,41.25,113.77Zm.44,2.49v5h-.87v-5Z"></path><path class="cls-2" d="M48.42,116.49h4.1v-3.25h.89v8h-.89v-3.91h-4.1v3.91h-.89v-8h.89Z"></path><path class="cls-2" d="M59.67,116.26h.87v5h-.87v-.7a2.11,2.11,0,0,1-1.7.84,2.63,2.63,0,0,1,0-5.24,2.06,2.06,0,0,1,1.7.83Zm-3.24,2.48a1.66,1.66,0,0,0,1.64,1.87,1.86,1.86,0,0,0,0-3.7A1.65,1.65,0,0,0,56.43,118.74Z"></path><path class="cls-2" d="M62.77,116.26h.86v.58a1.75,1.75,0,0,1,1.43-.7,1.7,1.7,0,0,1,1.43.68,2.26,2.26,0,0,1,.29,1.34v3.08h-.87v-3.06a1.42,1.42,0,0,0-.23-.91,1,1,0,0,0-.81-.36,1.1,1.1,0,0,0-.88.38,2.16,2.16,0,0,0-.36,1.35v2.6h-.86Z"></path><path class="cls-2" d="M76.22,116.26h.86v5h-.86v-.7a2.11,2.11,0,0,1-1.7.84,2.63,2.63,0,0,1,0-5.24,2.06,2.06,0,0,1,1.7.83ZM73,118.74a1.66,1.66,0,0,0,1.63,1.87,1.86,1.86,0,0,0,0-3.7A1.65,1.65,0,0,0,73,118.74Z"></path><path class="cls-2" d="M81.37,117.41a.76.76,0,0,0-.7-.5.55.55,0,0,0-.6.56c0,.36.24.47.81.71a3,3,0,0,1,1.24.77,1.16,1.16,0,0,1,.27.8,1.59,1.59,0,0,1-1.72,1.63,1.78,1.78,0,0,1-1.74-1.27l.75-.31a1.11,1.11,0,0,0,1,.81.77.77,0,0,0,.82-.79c0-.47-.34-.62-.8-.83a3.07,3.07,0,0,1-1.21-.73,1,1,0,0,1-.23-.73,1.34,1.34,0,0,1,1.45-1.39,1.45,1.45,0,0,1,1.37.9Z"></path><path class="cls-2" d="M87.48,121.24l1.33-8.45,3.07,6.76L95,112.78l1.25,8.46h-.92l-.75-5.57-2.72,5.9-2.69-5.9-.79,5.57Z"></path><path class="cls-2" d="M98.18,118.77a2.64,2.64,0,1,1,2.64,2.61A2.56,2.56,0,0,1,98.18,118.77Zm.89,0a1.75,1.75,0,1,0,1.75-1.86A1.72,1.72,0,0,0,99.07,118.77Z"></path><path class="cls-2" d="M105.38,116.26h.86v.53a1.45,1.45,0,0,1,1.24-.65,1.48,1.48,0,0,1,1.35.8,1.68,1.68,0,0,1,1.5-.8c1.48,0,1.62,1.24,1.62,1.94v3.16h-.86v-3c0-.57-.07-1.31-.89-1.31-1,0-1.1,1-1.1,1.56v2.77h-.87v-2.95c0-.35,0-1.38-.9-1.38s-1.09,1-1.09,1.62v2.71h-.86Z"></path><path class="cls-2" d="M114.63,113.77a.61.61,0,0,1,.61.61.61.61,0,0,1-.61.61.62.62,0,0,1-.61-.61A.61.61,0,0,1,114.63,113.77Zm.43,2.49v5h-.86v-5Z"></path><path class="cls-2" d="M117.73,113.77a.61.61,0,0,1,.61.61.62.62,0,0,1-.61.61.61.61,0,0,1-.61-.61A.61.61,0,0,1,117.73,113.77Zm.43,2.49V124h-.86v-7.74Z"></path><path class="cls-2" d="M120.82,113.77a.61.61,0,0,1,.62.61.62.62,0,0,1-1.23,0A.61.61,0,0,1,120.82,113.77Zm.44,2.49v5h-.87v-5Z"></path><path class="cls-2" d="M130.67,114.82a1.82,1.82,0,0,0-.46-.6,1.47,1.47,0,0,0-.9-.27,1.23,1.23,0,0,0-1.35,1.23.88.88,0,0,0,.3.7,2.57,2.57,0,0,0,.84.5l.77.34a4,4,0,0,1,1.24.75,2,2,0,0,1,.57,1.45,2.57,2.57,0,0,1-4.27,1.81,2.93,2.93,0,0,1-.74-1.41l.86-.24a1.87,1.87,0,0,0,.48,1,1.64,1.64,0,0,0,2.76-1.14,1.21,1.21,0,0,0-.4-.94,3.47,3.47,0,0,0-1-.55l-.71-.33a3.75,3.75,0,0,1-1.07-.66,1.66,1.66,0,0,1-.55-1.31,2.06,2.06,0,0,1,2.24-2.06,2.11,2.11,0,0,1,1.28.36,2.36,2.36,0,0,1,.78.88Z"></path><path class="cls-2" d="M133.39,118.77a2.64,2.64,0,1,1,2.64,2.61A2.56,2.56,0,0,1,133.39,118.77Zm.89,0a1.75,1.75,0,1,0,1.75-1.86A1.72,1.72,0,0,0,134.28,118.77Z"></path><path class="cls-2" d="M140.59,116.26h.86v.53a1.45,1.45,0,0,1,1.24-.65,1.48,1.48,0,0,1,1.35.8,1.68,1.68,0,0,1,1.5-.8c1.48,0,1.62,1.24,1.62,1.94v3.16h-.86v-3c0-.57-.08-1.31-.89-1.31-1,0-1.1,1-1.1,1.56v2.77h-.87v-2.95c0-.35,0-1.38-.9-1.38s-1.09,1-1.09,1.62v2.71h-.86Z"></path><path class="cls-2" d="M153.22,116.26h.87v5h-.87v-.7a2.11,2.11,0,0,1-1.7.84,2.63,2.63,0,0,1,0-5.24,2.06,2.06,0,0,1,1.7.83ZM150,118.74a1.66,1.66,0,0,0,1.64,1.87,1.86,1.86,0,0,0,0-3.7A1.65,1.65,0,0,0,150,118.74Z"></path><path class="cls-3" d="M20.35,96.11a6.5,6.5,0,0,1-3.05.7,6.19,6.19,0,0,1-4.51-1.67,5.94,5.94,0,0,1-2-4.59,6.21,6.21,0,0,1,2-4.7,6.39,6.39,0,0,1,4.53-1.59,6.38,6.38,0,0,1,3,.74v2.74a4,4,0,0,0-3-1.35,4.15,4.15,0,0,0,.09,8.3,3.78,3.78,0,0,0,2.89-1.32Z"></path><path class="cls-3" d="M28.07,84.53l3.29,8.07,3.29-8.07h2.62l-5.21,12H30.62l-5.18-12Z"></path><path class="cls-2" d="M61.62,86.39a15,15,0,0,1,3.66,2.4L63.8,90.35a12.65,12.65,0,0,0-3.38-2.48Zm2.24,5.66,1.62,1.23a48.06,48.06,0,0,1-2.88,6.16l-1.9-1.26A37.51,37.51,0,0,0,63.86,92.05ZM62.34,81.13a14.7,14.7,0,0,1,3.4,2.2l-1.46,1.56a13.41,13.41,0,0,0-3.16-2.26ZM68.92,99v.5H66.86V91.71c-.18.1-.36.18-.54.26L65,90.27a14.34,14.34,0,0,0,5.18-2.88H65.46V85.75h2.78a9.23,9.23,0,0,0-.94-1.66l1-.44c-.68,0-1.34,0-1.94,0L65.92,82A50.62,50.62,0,0,0,77.66,81l.72,1.56a40.74,40.74,0,0,1-5.06.78v2.44h1.1a18.17,18.17,0,0,0,1.36-2.56l1.74.64a17.5,17.5,0,0,1-1.22,1.92H79v1.64H74.32a13.76,13.76,0,0,0,5,2.72L78,91.88l-.14-.07v7.71H75.72V99Zm7.7-7.83a15.34,15.34,0,0,1-3.3-2.48v2.06H71.18v-2a16.38,16.38,0,0,1-3.3,2.44Zm-5.44-5.44V83.51l-2.26.12a7.54,7.54,0,0,1,1,1.88l-.56.24Zm0,8.54V92.93h-2.3v1.36Zm0,3V95.88h-2.3v1.44Zm4.5-3V92.93H73.28v1.36Zm0,3V95.88H73.28v1.44Z"></path><path class="cls-2" d="M93.8,82.55c0,1.1.06,2.2.16,3.28A11.63,11.63,0,0,1,97.52,85c.08-1,.12-2,.12-3.14l2.24.06c0,1.1-.06,2.12-.14,3.08a6.29,6.29,0,0,1,5.76,6.6c0,3.23-1.56,6.07-6.52,7.21l-1-2c4.22-.88,5.26-2.88,5.26-5.13A4.47,4.47,0,0,0,99.52,87a17.08,17.08,0,0,1-2.68,7.63,6.89,6.89,0,0,0,.76.92L96,97.1c-.22-.26-.44-.54-.64-.82a5.88,5.88,0,0,1-3.68,1.42c-1.84,0-3-1.36-3-3.7A8.6,8.6,0,0,1,92,87a42.48,42.48,0,0,1-.34-4.32Zm-1.38,6.7A6.32,6.32,0,0,0,90.7,93.7c0,1,.46,1.7,1.16,1.7a3.64,3.64,0,0,0,2.34-1A21.8,21.8,0,0,1,92.42,89.25Zm3.22,3.33A15.8,15.8,0,0,0,97.32,87a8.8,8.8,0,0,0-3.08.92A19.17,19.17,0,0,0,95.64,92.58Z"></path><path class="cls-2" d="M120.94,82.69a68.15,68.15,0,0,1-8,7.34.38.38,0,0,0-.18.3.3.3,0,0,0,.16.28,58.7,58.7,0,0,1,8.92,7l-2,1.76a50.93,50.93,0,0,0-9.74-7.94,1.18,1.18,0,0,1-.54-1,1.6,1.6,0,0,1,.72-1.18A59.59,59.59,0,0,0,119,81.13Zm1.52-.42a12.57,12.57,0,0,1,1.92,2.64l-1.22.78A11.34,11.34,0,0,0,121.3,83Zm1.8-1.88a11.92,11.92,0,0,1,2,2.6l-1.18.82a11.45,11.45,0,0,0-1.92-2.64Z"></path><path class="cls-2" d="M141.26,91.47a26.78,26.78,0,0,0-4.44-.7c-.36,1.06-.72,2.06-1.06,2.9-1.08,2.59-2.16,3.61-3.76,3.61-1.82,0-2.84-1.68-2.84-3.65,0-2.68,1.74-4.84,6.08-5,.44-1.42.84-2.88,1.14-4.14-1.34.12-3.78.32-5.6.44l-.18-2.16a59.55,59.55,0,0,0,7-.44l1.6,1c-.5,1.46-1.1,3.44-1.72,5.42a35,35,0,0,1,4.06.6c.08-1,.12-2.12.12-3.32l2.28,0a35.33,35.33,0,0,1-.24,3.76c.92.24,1.84.5,2.74.76l-.78,2.18c-.76-.26-1.54-.52-2.32-.73A9.51,9.51,0,0,1,138,99l-1.44-1.8A7.45,7.45,0,0,0,141.26,91.47Zm-10.08,2c0,.85.3,1.43.84,1.43s1-.46,1.68-1.93c.28-.63.58-1.4.86-2.24C131.94,91,131.18,92,131.18,93.51Z"></path><path class="cls-2" d="M15.4,4.32V0h6.48V4.32H33.7V0h6.6V4.32H55.84v5.4H40.3v3.06H33.7V9.72H21.88V12.9H15.4V9.72H.16V4.32Zm9,36.12V36.66H8.56V14.16H47.5v22.5H31.12v3.78H55.84V46H31.12v9.78H24.4V46H.16V40.44ZM15,23.28H40.84v-4H15Zm0,8.34H40.84V27.48H15Z"></path><path class="cls-2" d="M72.82,4.38H88.54V.06H95.2V4.38h23.58V9.3h-46V19.92c0,11.88-1.14,24.36-5,35.46L62.2,52.14c3.6-9.9,4.56-20.94,4.56-32.16V4.38h6.06ZM91.9,41.46v-3.3H76.3V33.84H91.9V30.9c-4.62.3-9.12.42-12.9.36-.42-1.26-.9-2.46-1.44-4,9.72.36,24.42-.78,31.86-2.46l2.1,3.84a128,128,0,0,1-12.9,1.74v3.48H114v4.32H98.62v3.3h20v4.62h-20v4.14c0,3.06-1,4.86-3.72,5.28a56.46,56.46,0,0,1-8.7.18l-1-5.28c1.92.12,4.68.06,5.52.06s1.2-.48,1.2-1.26V46.08H72V41.46ZM94.72,21.6,92.32,25c-1.26-1.08-3.06-2.58-5-4v4.26H82v-4.2a32.65,32.65,0,0,1-6.3,5.1L73,22.5a26,26,0,0,0,8.28-5.64H74.62V13.08H82v-2.7h5.34v2.7h7.38v3.78H87.34v.3C90,18.66,93,20.46,94.72,21.6Zm2.82,4.08-2.64-3.6a22.44,22.44,0,0,0,8-5.22H96.58V13.08H104v-2.7h5.34v2.7H118v3.78h-7.74a25.49,25.49,0,0,0,8.76,5.4L116.2,26.1a31.21,31.21,0,0,1-6.9-5.22v3.9H104V20.7A26.1,26.1,0,0,1,97.54,25.68Z"></path><path class="cls-2" d="M154.3,36a56.15,56.15,0,0,1-3.9,15.9l-5.52-2a44.83,44.83,0,0,0,3.84-14.82Zm27.42,11.94V9.24H170.38v-.9A206.64,206.64,0,0,1,156.46,26.7c2.88-.12,5.82-.3,8.52-.48a51.35,51.35,0,0,0-3.06-4.62L167,19a47.38,47.38,0,0,1,6.72,12l-5.34,2.64q-.36-1.17-.9-2.52l-4.74.54V55.74h-6.6V32.28c-3.72.36-7.26.66-10,.9l-1.2-5.88,4.08-.18c1.74-2.1,3.48-4.32,5.16-6.48a61.26,61.26,0,0,0-8.64-8.52l3.66-4.2c.54.42,1.08.9,1.62,1.32A70.84,70.84,0,0,0,156.46.06l6,2.52A97.26,97.26,0,0,1,155,13.2c1,1,1.86,1.92,2.64,2.76,2.76-3.84,5.16-7.44,6.84-10.38l5.88,2.7v-5H199.6V9.24H188.26v38.7H201v6H168.16v-6ZM170.14,34.26A51.1,51.1,0,0,1,173,45.42l-5.82,1.5a50.53,50.53,0,0,0-2.64-11.16Z"></path><path class="cls-2" d="M264.58,49.68l-3.78,5.4c-7.5-1.86-15.6-5-21.36-9.3v10h-6.78V46c-5.82,4.32-13.8,7.32-21.3,9.06l-3.66-5.22c7.8-1.14,16.26-3.78,21.72-7.56H208.54V37.2h24.12V34.14H217.3V18.9h-8.16V14h8.16V11h5.52V8.34H208.36V3.42h14.46V0h6.48V3.42h13.32V0h6.54V3.42H264V8.34H249.16v2.1h6.06V14h8.1V18.9h-8.1v7.56H232.78V18.9H223.6V29.34h37v4.8H239.44V37.2H263.8v5.1H243.22C248.68,45.9,257,48.54,264.58,49.68ZM232.78,14v-3.6h6.12V14h9.9v-2.4h-6.18V8.34H229.3v3.3h-5.7V14Zm6.12,4.86v3.18h9.9V18.9Z"></path></g></g></svg>