<svg viewbox="0 0 263.44 124" xmlns="http://www.w3.org/2000/svg"><defs><style>.cls-1{fill:#afd791;}.cls-2{fill:#323232;}.cls-3{fill:#fff;}</style></defs><title>txt_name</title><g data-name="レイヤー 2" id="レイヤー_2"><g id="レイアウト"><rect class="cls-1" height="20" width="50" y="80.59"></rect><path class="cls-2" d="M2.68,116.67l3.4-3.43h1.2L3.54,117l3.86,4.27H6.18L2.9,117.57l-.22.23v3.44H1.79v-8h.89Z"></path><path class="cls-2" d="M12.92,120a3,3,0,0,1-.61.8,2.39,2.39,0,0,1-1.65.61,2.38,2.38,0,0,1-2.46-2.6,2.41,2.41,0,0,1,2.41-2.64,2.23,2.23,0,0,1,1.88.91,3.4,3.4,0,0,1,.47,1.87H9.08a1.6,1.6,0,0,0,1.59,1.69,1.51,1.51,0,0,0,1-.36,1.93,1.93,0,0,0,.51-.68Zm-.85-1.77a1.48,1.48,0,0,0-1.46-1.29,1.53,1.53,0,0,0-1.47,1.29Z"></path><path class="cls-2" d="M14.52,116.26h.86v.58a1.75,1.75,0,0,1,1.43-.7,1.7,1.7,0,0,1,1.43.68,2.26,2.26,0,0,1,.29,1.34v3.08h-.87v-3.06a1.42,1.42,0,0,0-.23-.91,1,1,0,0,0-.81-.36,1.1,1.1,0,0,0-.88.38,2.16,2.16,0,0,0-.36,1.35v2.6h-.86Z"></path><path class="cls-2" d="M24,116.26h.87v4.86a3.11,3.11,0,0,1-.48,1.95,2.41,2.41,0,0,1-2,.93,2.47,2.47,0,0,1-1.78-.68,2.24,2.24,0,0,1-.65-1.6h.86a1.47,1.47,0,0,0,1.58,1.51,1.4,1.4,0,0,0,1.32-.7,2.31,2.31,0,0,0,.27-1.27v-.72a2.08,2.08,0,0,1-1.7.84,2.39,2.39,0,0,1-1.7-.67,2.69,2.69,0,0,1-.72-2,2.61,2.61,0,0,1,.72-1.93,2.44,2.44,0,0,1,1.7-.67A2,2,0,0,1,24,117Zm-2.73,1.12a1.88,1.88,0,0,0-.5,1.36,1.92,1.92,0,0,0,.56,1.47,1.52,1.52,0,0,0,1.07.4,1.47,1.47,0,0,0,1.09-.42,2,2,0,0,0,.56-1.43,2,2,0,0,0-.53-1.41,1.6,1.6,0,0,0-1.12-.44A1.55,1.55,0,0,0,21.24,117.38Z"></path><path class="cls-2" d="M26.28,118.77a2.64,2.64,0,1,1,2.64,2.61A2.56,2.56,0,0,1,26.28,118.77Zm.89,0a1.75,1.75,0,1,0,1.75-1.86A1.72,1.72,0,0,0,27.17,118.77Z"></path><path class="cls-2" d="M37.5,116.67l3.41-3.43H42.1L38.36,117l3.86,4.27H41l-3.27-3.67-.23.23v3.44h-.89v-8h.89Z"></path><path class="cls-2" d="M47,116.26h.86v5H47v-.7a2.12,2.12,0,0,1-1.71.84,2.63,2.63,0,0,1,0-5.24A2.08,2.08,0,0,1,47,117Zm-3.24,2.48a1.66,1.66,0,0,0,1.63,1.87,1.86,1.86,0,0,0,0-3.7A1.65,1.65,0,0,0,43.79,118.74Z"></path><path class="cls-2" d="M50,116.26l1.48,3.38L53,115.88l1.54,3.76,1.49-3.38h1l-2.47,5.33L53,117.87l-1.54,3.72L49,116.26Z"></path><path class="cls-2" d="M62,116.26h.86v5H62v-.7a2.11,2.11,0,0,1-1.7.84,2.63,2.63,0,0,1,0-5.24A2.06,2.06,0,0,1,62,117Zm-3.24,2.48a1.66,1.66,0,0,0,1.63,1.87,1.86,1.86,0,0,0,0-3.7A1.65,1.65,0,0,0,58.76,118.74Z"></path><path class="cls-2" d="M64.74,116.26h.86v.58a1.75,1.75,0,0,1,1.43-.7,1.7,1.7,0,0,1,1.43.68,2.26,2.26,0,0,1,.28,1.34v3.08h-.86v-3.06a1.42,1.42,0,0,0-.23-.91,1,1,0,0,0-.81-.36,1.09,1.09,0,0,0-.88.38,2.16,2.16,0,0,0-.36,1.35v2.6h-.86Z"></path><path class="cls-2" d="M71.05,113.77a.61.61,0,0,1,.61.61.61.61,0,1,1-1.22,0A.61.61,0,0,1,71.05,113.77Zm.43,2.49v5h-.86v-5Z"></path><path class="cls-2" d="M75.52,117.41a.75.75,0,0,0-.69-.5.55.55,0,0,0-.6.56c0,.36.24.47.8.71a3,3,0,0,1,1.25.77,1.15,1.15,0,0,1,.26.8,1.58,1.58,0,0,1-1.71,1.63,1.77,1.77,0,0,1-1.74-1.27l.74-.31a1.14,1.14,0,0,0,1,.81.78.78,0,0,0,.82-.79c0-.47-.34-.62-.81-.83a3.15,3.15,0,0,1-1.21-.73,1.09,1.09,0,0,1-.23-.73,1.35,1.35,0,0,1,1.46-1.39,1.43,1.43,0,0,1,1.36.9Z"></path><path class="cls-2" d="M78.06,112.49h.86v4.35a1.75,1.75,0,0,1,1.43-.7,1.7,1.7,0,0,1,1.43.68,2.26,2.26,0,0,1,.28,1.34v3.08H81.2v-3.06a1.42,1.42,0,0,0-.23-.91,1,1,0,0,0-.81-.36,1.09,1.09,0,0,0-.88.38,2.16,2.16,0,0,0-.36,1.35v2.6h-.86Z"></path><path class="cls-2" d="M84.49,113.77a.61.61,0,0,1,.61.61.61.61,0,1,1-1.22,0A.61.61,0,0,1,84.49,113.77Zm.43,2.49v5h-.86v-5Z"></path><path class="cls-2" d="M94.12,116.26H95v5h-.87v-.7a2.08,2.08,0,0,1-1.7.84,2.63,2.63,0,0,1,0-5.24,2,2,0,0,1,1.7.83Zm-3.23,2.48a1.66,1.66,0,0,0,1.63,1.87,1.86,1.86,0,0,0,0-3.7A1.65,1.65,0,0,0,90.89,118.74Z"></path><path class="cls-2" d="M99.27,117.41a.75.75,0,0,0-.69-.5.55.55,0,0,0-.6.56c0,.36.24.47.8.71A3.1,3.1,0,0,1,100,119a1.2,1.2,0,0,1,.26.8,1.58,1.58,0,0,1-1.71,1.63,1.77,1.77,0,0,1-1.74-1.27l.74-.31a1.13,1.13,0,0,0,1,.81.77.77,0,0,0,.81-.79c0-.47-.33-.62-.8-.83a3.15,3.15,0,0,1-1.21-.73,1.09,1.09,0,0,1-.23-.73,1.34,1.34,0,0,1,1.45-1.39,1.44,1.44,0,0,1,1.37.9Z"></path><path class="cls-2" d="M106.94,113.24a3.47,3.47,0,0,1,1.94.44,2.22,2.22,0,0,1-1.14,4l2.55,3.58h-1.08l-2.44-3.5h-.23v3.5h-.88v-8Zm-.4,3.7h.57c1.1,0,1.76-.52,1.76-1.46a1.23,1.23,0,0,0-.63-1.17,2.24,2.24,0,0,0-1.16-.23h-.54Z"></path><path class="cls-2" d="M112.26,113.77a.61.61,0,0,1,.61.61.62.62,0,0,1-.61.61.61.61,0,0,1-.61-.61A.61.61,0,0,1,112.26,113.77Zm.43,2.49v5h-.86v-5Z"></path><path class="cls-2" d="M115.93,117.05v4.19h-.86v-4.19h-.53v-.79h.53v-1.8h.86v1.8h.86v.79Z"></path><path class="cls-2" d="M120,117.41a.75.75,0,0,0-.69-.5.55.55,0,0,0-.6.56c0,.36.23.47.8.71a3.1,3.1,0,0,1,1.25.77,1.2,1.2,0,0,1,.26.8,1.58,1.58,0,0,1-1.71,1.63,1.77,1.77,0,0,1-1.74-1.27l.74-.31a1.13,1.13,0,0,0,1,.81.77.77,0,0,0,.81-.79c0-.47-.33-.62-.8-.83a3.15,3.15,0,0,1-1.21-.73,1.09,1.09,0,0,1-.23-.73,1.34,1.34,0,0,1,1.45-1.39,1.45,1.45,0,0,1,1.37.9Z"></path><path class="cls-2" d="M123.42,119.16a1.7,1.7,0,0,0,.24,1.07,1,1,0,0,0,.87.38,1.06,1.06,0,0,0,.88-.38,1.7,1.7,0,0,0,.24-1.07v-2.9h.86v3a2,2,0,0,1-.46,1.5,2.17,2.17,0,0,1-3,0,2,2,0,0,1-.46-1.5v-3h.87Z"></path><path class="cls-2" d="M135.45,114.82a2,2,0,0,0-.47-.6,1.42,1.42,0,0,0-.9-.27,1.22,1.22,0,0,0-1.34,1.23.85.85,0,0,0,.3.7,2.57,2.57,0,0,0,.84.5l.77.34a3.9,3.9,0,0,1,1.23.75,1.93,1.93,0,0,1,.58,1.45,2.57,2.57,0,0,1-4.27,1.81,2.86,2.86,0,0,1-.75-1.41l.87-.24a1.87,1.87,0,0,0,.48,1,1.64,1.64,0,0,0,2.76-1.14,1.21,1.21,0,0,0-.4-.94,3.63,3.63,0,0,0-1-.55l-.72-.33a3.89,3.89,0,0,1-1.07-.66,1.7,1.7,0,0,1-.55-1.31,2.06,2.06,0,0,1,2.24-2.06,2.14,2.14,0,0,1,1.29.36,2.45,2.45,0,0,1,.78.88Z"></path><path class="cls-2" d="M137.92,118.77a2.64,2.64,0,1,1,2.64,2.61A2.56,2.56,0,0,1,137.92,118.77Zm.89,0a1.75,1.75,0,1,0,1.75-1.86A1.72,1.72,0,0,0,138.81,118.77Z"></path><path class="cls-2" d="M144.88,116.26h.87v.53a1.44,1.44,0,0,1,1.23-.65,1.52,1.52,0,0,1,1.36.8,1.67,1.67,0,0,1,1.5-.8c1.47,0,1.62,1.24,1.62,1.94v3.16h-.87v-3c0-.57-.07-1.31-.88-1.31-1,0-1.11,1-1.11,1.56v2.77h-.86v-2.95c0-.35,0-1.38-.9-1.38s-1.09,1-1.09,1.62v2.71h-.87Z"></path><path class="cls-2" d="M157.28,116.26h.86v5h-.86v-.7a2.11,2.11,0,0,1-1.7.84,2.63,2.63,0,0,1,0-5.24,2.07,2.07,0,0,1,1.7.83ZM154,118.74a1.66,1.66,0,0,0,1.63,1.87,1.86,1.86,0,0,0,0-3.7A1.65,1.65,0,0,0,154,118.74Z"></path><path class="cls-3" d="M20.35,96.11a6.5,6.5,0,0,1-3.05.7,6.19,6.19,0,0,1-4.51-1.67,5.94,5.94,0,0,1-2-4.59,6.21,6.21,0,0,1,2-4.7,6.39,6.39,0,0,1,4.53-1.59,6.38,6.38,0,0,1,3,.74v2.74a4,4,0,0,0-3-1.35,4.15,4.15,0,0,0,.09,8.3,3.78,3.78,0,0,0,2.89-1.32Z"></path><path class="cls-3" d="M28.07,84.53l3.29,8.07,3.29-8.07h2.62l-5.21,12H30.62l-5.18-12Z"></path><path class="cls-2" d="M61.72,86.47a15,15,0,0,1,3.52,2.64l-1.58,1.46a12.6,12.6,0,0,0-3.24-2.7Zm2.4,5.18,1.62,1.27a50,50,0,0,1-3.12,6.54L60.7,98.18A42.06,42.06,0,0,0,64.12,91.65ZM77.42,97c0,1.42-.42,2.2-1.74,2.4a23.73,23.73,0,0,1-3,0s0-.08-.46-2.18a20.06,20.06,0,0,0,2.38,0c.5,0,.62-.28.62-.72V84.05H65.64v-.26l-1.52,1.4a13.45,13.45,0,0,0-3-2.56l1.32-1.38a16.21,16.21,0,0,1,3.24,2.4V82H79v2H77.42ZM68.64,86.47h4.84v8H68.64v1.34h-2V86.47h2Zm2.78,6v-4H68.64v4Z"></path><path class="cls-2" d="M85,98.68v.84H82.92v-13h4.9V83.91h-6.1v-2h18.42v2H93.56v2.58h5.32v13H96.7v-.84Zm11.66-2V93.62c-.32.38-.8.47-1.56.5H93.78c-1.82-.07-2.22-.57-2.22-3.19V88.51H89.82v.06a8.13,8.13,0,0,1-2.92,6.75l-1.72-1.23a6.25,6.25,0,0,0,2.64-5.54v0H85v8.17ZM91.56,86.49V83.91H89.82v2.58Zm5.14,2H93.56v2.42c0,1.07.08,1.16.44,1.18s.68,0,1,0,.36-.06.38-1.16l1.34.22Z"></path><path class="cls-2" d="M122.58,97.42c.9,0,4.62,0,5.58,0l-.36,1.86c-1,0-4.56,0-5.54,0C119.8,99.2,118,98.6,116.6,97a9,9,0,0,1-1.9,2.56l-1.28-1.38v1.34h-2V90c-.38.7-.8,1.36-1.22,2L109,90.19A27.28,27.28,0,0,0,112.68,81l2,.44c-.12.44-.22.88-.36,1.34h3l1,.14c-.54,1.58-1.3,3.58-2,5.28h1l1.24.1a27.24,27.24,0,0,1-1.22,6.83A6,6,0,0,0,122.58,97.42ZM116.22,93a24.75,24.75,0,0,0,.52-3.14h-1l-.16.34-1.78-.38c.56-1.32,1.4-3.44,2.08-5.32h-1.68V83.15c-.24.82-.5,1.64-.8,2.44V98.18a7.4,7.4,0,0,0,2-2.82,21.27,21.27,0,0,1-1.64-4.21l1.56-.48A19.55,19.55,0,0,0,116.22,93Zm5.38.42V92.25H119V90.61h2.58V89.47H119V88h2.62V86.79h-3.44V85.31h3.44v-1.1H119V82.67h2.62V81h2v1.72H127v2.64h1v1.48h-1v2.68h-3.4v1.14h3.62v1.64h-3.62v1.18h4.32V95.1h-4.32v1.8h-2V95.1h-3.26V93.43Zm3.58-8.12v-1.1h-1.62v1.1Zm-1.62,1.48V88h1.62V86.79Z"></path><path class="cls-2" d="M135.9,88.89c.24-.72.5-1.54.76-2.38H133.3V84.79h3.86c.16-.54.3-1.08.42-1.58h-5.66V81.47h15.62v1.74h-7.72c-.12.52-.28,1-.42,1.58h6.26v4.1H149v1.8H130.44v-1.8Zm-.74,10v.62H133V92h13.48v7.52H144.2V98.9Zm9-1.88V93.86h-9V97Zm-.76-8.13V86.51H138.9c-.26.86-.5,1.66-.74,2.38Z"></path><path class="cls-2" d="M15.4,4.32V0h6.48V4.32H33.7V0h6.6V4.32H55.84v5.4H40.3v3.06H33.7V9.72H21.88V12.9H15.4V9.72H.16V4.32Zm9,36.12V36.66H8.56V14.16H47.5v22.5H31.12v3.78H55.84V46H31.12v9.78H24.4V46H.16V40.44ZM15,23.28H40.84v-4H15Zm0,8.34H40.84V27.48H15Z"></path><path class="cls-2" d="M72.82,4.38H88.54V.06H95.2V4.38h23.58V9.3h-46V19.92c0,11.88-1.14,24.36-5,35.46L62.2,52.14c3.6-9.9,4.56-20.94,4.56-32.16V4.38h6.06ZM91.9,41.46v-3.3H76.3V33.84H91.9V30.9c-4.62.3-9.12.42-12.9.36-.42-1.26-.9-2.46-1.44-4,9.72.36,24.42-.78,31.86-2.46l2.1,3.84a128,128,0,0,1-12.9,1.74v3.48H114v4.32H98.62v3.3h20v4.62h-20v4.14c0,3.06-1,4.86-3.72,5.28a56.46,56.46,0,0,1-8.7.18l-1-5.28c1.92.12,4.68.06,5.52.06s1.2-.48,1.2-1.26V46.08H72V41.46ZM94.72,21.6,92.32,25c-1.26-1.08-3.06-2.58-5-4v4.26H82v-4.2a32.65,32.65,0,0,1-6.3,5.1L73,22.5a26,26,0,0,0,8.28-5.64H74.62V13.08H82v-2.7h5.34v2.7h7.38v3.78H87.34v.3C90,18.66,93,20.46,94.72,21.6Zm2.82,4.08-2.64-3.6a22.44,22.44,0,0,0,8-5.22H96.58V13.08H104v-2.7h5.34v2.7H118v3.78h-7.74a25.49,25.49,0,0,0,8.76,5.4L116.2,26.1a31.21,31.21,0,0,1-6.9-5.22v3.9H104V20.7A26.1,26.1,0,0,1,97.54,25.68Z"></path><path class="cls-2" d="M149.2,46.74l-4.62-5.1a66.33,66.33,0,0,0,12.36-19.08H145.66V16.68h11.7V10c-3.24.6-6.48,1.08-9.36,1.32l-2.1-5.7c8-.42,18.6-2.88,24.18-5.64l3.3,5.28a59.91,59.91,0,0,1-9.48,3.24v8.16h10v5.88h-10v1.32c3.54,4,7.62,8.46,9.9,11.34l-4.08,5.64c-1.38-2.52-3.54-6-5.82-9.36V55.74h-6.54V33.6A84.36,84.36,0,0,1,149.2,46.74Zm28.32-5.16V6.84h6.42V41.58Zm15.6,13.92a56.8,56.8,0,0,1-8,.12l-1.38-6.54a47.51,47.51,0,0,0,6.36.12c1.32-.12,1.74-.84,1.74-2.1V.06h6.54V48.3C198.34,52.5,197.08,54.9,193.12,55.5Z"></path><path class="cls-2" d="M211.3,16.38a45.14,45.14,0,0,1,11,7.2l-4.44,4.68a38,38,0,0,0-10.14-7.44Zm6.72,17L222.88,37a144.18,144.18,0,0,1-8.64,18.48l-5.7-3.78A113.38,113.38,0,0,0,218,33.36ZM213.46.6a44.11,44.11,0,0,1,10.2,6.6l-4.38,4.68A40.24,40.24,0,0,0,209.8,5.1ZM239.8,40.92V37.26H226.12V31.92H239.8V28.38h-13V23h13V19.32H223.42v-5H239.8V10.62H227V5.34H239.8V.06h6.72V5.34h13v8.94h3.9v5h-3.9v9.06h-13v3.54h13.62v5.34H246.52v3.66h16.86v5.52H246.52v9.3H239.8v-9.3H223.18V40.92Zm13.32-26.64V10.62h-6.6v3.66Zm-6.6,5V23h6.6V19.32Z"></path></g></g></svg>