<svg viewbox="0 0 202.02 124.12" xmlns="http://www.w3.org/2000/svg"><defs><style>.cls-1{fill:#89a1bf;}.cls-2{fill:#323232;}.cls-3{fill:#fff;}</style></defs><title>アセット 4</title><g data-name="レイヤー 2" id="レイヤー_2"><g id="レイアウト"><rect class="cls-1" height="20" width="50" x="0.2" y="80.71"></rect><path class="cls-2" d="M5.56,114.94a2.12,2.12,0,0,0-.47-.6,1.41,1.41,0,0,0-.89-.27,1.23,1.23,0,0,0-1.35,1.23.88.88,0,0,0,.3.7,2.57,2.57,0,0,0,.84.5l.77.34a3.79,3.79,0,0,1,1.23.75A1.93,1.93,0,0,1,6.57,119,2.4,2.4,0,0,1,4,121.5a2.38,2.38,0,0,1-1.74-.65,2.84,2.84,0,0,1-.74-1.41l.86-.24a1.87,1.87,0,0,0,.48,1,1.51,1.51,0,0,0,1.15.44,1.52,1.52,0,0,0,1.61-1.58,1.21,1.21,0,0,0-.4-.94,3.47,3.47,0,0,0-1-.55l-.72-.33a3.85,3.85,0,0,1-1.06-.66A1.67,1.67,0,0,1,2,115.29a2.07,2.07,0,0,1,2.25-2.06,2.13,2.13,0,0,1,1.28.36,2.45,2.45,0,0,1,.78.88Z"></path><path class="cls-2" d="M12.4,116.38h.87v5H12.4v-.7a2.11,2.11,0,0,1-1.7.84,2.63,2.63,0,0,1,0-5.24,2.06,2.06,0,0,1,1.7.83Zm-3.24,2.48a1.66,1.66,0,0,0,1.63,1.87,1.86,1.86,0,0,0,0-3.7A1.65,1.65,0,0,0,9.16,118.86Z"></path><path class="cls-2" d="M16.39,117.17v4.19h-.87v-4.19H15v-.79h.52v-1.8h.87v1.8h.86v.79Z"></path><path class="cls-2" d="M18.36,118.89A2.64,2.64,0,1,1,21,121.5,2.56,2.56,0,0,1,18.36,118.89Zm.88,0A1.76,1.76,0,1,0,21,117,1.73,1.73,0,0,0,19.24,118.89Z"></path><path class="cls-2" d="M25.56,116.38h.86v.53a1.45,1.45,0,0,1,1.24-.65,1.5,1.5,0,0,1,1.35.8,1.67,1.67,0,0,1,1.5-.8c1.48,0,1.62,1.24,1.62,1.94v3.16h-.86v-3c0-.57-.08-1.31-.89-1.31-1,0-1.11,1-1.11,1.56v2.77h-.86v-3c0-.35,0-1.38-.9-1.38s-1.09,1-1.09,1.62v2.71h-.86Z"></path><path class="cls-2" d="M34.81,113.89a.61.61,0,0,1,.61.61.62.62,0,0,1-.61.61.61.61,0,0,1-.61-.61A.61.61,0,0,1,34.81,113.89Zm.43,2.49v5h-.86v-5Z"></path><path class="cls-2" d="M44.66,114.94a2.12,2.12,0,0,0-.47-.6,1.44,1.44,0,0,0-.9-.27A1.22,1.22,0,0,0,42,115.3a.85.85,0,0,0,.3.7,2.57,2.57,0,0,0,.84.5l.76.34a4,4,0,0,1,1.24.75,1.93,1.93,0,0,1,.58,1.45,2.41,2.41,0,0,1-2.54,2.46,2.38,2.38,0,0,1-1.73-.65,2.86,2.86,0,0,1-.75-1.41l.87-.24a1.87,1.87,0,0,0,.48,1,1.63,1.63,0,0,0,2.75-1.14,1.2,1.2,0,0,0-.39-.94,3.63,3.63,0,0,0-1-.55l-.72-.33a3.89,3.89,0,0,1-1.07-.66,1.66,1.66,0,0,1-.55-1.31,2.06,2.06,0,0,1,2.24-2.06,2.16,2.16,0,0,1,1.29.36,2.45,2.45,0,0,1,.78.88Z"></path><path class="cls-2" d="M51.5,116.38h.86v5H51.5v-.7a2.12,2.12,0,0,1-1.71.84,2.63,2.63,0,0,1,0-5.24,2.08,2.08,0,0,1,1.71.83Zm-3.24,2.48a1.66,1.66,0,0,0,1.63,1.87,1.86,1.86,0,0,0,0-3.7A1.65,1.65,0,0,0,48.26,118.86Z"></path><path class="cls-2" d="M55.48,117.17v4.19h-.86v-4.19h-.53v-.79h.53v-1.8h.86v1.8h.87v.79Z"></path><path class="cls-2" d="M57.45,118.89a2.64,2.64,0,1,1,2.64,2.61A2.56,2.56,0,0,1,57.45,118.89Zm.89,0A1.75,1.75,0,1,0,60.09,117,1.72,1.72,0,0,0,58.34,118.89Z"></path><path class="cls-2" d="M71.86,116.38h.86v5h-.86v-.7a2.11,2.11,0,0,1-1.7.84,2.63,2.63,0,0,1,0-5.24,2.06,2.06,0,0,1,1.7.83Zm-3.24,2.48a1.66,1.66,0,0,0,1.63,1.87,1.86,1.86,0,0,0,0-3.7A1.65,1.65,0,0,0,68.62,118.86Z"></path><path class="cls-2" d="M77,117.53a.76.76,0,0,0-.7-.5.55.55,0,0,0-.6.56c0,.36.24.47.81.71a3,3,0,0,1,1.24.77,1.16,1.16,0,0,1,.27.8,1.59,1.59,0,0,1-1.72,1.63,1.78,1.78,0,0,1-1.74-1.27l.75-.31a1.12,1.12,0,0,0,1,.81.77.77,0,0,0,.81-.79c0-.46-.34-.62-.8-.83a3.07,3.07,0,0,1-1.21-.73,1,1,0,0,1-.23-.73,1.34,1.34,0,0,1,1.45-1.39,1.45,1.45,0,0,1,1.37.9Z"></path><path class="cls-2" d="M87,114.94a2.12,2.12,0,0,0-.47-.6,1.44,1.44,0,0,0-.9-.27,1.22,1.22,0,0,0-1.34,1.23.85.85,0,0,0,.3.7,2.57,2.57,0,0,0,.84.5l.76.34a4,4,0,0,1,1.24.75A1.93,1.93,0,0,1,88,119a2.41,2.41,0,0,1-2.54,2.46,2.38,2.38,0,0,1-1.73-.65,2.86,2.86,0,0,1-.75-1.41l.87-.24a1.87,1.87,0,0,0,.48,1,1.63,1.63,0,0,0,2.75-1.14,1.2,1.2,0,0,0-.39-.94,3.63,3.63,0,0,0-1-.55l-.72-.33a3.89,3.89,0,0,1-1.07-.66,1.66,1.66,0,0,1-.55-1.31,2.06,2.06,0,0,1,2.24-2.06,2.16,2.16,0,0,1,1.29.36,2.45,2.45,0,0,1,.78.88Z"></path><path class="cls-2" d="M93.81,116.38h.86v5h-.86v-.7a2.12,2.12,0,0,1-1.71.84,2.63,2.63,0,0,1,0-5.24,2.08,2.08,0,0,1,1.71.83Zm-3.24,2.48a1.66,1.66,0,0,0,1.63,1.87,1.86,1.86,0,0,0,0-3.7A1.65,1.65,0,0,0,90.57,118.86Z"></path><path class="cls-2" d="M97.77,112.61v5.62l1.82-1.85h1.13l-2.14,2.14,2.52,2.84H100l-2-2.27-.21.22v2h-.86v-8.75Z"></path><path class="cls-2" d="M103,113.89a.61.61,0,0,1,.61.61.61.61,0,0,1-1.22,0A.61.61,0,0,1,103,113.89Zm.43,2.49v5h-.86v-5Z"></path><path class="cls-2" d="M110.16,116.61h4.11v-3.25h.88v8h-.88v-3.91h-4.11v3.91h-.88v-8h.88Z"></path><path class="cls-2" d="M121.42,116.38h.86v5h-.86v-.7a2.11,2.11,0,0,1-1.7.84,2.63,2.63,0,0,1,0-5.24,2.07,2.07,0,0,1,1.7.83Zm-3.24,2.48a1.66,1.66,0,0,0,1.63,1.87,1.86,1.86,0,0,0,0-3.7A1.65,1.65,0,0,0,118.18,118.86Z"></path><path class="cls-2" d="M124.52,116.38h.86V117a1.75,1.75,0,0,1,1.43-.7,1.68,1.68,0,0,1,1.42.68,2.19,2.19,0,0,1,.29,1.34v3.08h-.86V118.3a1.48,1.48,0,0,0-.23-.91,1,1,0,0,0-.81-.36,1.09,1.09,0,0,0-.88.38,2.1,2.1,0,0,0-.36,1.35v2.6h-.86Z"></path><path class="cls-2" d="M134.57,116.38h.86v5h-.86v-.7a2.11,2.11,0,0,1-1.7.84,2.63,2.63,0,0,1,0-5.24,2.06,2.06,0,0,1,1.7.83Zm-3.24,2.48a1.66,1.66,0,0,0,1.63,1.87,1.86,1.86,0,0,0,0-3.7A1.65,1.65,0,0,0,131.33,118.86Z"></path><path class="cls-2" d="M138.1,113.89a.61.61,0,0,1,.61.61.61.61,0,1,1-1.22,0A.61.61,0,0,1,138.1,113.89Zm.43,2.49v7.74h-.86v-7.74Z"></path><path class="cls-2" d="M141.2,113.89a.61.61,0,0,1,.61.61.62.62,0,1,1-.61-.61Zm.43,2.49v5h-.87v-5Z"></path><path class="cls-2" d="M143.86,116.38h.86v.53a1.45,1.45,0,0,1,1.24-.65,1.48,1.48,0,0,1,1.35.8,1.68,1.68,0,0,1,1.5-.8c1.48,0,1.62,1.24,1.62,1.94v3.16h-.86v-3c0-.57-.07-1.31-.89-1.31-1,0-1.1,1-1.1,1.56v2.77h-.87v-3c0-.35,0-1.38-.9-1.38s-1.09,1-1.09,1.62v2.71h-.86Z"></path><path class="cls-2" d="M156.49,116.38h.87v5h-.87v-.7a2.08,2.08,0,0,1-1.7.84,2.63,2.63,0,0,1,0-5.24,2,2,0,0,1,1.7.83Zm-3.23,2.48a1.66,1.66,0,0,0,1.63,1.87,1.86,1.86,0,0,0,0-3.7A1.65,1.65,0,0,0,153.26,118.86Z"></path><path class="cls-3" d="M20.55,96.23a6.5,6.5,0,0,1-3.05.7A6.19,6.19,0,0,1,13,95.26a5.94,5.94,0,0,1-2-4.59A6.21,6.21,0,0,1,13,86a6.39,6.39,0,0,1,4.53-1.59,6.38,6.38,0,0,1,3,.74v2.74a4,4,0,0,0-3-1.35,4.15,4.15,0,0,0,.1,8.3,3.77,3.77,0,0,0,2.88-1.32Z"></path><path class="cls-3" d="M28.27,84.65l3.29,8.07,3.29-8.07h2.62l-5.21,12H30.82l-5.18-12Z"></path><path class="cls-2" d="M72.28,97V92.13H69.56v-.71a30.81,30.81,0,0,1-3,6.36l-1.42-1.14v3H63V90.41c-.42.7-.84,1.4-1.32,2l-1.36-1.77a27.71,27.71,0,0,0,4.12-9.64l2.16.46A40.08,40.08,0,0,1,65.16,86v9.65a28.9,28.9,0,0,0,3.3-8.51H65.9v-2h2.94c.2-1.28.36-2.64.44-4l2.26.18c-.1,1.32-.24,2.6-.44,3.86h8.08v2H70.72c-.22,1-.46,2-.76,3H77.6v2H74.5V97h4.68v2H67.42V97Z"></path><path class="cls-2" d="M83.2,99.64l-1.8-.84a17.5,17.5,0,0,0,1.46-7.91v-5.7h5.36V97.82c0,1-.28,1.58-1.14,1.74a10.72,10.72,0,0,1-1.86.06l-.34-1.84c.4,0,.92,0,1.1,0s.32-.14.32-.36V94.38H84.54A17,17,0,0,1,83.2,99.64Zm3.4-14.91v-.92h-5v-1.7h5V81.05h2.16v1.06h4.16V81.05H95.1v1.06h5.11v1.7H95.1v.84H92.92v-.84H88.76v.92Zm-1.92,8H86.3V90.55H84.72v.36C84.72,91.51,84.7,92.09,84.68,92.7Zm0-3.79H86.3v-2H84.72Zm6.78,6.77a6.18,6.18,0,0,0-1-1.43,7.93,7.93,0,0,1-1,.65l-1.28-1.27a7.63,7.63,0,0,0,2.08-1.51H88.7V90.51h2.9a11.52,11.52,0,0,0,.6-1.22H89.7V87.71h.92a7.45,7.45,0,0,0-1.1-2.18l1.38-.68a8.37,8.37,0,0,1,1.32,2.24l-1.48.62h2a21,21,0,0,0,.5-2.74l1.82.08a21.51,21.51,0,0,1-.52,2.66h2.68L96,87.11a18.13,18.13,0,0,0,1.44-2.32l1.64.64a22.23,22.23,0,0,1-1.66,2.28h1.84v1.58h-2.6a11.6,11.6,0,0,0,.58,1.22h3v1.61H98.46a6.46,6.46,0,0,0,2,1.32L99.33,94.9a8.31,8.31,0,0,1-1-.58A14.4,14.4,0,0,1,97,95.6l-1.16-.81A10.71,10.71,0,0,0,97,93.38l.6.33a6.9,6.9,0,0,1-1.38-1.59H92.62a8.93,8.93,0,0,1-2,2l1.16-.75A8.11,8.11,0,0,1,93,94.9ZM89.42,99l-.72-1.62c1-.4,2.72-1.22,3.92-1.86L93,97C91.9,97.64,90.36,98.54,89.42,99Zm5.08.52a9.77,9.77,0,0,1-2.1.06L92.14,98a9.29,9.29,0,0,0,1,0c.18,0,.24-.1.24-.26V92.55h2v1.66a7.31,7.31,0,0,0,4.64,3.15L98.94,99a9.26,9.26,0,0,1-3.5-2.26v1.4C95.44,98.94,95.2,99.42,94.5,99.56Zm-1-9h1.84c-.16-.38-.3-.78-.44-1.22h-.88A13.14,13.14,0,0,1,93.54,90.51Z"></path><path class="cls-2" d="M110,95V83.49h-1V81.55h8v1.94h-.9V97.84a9.45,9.45,0,0,0,1.54-4l1.74.46a11.08,11.08,0,0,1-1.7,4.54c-1.08-.54-1.44-.74-1.58-.8v1.62h-2V96.18c-1.64.4-3.58.86-4.8,1.12l-.48-2.08C109.16,95.18,109.58,95.12,110,95Zm4.1-9.21V83.49H112v2.34Zm0,4.22V87.63H112v2.42Zm0,4.31V91.88H112v2.84Zm7.32-12.63a10,10,0,0,1-3.84,5.06l-1.18-1.52a8.31,8.31,0,0,0,3.4-4.2Zm-2.66,7.16a37.3,37.3,0,0,0,1.54-4.32l1.9.58a39.13,39.13,0,0,1-1.56,3.66l3.24-.2c-.4-.58-.86-1.16-1.36-1.76L124,86a20.47,20.47,0,0,1,3.08,4.34l-1.72.92c-.16-.36-.34-.72-.54-1.1-2.16.24-5.3.56-7.14.73L117.28,89Zm2.68,4.73V96.7c0,.66.08.78.42.78h1c.36,0,.38-.06.42-1.14l1.76.3c-.18,2.4-.52,2.7-2,2.74-.4,0-1,0-1.38,0-1.72,0-2.06-.48-2.06-2.68V93.62Zm-.34-3a16.9,16.9,0,0,1,3.06,2.61l-1.44,1.22a14,14,0,0,0-2.84-2.69ZM127.9,85l-1.3,1.68a9.83,9.83,0,0,1-3.94-4.92l1.64-.68A7.78,7.78,0,0,0,127.9,85Zm-2,8.66a12.94,12.94,0,0,1,1.92,4.45l-1.92.58a11.44,11.44,0,0,0-1.68-4.38Z"></path><path class="cls-2" d="M148.66,97.5s-.06.06-1.38,2.14c-3.5-.44-6.22-1.58-8-4-1.22,2-3.58,3.24-8,4l-1.22-2c4.42-.6,6.46-1.58,7.4-3.36h-7.1V92.58H138a10.54,10.54,0,0,0,.16-1.45h-8V89.49h8V88.07h-5.9V86.43h5.9V85.09H131V83.45h4.16a9.64,9.64,0,0,0-.88-1.76l2-.62a10.53,10.53,0,0,1,1.12,2.38h3.74a21.73,21.73,0,0,0,1.18-2.4l2.4.56a21.83,21.83,0,0,1-1.2,1.84h4.2v1.64h-7.32v1.34h6.08v1.64h-6.08v1.42h8.2v1.64h-8.1c0,.5-.1,1-.18,1.45h8.1v1.74H141C142.48,96.5,145.22,97.36,148.66,97.5Z"></path><path class="cls-2" d="M17.7,55.8H11.16V34.92a63.2,63.2,0,0,1-7.26,6.6C2.7,39.84,1.5,38.1,0,36.12c7.44-5.52,13.68-12.9,17.1-20.76l6.36,1.8a59,59,0,0,1-5.76,9.9ZM15.3,5.28V.12h6.54V5.28H34.2V.12h6.6V5.28H56v5.4H40.8v4.74H34.2V10.68H21.84v4.56H15.3V10.68H.36V5.28ZM54.66,25.86c-4.5,3.9-12.6,8.58-19.2,11.1v7c0,4.08.66,4.68,3.12,4.74,2.22,0,5.82.06,8.22,0s2.76-.42,2.94-6.42l6.36,1.08c-.78,10.38-2,11.52-8.82,11.76-2.82.06-6.72.06-9.3,0C30.66,54.9,28.8,53,28.8,43.92V16.56h6.66V30.48c5.7-2.52,11.76-6.24,15.12-9.42Z"></path><path class="cls-2" d="M101.82,41.46v8.88c1.26.06,2.94.12,3.78.12a4.15,4.15,0,0,0,1.08-.24c1-.54,1.92-4,2.64-11.22H71.22V5H85a43.66,43.66,0,0,0,1.8-5l7,1c-.6,1.2-1.32,2.64-2.1,4h17.58V23.58H77.82v3H119v4.56H77.82v3h38.64c-1.08,13.14-2.4,19.56-4.86,20.88a9.69,9.69,0,0,1-4.2.78c-1.14.06-3.84,0-5.28,0l-.66-4.44H72.6v2.76H66.84V41.46H72.6v5h8.46V39.36h6V46.5h8.88v-5Zm.78-29V9.36H77.82v3.06ZM77.82,16.08v3.18H102.6V16.08Z"></path><path class="cls-2" d="M153.18,6.54H165.3V40.86H153.18v4H147.3V6.54h5.88ZM159.3,35V12.36h-6.12V35ZM202,50.52l-4.08,5.28c-5.94-2.94-10.62-7.74-13.8-15-2.76,5.46-7.86,10.62-16.26,15.12l-4.62-4.8c11.16-5.34,15.72-11.76,16.86-18.6H167V26.46h13.38V17.4H168.84v-6h5.22a39.56,39.56,0,0,0-4.08-9L175.26.3a42.34,42.34,0,0,1,4.56,10c-1,.42-1.92.78-2.82,1.08h10.32A103.93,103.93,0,0,0,192.54.12l6.12,2a101.91,101.91,0,0,1-5.16,9.24h5.76v6H187v9.06h14.28v6.06H187.5C190,42.06,195.18,47.82,202,50.52Z"></path></g></g></svg>