<svg viewbox="0 0 264.04 124" xmlns="http://www.w3.org/2000/svg"><defs><style>.cls-1{fill:#c7c791;}.cls-2{fill:#323232;}.cls-3{fill:#fff;}</style></defs><title>アセット 4</title><g data-name="レイヤー 2" id="レイヤー_2"><g id="レイアウト"><rect class="cls-1" height="20" width="50" y="80.59"></rect><path class="cls-2" d="M3.48,117.8.85,113.24h1l2,3.57L6,113.24H7L4.37,117.8v3.44H3.48Z"></path><path class="cls-2" d="M9.4,119.16a1.7,1.7,0,0,0,.24,1.07,1,1,0,0,0,.87.38,1.07,1.07,0,0,0,.88-.38,1.7,1.7,0,0,0,.24-1.07v-2.9h.86v3a2,2,0,0,1-.46,1.5,2.17,2.17,0,0,1-3,0,2,2,0,0,1-.46-1.5v-3H9.4Z"></path><path class="cls-2" d="M15.16,113.77a.61.61,0,0,1,.61.61.62.62,0,1,1-.61-.61Zm.43,2.49v5h-.87v-5Z"></path><path class="cls-2" d="M21.72,117.65a2,2,0,0,0-1.56-.74,1.85,1.85,0,0,0,0,3.7,2.08,2.08,0,0,0,1.6-.78v1a2.68,2.68,0,0,1-1.58.51,2.54,2.54,0,0,1-2.66-2.6,2.58,2.58,0,0,1,2.66-2.64,2.64,2.64,0,0,1,1.55.48Z"></path><path class="cls-2" d="M23.68,112.49h.86v4.35a1.75,1.75,0,0,1,1.43-.7,1.68,1.68,0,0,1,1.42.68,2.19,2.19,0,0,1,.29,1.34v3.08h-.86v-3.06a1.48,1.48,0,0,0-.23-.91,1,1,0,0,0-.81-.36,1.09,1.09,0,0,0-.88.38,2.1,2.1,0,0,0-.36,1.35v2.6h-.86Z"></path><path class="cls-2" d="M30.35,113.77a.61.61,0,0,1,.61.61.62.62,0,0,1-.61.61.61.61,0,0,1-.61-.61A.61.61,0,0,1,30.35,113.77Zm.43,2.49v5h-.86v-5Z"></path><path class="cls-2" d="M36.62,121.24V112.9l6.24,6.54v-6.2h.89v8.36l-6.24-6.54v6.18Z"></path><path class="cls-2" d="M50,116.26h.87v5H50v-.7a2.08,2.08,0,0,1-1.7.84,2.63,2.63,0,0,1,0-5.24A2,2,0,0,1,50,117Zm-3.23,2.48a1.66,1.66,0,0,0,1.63,1.87,1.86,1.86,0,0,0,0-3.7A1.65,1.65,0,0,0,46.78,118.74Z"></path><path class="cls-2" d="M54,112.49v5.62l1.82-1.85h1.13l-2.14,2.14,2.52,2.84H56.18l-2-2.27-.21.22v2h-.87v-8.75Z"></path><path class="cls-2" d="M62.59,116.26h.86v5h-.86v-.7a2.11,2.11,0,0,1-1.7.84,2.63,2.63,0,0,1,0-5.24,2.06,2.06,0,0,1,1.7.83Zm-3.24,2.48A1.66,1.66,0,0,0,61,120.61a1.86,1.86,0,0,0,0-3.7A1.65,1.65,0,0,0,59.35,118.74Z"></path><path class="cls-2" d="M65.69,116.26h.86v.53a1.45,1.45,0,0,1,1.24-.65,1.51,1.51,0,0,1,1.35.8,1.67,1.67,0,0,1,1.5-.8c1.48,0,1.62,1.24,1.62,1.94v3.16H71.4v-3c0-.57-.08-1.31-.89-1.31-1,0-1.11,1-1.11,1.56v2.77h-.86v-2.95c0-.35,0-1.38-.9-1.38s-1.09,1-1.09,1.62v2.71h-.86Z"></path><path class="cls-2" d="M75.37,119.16a1.7,1.7,0,0,0,.24,1.07,1.06,1.06,0,0,0,.88.38,1,1,0,0,0,.87-.38,1.7,1.7,0,0,0,.24-1.07v-2.9h.86v3a2,2,0,0,1-.45,1.5,2.06,2.06,0,0,1-1.52.62,2.08,2.08,0,0,1-1.53-.62,2,2,0,0,1-.45-1.5v-3h.86Z"></path><path class="cls-2" d="M80.7,116.26h.86v.54a1.41,1.41,0,0,1,1.13-.66,2,2,0,0,1,.77.2l-.41.78a.88.88,0,0,0-.51-.16.83.83,0,0,0-.69.31,2.17,2.17,0,0,0-.29,1.34v2.63H80.7Z"></path><path class="cls-2" d="M88.67,116.26h.86v5h-.86v-.7a2.12,2.12,0,0,1-1.71.84,2.63,2.63,0,0,1,0-5.24,2.08,2.08,0,0,1,1.71.83Zm-3.24,2.48a1.66,1.66,0,0,0,1.63,1.87,1.86,1.86,0,0,0,0-3.7A1.65,1.65,0,0,0,85.43,118.74Z"></path><path class="cls-2" d="M99,116.26h.86v5H99v-.7a2.11,2.11,0,0,1-1.7.84,2.63,2.63,0,0,1,0-5.24A2.06,2.06,0,0,1,99,117Zm-3.24,2.48a1.66,1.66,0,0,0,1.63,1.87,1.86,1.86,0,0,0,0-3.7A1.65,1.65,0,0,0,95.73,118.74Z"></path><path class="cls-2" d="M104.12,117.41a.76.76,0,0,0-.7-.5.54.54,0,0,0-.59.56c0,.36.23.47.8.71a3.1,3.1,0,0,1,1.25.77,1.2,1.2,0,0,1,.26.8,1.59,1.59,0,0,1-1.72,1.63,1.77,1.77,0,0,1-1.73-1.27l.74-.31a1.13,1.13,0,0,0,1,.81.77.77,0,0,0,.81-.79c0-.47-.33-.62-.8-.83a3.07,3.07,0,0,1-1.21-.73,1.09,1.09,0,0,1-.23-.73,1.34,1.34,0,0,1,1.45-1.39,1.45,1.45,0,0,1,1.37.9Z"></path><path class="cls-2" d="M114.08,114.82a2,2,0,0,0-.47-.6,1.42,1.42,0,0,0-.9-.27,1.22,1.22,0,0,0-1.34,1.23.85.85,0,0,0,.3.7,2.57,2.57,0,0,0,.84.5l.77.34a4,4,0,0,1,1.23.75,1.93,1.93,0,0,1,.58,1.45,2.57,2.57,0,0,1-4.27,1.81,2.86,2.86,0,0,1-.75-1.41l.87-.24a1.87,1.87,0,0,0,.48,1,1.63,1.63,0,0,0,2.75-1.14,1.2,1.2,0,0,0-.39-.94,3.63,3.63,0,0,0-1-.55l-.72-.33a3.89,3.89,0,0,1-1.07-.66,1.66,1.66,0,0,1-.55-1.31,2.06,2.06,0,0,1,2.24-2.06,2.14,2.14,0,0,1,1.29.36,2.45,2.45,0,0,1,.78.88Z"></path><path class="cls-2" d="M117.1,112.49H118v4.35a1.73,1.73,0,0,1,1.43-.7,1.69,1.69,0,0,1,1.42.68,2.26,2.26,0,0,1,.29,1.34v3.08h-.86v-3.06a1.48,1.48,0,0,0-.23-.91,1,1,0,0,0-.82-.36,1.07,1.07,0,0,0-.87.38,2.1,2.1,0,0,0-.36,1.35v2.6h-.87Z"></path><path class="cls-2" d="M123.78,113.77a.61.61,0,0,1,.61.61.62.62,0,1,1-.61-.61Zm.43,2.49v5h-.87v-5Z"></path><path class="cls-2" d="M130.25,116.26h.87v4.86a3.11,3.11,0,0,1-.48,1.95,2.41,2.41,0,0,1-2,.93,2.47,2.47,0,0,1-1.78-.68,2.24,2.24,0,0,1-.65-1.6h.86a1.47,1.47,0,0,0,1.58,1.51,1.4,1.4,0,0,0,1.32-.7,2.31,2.31,0,0,0,.27-1.27v-.72a2.08,2.08,0,0,1-1.7.84,2.39,2.39,0,0,1-1.7-.67,2.69,2.69,0,0,1-.72-2,2.61,2.61,0,0,1,.72-1.93,2.44,2.44,0,0,1,1.7-.67,2,2,0,0,1,1.7.83Zm-2.73,1.12a1.88,1.88,0,0,0-.5,1.36,1.92,1.92,0,0,0,.56,1.47,1.52,1.52,0,0,0,1.07.4,1.47,1.47,0,0,0,1.09-.42,2,2,0,0,0,.56-1.43,2,2,0,0,0-.53-1.41,1.6,1.6,0,0,0-1.12-.44A1.55,1.55,0,0,0,127.52,117.38Z"></path><path class="cls-2" d="M134.21,119.16a1.64,1.64,0,0,0,.25,1.07,1,1,0,0,0,.87.38,1.07,1.07,0,0,0,.88-.38,1.7,1.7,0,0,0,.24-1.07v-2.9h.86v3a2,2,0,0,1-.46,1.5,2.17,2.17,0,0,1-3,0,2,2,0,0,1-.46-1.5v-3h.86Z"></path><path class="cls-2" d="M139.54,116.26h.87v.54a1.37,1.37,0,0,1,1.13-.66,1.9,1.9,0,0,1,.76.2l-.41.78a.87.87,0,0,0-.5-.16.81.81,0,0,0-.69.31,2.1,2.1,0,0,0-.29,1.34v2.63h-.87Z"></path><path class="cls-2" d="M148.11,120a3.27,3.27,0,0,1-.61.8,2.42,2.42,0,0,1-1.66.61,2.38,2.38,0,0,1-2.46-2.6,2.41,2.41,0,0,1,2.41-2.64,2.23,2.23,0,0,1,1.89.91,3.31,3.31,0,0,1,.46,1.87h-3.87a1.59,1.59,0,0,0,1.58,1.69,1.5,1.5,0,0,0,1-.36,2,2,0,0,0,.52-.68Zm-.85-1.77a1.49,1.49,0,0,0-1.47-1.29,1.51,1.51,0,0,0-1.46,1.29Z"></path><path class="cls-2" d="M157.25,114.82a2.13,2.13,0,0,0-.46-.6,1.47,1.47,0,0,0-.9-.27,1.23,1.23,0,0,0-1.35,1.23.88.88,0,0,0,.3.7,2.57,2.57,0,0,0,.84.5l.77.34a3.79,3.79,0,0,1,1.23.75,1.93,1.93,0,0,1,.58,1.45,2.57,2.57,0,0,1-4.27,1.81,2.84,2.84,0,0,1-.74-1.41l.86-.24a1.87,1.87,0,0,0,.48,1,1.64,1.64,0,0,0,2.76-1.14,1.21,1.21,0,0,0-.4-.94,3.47,3.47,0,0,0-1-.55l-.72-.33a3.85,3.85,0,0,1-1.06-.66,1.66,1.66,0,0,1-.55-1.31,2.06,2.06,0,0,1,2.24-2.06,2.11,2.11,0,0,1,1.28.36,2.45,2.45,0,0,1,.78.88Z"></path><path class="cls-2" d="M160,118.77a2.64,2.64,0,1,1,2.64,2.61A2.56,2.56,0,0,1,160,118.77Zm.88,0a1.76,1.76,0,1,0,1.76-1.86A1.73,1.73,0,0,0,160.85,118.77Z"></path><path class="cls-2" d="M167.17,116.26H168v.53a1.45,1.45,0,0,1,1.24-.65,1.48,1.48,0,0,1,1.35.8,1.67,1.67,0,0,1,1.5-.8c1.48,0,1.62,1.24,1.62,1.94v3.16h-.86v-3c0-.57-.08-1.31-.89-1.31-1,0-1.11,1-1.11,1.56v2.77H170v-2.95c0-.35,0-1.38-.9-1.38s-1.09,1-1.09,1.62v2.71h-.86Z"></path><path class="cls-2" d="M179.8,116.26h.86v5h-.86v-.7a2.11,2.11,0,0,1-1.7.84,2.63,2.63,0,0,1,0-5.24,2.06,2.06,0,0,1,1.7.83Zm-3.24,2.48a1.66,1.66,0,0,0,1.63,1.87,1.86,1.86,0,0,0,0-3.7A1.65,1.65,0,0,0,176.56,118.74Z"></path><path class="cls-3" d="M20.35,96.11a6.5,6.5,0,0,1-3.05.7,6.19,6.19,0,0,1-4.51-1.67,5.94,5.94,0,0,1-2-4.59,6.21,6.21,0,0,1,2-4.7,6.39,6.39,0,0,1,4.53-1.59,6.38,6.38,0,0,1,3,.74v2.74a4,4,0,0,0-3-1.35,4.15,4.15,0,0,0,.09,8.3,3.78,3.78,0,0,0,2.89-1.32Z"></path><path class="cls-3" d="M28.07,84.53l3.29,8.07,3.29-8.07h2.62l-5.21,12H30.62l-5.18-12Z"></path><path class="cls-2" d="M70.7,93.33v6.19H68.42V93.33H63.54v.88H61.38V84.67h7V81H70.7v3.72H78v9.54H75.82v-.88Zm-2.28-2.08V86.73H63.54v4.52Zm7.4,0V86.73H70.7v4.52Z"></path><path class="cls-2" d="M90,91.25l-1.38,1.67c-.34-.77-.86-1.79-1.44-2.81v9.41H84.9v-8a24.26,24.26,0,0,1-2.16,4.13L81.22,94A22,22,0,0,0,84.86,87h-3.4V85H84.9V81h2.24v4h2.92v2H87.14v.5C88.18,88.79,89.32,90.29,90,91.25Zm2.12-2.68a18.48,18.48,0,0,1,2.66,4.94l-2.06.91a16.75,16.75,0,0,0-2.38-5ZM95.54,85V81h2.28v4H100v2H97.82V97c0,1.46-.42,2.28-1.8,2.5a18.45,18.45,0,0,1-2.82,0l-.48-2.24a17.4,17.4,0,0,0,2.22,0c.48,0,.6-.28.6-.72V87H90.68V85Z"></path><path class="cls-2" d="M113.4,93.13h-2.08V87.47A17.27,17.27,0,0,1,109.9,89c-.4-.48-.82-1-1.32-1.52A17.68,17.68,0,0,0,112.86,81l2,.52a22,22,0,0,1-1.46,3Zm0,1.39a13.31,13.31,0,0,1-2.58,4.28l-2-.86a10.21,10.21,0,0,0,2.58-4Zm2.68-.82v2.66c0,.72.2.86,1,.88s2.08,0,2.9,0,.92-.12,1-1.5l2,.34c-.22,2.78-.6,3.12-2.84,3.16-.94,0-2.4,0-3.28,0-2.4-.08-2.92-.56-2.92-2.88V93.7Zm1.06-1-1-1.1a13.88,13.88,0,0,0,4.36-2.38,16,16,0,0,1-1.78-2.68,11.71,11.71,0,0,1-1.14,1.32l-1.26-1.22v4.38h-1.86v-8h1.86v3.22A13.27,13.27,0,0,0,119.4,81l2,.44c-.12.42-.28.84-.44,1.26h6.38v1.78h-1.7a12.62,12.62,0,0,1-2.34,4.82,12.21,12.21,0,0,0,4.26,2.3l-1.36,1.74a14.15,14.15,0,0,1-4.32-2.6,14.09,14.09,0,0,1-3.22,2.06,14.84,14.84,0,0,1,2,2.17L119.06,96a15.15,15.15,0,0,0-2.54-2.82Zm4.78-4.94a10.19,10.19,0,0,0,1.6-3.38h-3.36l-.1.18A10.76,10.76,0,0,0,121.92,87.81Zm2.44,5.77a21.54,21.54,0,0,1,3,4.32l-2.12.84a19.55,19.55,0,0,0-2.78-4.34Z"></path><path class="cls-2" d="M148.4,88.85v2.32H129.84V88.85Z"></path><path class="cls-2" d="M15.4,4.32V0h6.48V4.32H33.7V0h6.6V4.32H55.84v5.4H40.3v3.06H33.7V9.72H21.88V12.9H15.4V9.72H.16V4.32Zm9,36.12V36.66H8.56V14.16H47.5v22.5H31.12v3.78H55.84V46H31.12v9.78H24.4V46H.16V40.44ZM15,23.28H40.84v-4H15Zm0,8.34H40.84V27.48H15Z"></path><path class="cls-2" d="M72.82,4.38H88.54V.06H95.2V4.38h23.58V9.3h-46V19.92c0,11.88-1.14,24.36-5,35.46L62.2,52.14c3.6-9.9,4.56-20.94,4.56-32.16V4.38h6.06ZM91.9,41.46v-3.3H76.3V33.84H91.9V30.9c-4.62.3-9.12.42-12.9.36-.42-1.26-.9-2.46-1.44-4,9.72.36,24.42-.78,31.86-2.46l2.1,3.84a128,128,0,0,1-12.9,1.74v3.48H114v4.32H98.62v3.3h20v4.62h-20v4.14c0,3.06-1,4.86-3.72,5.28a56.46,56.46,0,0,1-8.7.18l-1-5.28c1.92.12,4.68.06,5.52.06s1.2-.48,1.2-1.26V46.08H72V41.46ZM94.72,21.6,92.32,25c-1.26-1.08-3.06-2.58-5-4v4.26H82v-4.2a32.65,32.65,0,0,1-6.3,5.1L73,22.5a26,26,0,0,0,8.28-5.64H74.62V13.08H82v-2.7h5.34v2.7h7.38v3.78H87.34v.3C90,18.66,93,20.46,94.72,21.6Zm2.82,4.08-2.64-3.6a22.44,22.44,0,0,0,8-5.22H96.58V13.08H104v-2.7h5.34v2.7H118v3.78h-7.74a25.49,25.49,0,0,0,8.76,5.4L116.2,26.1a31.21,31.21,0,0,1-6.9-5.22v3.9H104V20.7A26.1,26.1,0,0,1,97.54,25.68Z"></path><path class="cls-2" d="M176.26,55.74H169.6V40.5c-8.46.3-16.74.54-22.68.66l-.78-5.52c4.86.06,11.88,0,19.32-.12l.54-.36a74.58,74.58,0,0,0-11.7-7.92l4-3.36c1.38.72,2.64,1.44,3.9,2.16a68.29,68.29,0,0,0,6.9-6.18c-7.56,1.38-17.1,2.94-22.92,3.9l-1.26-5.46q1.8-.27,4.14-.54v-14h5.7V17c1.38-.18,2.76-.36,4.14-.6V.06H165V4.74h8.22v5H165V15.6c2.94-.42,5.76-.84,8.1-1.2l.24,4.68-2.58.48,4.2,2.28a79.24,79.24,0,0,1-8.34,7c1.32,1,2.64,1.92,3.78,2.82A94.39,94.39,0,0,0,180.7,22.5L186,25.44a125.66,125.66,0,0,1-12.12,10c5-.06,9.84-.18,14.16-.24-1.38-1.26-2.94-2.52-4.62-3.78l4.62-3.06a59.36,59.36,0,0,1,12.24,11.1l-5.34,3c-.72-.9-1.44-1.86-2.34-2.82-4.74.24-10.5.42-16.38.66ZM164.32,44A44,44,0,0,1,153.64,54.9c-5.4-3.18-5.52-3.3-5.64-3.36A35.87,35.87,0,0,0,158.38,42ZM199.06,6.54a67,67,0,0,1-17,4.92v1.2c0,2.58.54,3,2.7,3.06h7.5c2.22-.06,2.46-.3,2.58-4.32l6.06,1c-.66,7.86-1.8,8.82-8.1,8.94-2.58.06-6.36.06-8.7,0-6.9-.18-8.4-1.68-8.4-8.58V.06H182V6.42c5-.9,10.74-2.58,14-4.32ZM187.3,41.76A92.63,92.63,0,0,1,197.62,52l-6,2.64a76.41,76.41,0,0,0-9.54-10.38Z"></path><path class="cls-2" d="M249.82,35.94V30.72H213.1V4.32h6.42V25.2h37V35.94H264v5.82H208.36V35.94Zm-18.06,9.18A93.2,93.2,0,0,1,215,55.68l-6.54-3.78a82.21,82.21,0,0,0,16.8-9.78ZM257.5,1.38v19.2H224V1.38ZM230.38,15.12h20.46V6.78H230.38Zm16.26,27A194.63,194.63,0,0,1,264,52.74l-7.38,3a176.7,176.7,0,0,0-16.44-10.62C246.46,42.24,246.58,42.18,246.64,42.12Z"></path></g></g></svg>