<svg viewbox="0 0 264.04 124.12" xmlns="http://www.w3.org/2000/svg"><defs><style>.cls-1{fill:#ccc;}.cls-2{fill:#323232;}.cls-3{fill:#fff;}</style></defs><title>アセット 5</title><g data-name="レイヤー 2" id="レイヤー_2"><g id="レイアウト"><rect class="cls-1" height="20" width="50" y="80.71"></rect><path class="cls-2" d="M1.79,121.36V113L8,119.56v-6.2h.89v8.36l-6.23-6.54v6.18Z"></path><path class="cls-2" d="M11.05,118.89a2.56,2.56,0,0,1,2.64-2.63,2.62,2.62,0,1,1,0,5.24A2.55,2.55,0,0,1,11.05,118.89Zm.89,0A1.75,1.75,0,1,0,13.69,117,1.72,1.72,0,0,0,11.94,118.89Z"></path><path class="cls-2" d="M19.12,121.36h-.87v-8.75h.87v4.47a2.11,2.11,0,0,1,1.7-.82,2.47,2.47,0,0,1,2.42,2.64,2.42,2.42,0,0,1-2.39,2.6,2.1,2.1,0,0,1-1.73-.84Zm3.23-2.46A1.7,1.7,0,0,0,20.72,117a1.73,1.73,0,0,0-1.65,1.86,1.7,1.7,0,0,0,1.66,1.84A1.67,1.67,0,0,0,22.35,118.9Z"></path><path class="cls-2" d="M26,119.28a1.7,1.7,0,0,0,.24,1.07,1,1,0,0,0,.87.38,1.06,1.06,0,0,0,.88-.38,1.7,1.7,0,0,0,.24-1.07v-2.9h.86v3a2,2,0,0,1-.45,1.5,2.09,2.09,0,0,1-1.53.62,2.06,2.06,0,0,1-1.52-.62,2,2,0,0,1-.46-1.5v-3H26Z"></path><path class="cls-2" d="M31.36,116.38h.86V117a1.75,1.75,0,0,1,1.43-.7,1.69,1.69,0,0,1,1.42.68,2.19,2.19,0,0,1,.29,1.34v3.08H34.5V118.3a1.48,1.48,0,0,0-.23-.91,1,1,0,0,0-.82-.36,1.07,1.07,0,0,0-.87.38,2.08,2.08,0,0,0-.36,1.34v2.61h-.86Z"></path><path class="cls-2" d="M41.41,116.38h.86v5h-.86v-.7a2.11,2.11,0,0,1-1.7.84,2.63,2.63,0,0,1,0-5.24,2.06,2.06,0,0,1,1.7.83Zm-3.24,2.48a1.66,1.66,0,0,0,1.63,1.87,1.86,1.86,0,0,0,0-3.7A1.65,1.65,0,0,0,38.17,118.86Z"></path><path class="cls-2" d="M48.32,116.38h.86v4.86a3.12,3.12,0,0,1-.48,2,2.4,2.4,0,0,1-2,.93,2.43,2.43,0,0,1-1.77-.68,2.2,2.2,0,0,1-.65-1.6h.85a1.49,1.49,0,0,0,1.59,1.51,1.38,1.38,0,0,0,1.31-.7,2.23,2.23,0,0,0,.28-1.27v-.72a2.11,2.11,0,0,1-1.7.84,2.43,2.43,0,0,1-1.71-.67,2.73,2.73,0,0,1-.72-2,2.61,2.61,0,0,1,.72-1.93,2.46,2.46,0,0,1,1.71-.67,2.06,2.06,0,0,1,1.7.83Zm-2.73,1.12a1.9,1.9,0,0,0-.51,1.36,2,2,0,0,0,.57,1.47,1.49,1.49,0,0,0,1.06.4,1.44,1.44,0,0,0,1.09-.42,2.11,2.11,0,0,0,0-2.84,1.62,1.62,0,0,0-1.13-.44A1.54,1.54,0,0,0,45.59,117.5Z"></path><path class="cls-2" d="M55.23,116.38h.87v5h-.87v-.7a2.11,2.11,0,0,1-1.7.84,2.63,2.63,0,0,1,0-5.24,2.06,2.06,0,0,1,1.7.83ZM52,118.86a1.66,1.66,0,0,0,1.64,1.87,1.86,1.86,0,0,0,0-3.7A1.65,1.65,0,0,0,52,118.86Z"></path><path class="cls-2" d="M65.52,114.94a2,2,0,0,0-.47-.6,1.47,1.47,0,0,0-.9-.27,1.22,1.22,0,0,0-1.34,1.23.87.87,0,0,0,.29.7,2.79,2.79,0,0,0,.84.5l.77.34a4,4,0,0,1,1.24.75,1.92,1.92,0,0,1,.57,1.45,2.57,2.57,0,0,1-4.27,1.81,2.93,2.93,0,0,1-.74-1.41l.86-.24a2,2,0,0,0,.48,1,1.54,1.54,0,0,0,1.16.44,1.51,1.51,0,0,0,1.6-1.58,1.23,1.23,0,0,0-.39-.94,3.63,3.63,0,0,0-1-.55l-.72-.33a3.89,3.89,0,0,1-1.07-.66,1.66,1.66,0,0,1-.55-1.31,2.06,2.06,0,0,1,2.24-2.06,2.11,2.11,0,0,1,1.28.36,2.29,2.29,0,0,1,.78.88Z"></path><path class="cls-2" d="M68.54,112.61h.86V117a1.75,1.75,0,0,1,1.43-.7,1.7,1.7,0,0,1,1.43.68,2.26,2.26,0,0,1,.29,1.34v3.08h-.87V118.3a1.47,1.47,0,0,0-.22-.91,1,1,0,0,0-.82-.36,1.07,1.07,0,0,0-.87.38,2.1,2.1,0,0,0-.37,1.34v2.61h-.86Z"></path><path class="cls-2" d="M75.21,113.89a.61.61,0,0,1,.61.61.61.61,0,0,1-.61.61.62.62,0,0,1-.61-.61A.61.61,0,0,1,75.21,113.89Zm.43,2.49v5h-.86v-5Z"></path><path class="cls-2" d="M77.88,116.38h.86v.53a1.45,1.45,0,0,1,1.24-.65,1.48,1.48,0,0,1,1.35.8,1.67,1.67,0,0,1,1.5-.8c1.48,0,1.62,1.24,1.62,1.94v3.16h-.86v-3c0-.56-.08-1.3-.89-1.3-1,0-1.1,1-1.1,1.56v2.77h-.87v-3c0-.35,0-1.38-.9-1.38s-1.09,1-1.09,1.62v2.71h-.86Z"></path><path class="cls-2" d="M90.51,116.38h.86v5h-.86v-.7a2.11,2.11,0,0,1-1.7.84,2.63,2.63,0,0,1,0-5.24,2.06,2.06,0,0,1,1.7.83Zm-3.24,2.48a1.66,1.66,0,0,0,1.63,1.87,1.86,1.86,0,0,0,0-3.7A1.65,1.65,0,0,0,87.27,118.86Z"></path><path class="cls-2" d="M94.62,120.57h3.45v.79H92.89l3.6-4.19h-2.9v-.79h4.62Z"></path><path class="cls-2" d="M103.54,116.38h.87v5h-.87v-.7a2.11,2.11,0,0,1-1.7.84,2.63,2.63,0,0,1,0-5.24,2.06,2.06,0,0,1,1.7.83Zm-3.24,2.48a1.66,1.66,0,0,0,1.64,1.87,1.86,1.86,0,0,0,0-3.7A1.65,1.65,0,0,0,100.3,118.86Z"></path><path class="cls-2" d="M107.5,112.61v5.62l1.83-1.85h1.12l-2.13,2.13,2.52,2.85h-1.13l-2-2.27-.22.22v2h-.86v-8.75Z"></path><path class="cls-2" d="M112.74,113.89a.61.61,0,0,1,.61.61.62.62,0,1,1-.61-.61Zm.43,2.49v5h-.87v-5Z"></path><path class="cls-2" d="M122.61,116.38h.86v5h-.86v-.7a2.11,2.11,0,0,1-1.7.84,2.63,2.63,0,0,1,0-5.24,2.06,2.06,0,0,1,1.7.83Zm-3.24,2.48a1.66,1.66,0,0,0,1.63,1.87,1.86,1.86,0,0,0,0-3.7A1.65,1.65,0,0,0,119.37,118.86Z"></path><path class="cls-2" d="M127.76,117.53a.76.76,0,0,0-.7-.5.55.55,0,0,0-.6.56c0,.36.24.47.81.71a3,3,0,0,1,1.24.77,1.14,1.14,0,0,1,.27.8,1.59,1.59,0,0,1-1.72,1.63,1.78,1.78,0,0,1-1.74-1.27l.75-.31a1.11,1.11,0,0,0,1,.81.77.77,0,0,0,.82-.79c0-.47-.34-.62-.8-.83a3.07,3.07,0,0,1-1.21-.73,1,1,0,0,1-.23-.73,1.34,1.34,0,0,1,1.45-1.39,1.45,1.45,0,0,1,1.37.9Z"></path><path class="cls-2" d="M135.83,117.92l-2.62-4.56h1l2,3.57,2.06-3.57h1l-2.65,4.56v3.44h-.89Z"></path><path class="cls-2" d="M141.75,119.28a1.7,1.7,0,0,0,.24,1.07,1.06,1.06,0,0,0,.88.38,1,1,0,0,0,.87-.38,1.7,1.7,0,0,0,.24-1.07v-2.9h.87v3a2,2,0,0,1-.46,1.5,2.06,2.06,0,0,1-1.52.62,2.08,2.08,0,0,1-1.53-.62,2,2,0,0,1-.45-1.5v-3h.86Z"></path><path class="cls-2" d="M147.94,112.61v5.62l1.83-1.85h1.12l-2.13,2.13,2.52,2.85h-1.13l-2-2.27-.22.22v2h-.86v-8.75Z"></path><path class="cls-2" d="M153.17,113.89a.61.61,0,0,1,.62.61.62.62,0,0,1-1.23,0A.61.61,0,0,1,153.17,113.89Zm.44,2.49v5h-.87v-5Z"></path><path class="cls-2" d="M163,114.94a1.82,1.82,0,0,0-.46-.6,1.47,1.47,0,0,0-.9-.27,1.23,1.23,0,0,0-1.35,1.23.88.88,0,0,0,.3.7,2.57,2.57,0,0,0,.84.5l.77.34a4,4,0,0,1,1.24.75A2,2,0,0,1,164,119a2.57,2.57,0,0,1-4.27,1.81,2.93,2.93,0,0,1-.74-1.41l.86-.24a1.87,1.87,0,0,0,.48,1,1.64,1.64,0,0,0,2.76-1.14,1.23,1.23,0,0,0-.39-.94,3.63,3.63,0,0,0-1-.55l-.72-.33a3.75,3.75,0,0,1-1.07-.66,1.66,1.66,0,0,1-.55-1.31,2.06,2.06,0,0,1,2.24-2.06,2.11,2.11,0,0,1,1.28.36,2.29,2.29,0,0,1,.78.88Z"></path><path class="cls-2" d="M165.74,118.89a2.64,2.64,0,1,1,2.64,2.61A2.56,2.56,0,0,1,165.74,118.89Zm.89,0a1.75,1.75,0,1,0,1.75-1.86A1.72,1.72,0,0,0,166.63,118.89Z"></path><path class="cls-2" d="M172.94,116.38h.86v.53a1.45,1.45,0,0,1,1.24-.65,1.48,1.48,0,0,1,1.35.8,1.68,1.68,0,0,1,1.5-.8c1.48,0,1.62,1.24,1.62,1.94v3.16h-.86v-3c0-.56-.07-1.3-.89-1.3-1,0-1.1,1-1.1,1.56v2.77h-.87v-3c0-.35,0-1.38-.9-1.38s-1.09,1-1.09,1.62v2.71h-.86Z"></path><path class="cls-2" d="M185.57,116.38h.87v5h-.87v-.7a2.11,2.11,0,0,1-1.7.84,2.63,2.63,0,0,1,0-5.24,2.06,2.06,0,0,1,1.7.83Zm-3.24,2.48a1.66,1.66,0,0,0,1.64,1.87,1.86,1.86,0,0,0,0-3.7A1.65,1.65,0,0,0,182.33,118.86Z"></path><path class="cls-3" d="M20.35,96.23a6.5,6.5,0,0,1-3.05.7,6.19,6.19,0,0,1-4.51-1.67,5.94,5.94,0,0,1-2-4.59,6.21,6.21,0,0,1,2-4.7,6.39,6.39,0,0,1,4.53-1.59,6.38,6.38,0,0,1,3,.74v2.74a4,4,0,0,0-3-1.35,4.15,4.15,0,0,0,.09,8.3,3.78,3.78,0,0,0,2.89-1.32Z"></path><path class="cls-3" d="M28.07,84.65l3.29,8.07,3.29-8.07h2.62l-5.21,12H30.62l-5.18-12Z"></path><path class="cls-2" d="M73.26,94.83v3l1.26,0a1.38,1.38,0,0,0,.36-.08c.34-.18.64-1.34.88-3.74H63.06V82.69h4.6a14.55,14.55,0,0,0,.6-1.68l2.34.34c-.2.4-.44.88-.7,1.34h5.86v6.18H65.26v1H79v1.52H65.26v1H78.14c-.36,4.39-.8,6.53-1.62,7a3.23,3.23,0,0,1-1.4.26c-.38,0-1.28,0-1.76,0l-.22-1.48H63.52v.92H61.6V94.83h1.92v1.69h2.82V94.13h2v2.39h3V94.83Zm.26-9.68v-1H65.26v1Zm-8.26,1.22v1.06h8.26V86.37Z"></path><path class="cls-2" d="M84.56,94.17V81.07h1.68v13.1h1.14V83.85h1.68V97.48H87.38V96H83.5v1.88H81.84v-14H83.5v10.3Zm14.28,3.57c0,1.06-.3,1.66-1.22,1.82a16.26,16.26,0,0,1-2.48,0c-.12-.72-.24-1.3-.36-1.9a12.46,12.46,0,0,0,1.66,0c.3,0,.38-.16.38-.42V89.65h-7.3V87.87h2.3a11.08,11.08,0,0,0-.76-3l1.64-.48H89.78V82.67h3.9v-1.6h2v1.6h4v1.74H96.78l1.78.44c-.3.88-.72,2-1.2,3H100v1.78H98.84Zm-7-6.95h4V96.3h-4v.88H90.12V90.79h1.72ZM94,94.7V92.38H91.84V94.7Zm1.52-6.83a35.06,35.06,0,0,0,1.1-3.46H92.78a13,13,0,0,1,.82,3.1l-1.28.36Z"></path><path class="cls-2" d="M113.82,99.64h-2.18V90.13c-.48.78-1,1.54-1.54,2.26l-1.48-1.66a26.27,26.27,0,0,0,4.56-9.68l2.18.5a32.73,32.73,0,0,1-1.54,4.38ZM127.4,84.43v1.92H114.7V84.43Zm-9.32,14.65v.56H116V93h10.26v6.6h-2.18v-.56ZM126,87.45v1.68h-9.7V87.45Zm0,2.78v1.69h-9.7V90.23Zm-.4-8.62v1.7h-8.8v-1.7Zm-1.5,15.61v-2.4h-6v2.4Z"></path><path class="cls-2" d="M132.84,97.2V92h-2.92V90.13h3v-8.5h13.24v1.84h-11v1.16h10v1.56h-10v1.18h10v1.56h-10v1.2h13.2V92H140a9.22,9.22,0,0,0,1.84,2.65A30.83,30.83,0,0,0,145.82,92l1.64,1.47c-1,.69-2.44,1.6-4,2.44a13.53,13.53,0,0,0,5,1.84c-.5.7-.92,1.3-1.36,1.9-4.36-1.1-7.58-3.4-9.36-7.65h-2.68V96.9c1.84-.26,3.74-.54,5.18-.78l.1,1.8c-2.68.54-6.84,1.3-9.24,1.68-.18-.66-.36-1.3-.6-2.1C131.14,97.44,131.94,97.32,132.84,97.2Z"></path><path class="cls-2" d="M15.4,4.44V.12h6.48V4.44H33.7V.12h6.6V4.44H55.84v5.4H40.3V12.9H33.7V9.84H21.88V13H15.4V9.84H.16V4.44Zm9,36.12V36.78H8.56V14.28H47.5v22.5H31.12v3.78H55.84v5.52H31.12v9.78H24.4V46.08H.16V40.56ZM15,23.4H40.84v-4H15Zm0,8.34H40.84V27.6H15Z"></path><path class="cls-2" d="M72.82,4.5H88.54V.18H95.2V4.5h23.58V9.42h-46V20c0,11.88-1.14,24.36-5,35.46L62.2,52.26c3.6-9.9,4.56-20.94,4.56-32.16V4.5h6.06ZM91.9,41.58v-3.3H76.3V34H91.9V31c-4.62.3-9.12.42-12.9.36-.42-1.26-.9-2.46-1.44-4,9.72.36,24.42-.78,31.86-2.46l2.1,3.84a128,128,0,0,1-12.9,1.74V34H114v4.32H98.62v3.3h20V46.2h-20v4.14c0,3.06-1,4.86-3.72,5.28a56.46,56.46,0,0,1-8.7.18l-1-5.28c1.92.12,4.68.06,5.52.06s1.2-.48,1.2-1.26V46.2H72V41.58Zm2.82-19.86-2.4,3.42c-1.26-1.08-3.06-2.58-5-4v4.26H82v-4.2a32.65,32.65,0,0,1-6.3,5.1L73,22.62A26,26,0,0,0,81.28,17H74.62V13.2H82V10.5h5.34v2.7h7.38V17H87.34v.3C90,18.78,93,20.58,94.72,21.72Zm2.82,4.08L94.9,22.2a22.44,22.44,0,0,0,8-5.22H96.58V13.2H104V10.5h5.34v2.7H118V17h-7.74a25.49,25.49,0,0,0,8.76,5.4l-2.82,3.84A31.21,31.21,0,0,1,109.3,21v3.9H104V20.82A26.1,26.1,0,0,1,97.54,25.8Z"></path><path class="cls-2" d="M155.32,53v2.82h-6.48V12.06H169.3V.12H176V12.06h21.36v43.8h-6.66V53Zm14-23.88v-11h-14v11Zm0,17.76V35.16h-14V46.92Zm21.42-17.76v-11H176v11Zm0,17.76V35.16H176V46.92Z"></path><path class="cls-2" d="M255.58,30h3.06V46.26c0,3-.9,4.74-3.48,5.16a45.6,45.6,0,0,1-7.8.18l-1.14-5.76a35.67,35.67,0,0,0,4.86.12c.78-.06,1-.36,1-1V35.58H241.9V55.8h-6.6V35.58h-9.6V52h-6.48V38.7a60,60,0,0,1-6.84,5.16l-5-4.26a53.47,53.47,0,0,0,11.82-9.54V30h.06a40.93,40.93,0,0,0,4.44-5.76H208.36v-5.4h18.36a35.59,35.59,0,0,0,1.56-3.78c-4.32,1.08-8.7,1.92-13,2.58l-5-4.74A140.48,140.48,0,0,0,232,8.7q-6.3-2.61-13.5-5L223.9.24c5.64,1.92,10.92,3.9,15.9,5.88A74.8,74.8,0,0,0,252.64,0l4.86,3.66a72.66,72.66,0,0,1-10.8,5.46C251,11,254.86,13,258.58,15l-6.06,3.36c-3.84-2.16-8.22-4.32-13.08-6.48-2.94,1-5.94,1.86-9,2.64l4.5,1.08-1.26,3.24H264v5.4H231A47.67,47.67,0,0,1,227.26,30h8V25h6.6v5h13.68Z"></path></g></g></svg>